<?xml version="1.0" encoding="UTF-8" standalone="no"?><!DOCTYPE svg PUBLIC "-//W3C//DTD SVG 1.1//EN" "http://www.w3.org/Graphics/SVG/1.1/DTD/svg11.dtd"><svg width="100%" height="100%" viewBox="0 0 616 1081" version="1.1" xmlns="http://www.w3.org/2000/svg" xmlns:xlink="http://www.w3.org/1999/xlink" xml:space="preserve" xmlns:serif="http://www.serif.com/" style="fill-rule:evenodd;clip-rule:evenodd;stroke-linejoin:round;stroke-miterlimit:2;"><g><path d="M581.278,1043.27l-0,26.524c-0,2.101 -0.767,4.063 -2.085,5.704c-1.38,1.717 -3.374,3.066 -5.719,3.818c-0.706,0.245 -1.457,0.414 -2.223,0.536c-0.706,0.107 -1.411,0.153 -2.147,0.153l-503.136,0c-6.487,0 -11.83,-4.308 -12.159,-9.689c-0.006,-0.169 -0.014,-0.353 -0.014,-0.522l-0,-26.524c-0,-0.184 0.008,-0.352 0.014,-0.536c0.329,-5.382 5.672,-9.69 12.159,-9.69l503.136,0c0.736,0 1.441,0.061 2.147,0.153c0.766,0.123 1.517,0.292 2.223,0.537c2.345,0.751 4.339,2.1 5.719,3.818c1.318,1.64 2.085,3.603 2.085,5.718Z" style="fill:#ffb93e;fill-rule:nonzero;"/><path d="M334.205,1080.01l-269.543,0c-5.786,0 -10.557,-4.308 -10.853,-9.689c-0.006,-0.169 -0.014,-0.353 -0.014,-0.522l-0,-26.524c-0,-0.184 0.008,-0.352 0.014,-0.536c0.296,-5.382 5.067,-9.69 10.853,-9.69l236.442,0c3.787,13.829 12.587,32.948 33.101,46.961Z" style="fill:#ffa412;fill-rule:nonzero;"/><rect x="514.339" y="1033.04" width="5.719" height="46.961" style="fill:#ffa412;fill-rule:nonzero;"/><rect x="494.975" y="1033.04" width="5.719" height="46.961" style="fill:#ffa412;fill-rule:nonzero;"/><rect x="471.762" y="1033.04" width="5.719" height="46.961" style="fill:#ffa412;fill-rule:nonzero;"/><rect x="436.192" y="1033.04" width="5.719" height="46.961" style="fill:#ffa412;fill-rule:nonzero;"/><rect x="398.568" y="1033.04" width="5.719" height="46.961" style="fill:#ffa412;fill-rule:nonzero;"/><rect x="340.89" y="1033.04" width="5.719" height="46.961" style="fill:#ffa412;fill-rule:nonzero;"/><rect x="286.876" y="1033.04" width="5.719" height="46.961" style="fill:#ffa412;fill-rule:nonzero;"/><rect x="238.657" y="1033.04" width="5.719" height="46.961" style="fill:#ffa412;fill-rule:nonzero;"/><rect x="532.768" y="1033.04" width="5.719" height="46.961" style="fill:#ffa412;fill-rule:nonzero;"/><rect x="544.941" y="1033.04" width="5.719" height="46.961" style="fill:#ffa412;fill-rule:nonzero;"/><rect x="556.685" y="1033.04" width="5.719" height="46.961" style="fill:#ffa412;fill-rule:nonzero;"/><path d="M571.251,1033.2l-0,46.655c-0.706,0.107 -1.411,0.153 -2.147,0.153l-3.572,0l-0,-46.961l3.572,0c0.736,0 1.441,0.061 2.147,0.153Z" style="fill:#ffa412;fill-rule:nonzero;"/><path d="M579.193,1037.55l-0,37.946c-1.38,1.717 -3.374,3.066 -5.719,3.818l-0,-45.582c2.345,0.751 4.339,2.1 5.719,3.818Z" style="fill:#ffa412;fill-rule:nonzero;"/><path d="M527.478,996.294l0,26.524c0,2.116 -0.766,4.078 -2.085,5.703c-1.38,1.717 -3.373,3.067 -5.703,3.833c-0.721,0.23 -1.472,0.414 -2.239,0.521c-0.69,0.108 -1.41,0.169 -2.146,0.169l-503.132,0c-6.486,0 -11.83,-4.324 -12.159,-9.705c-0.006,-0.169 -0.014,-0.353 -0.014,-0.521l0,-26.524c0,-0.169 0.008,-0.353 0.014,-0.522c0.329,-5.381 5.673,-9.705 12.159,-9.705l503.132,0c0.322,0 0.644,0.016 0.966,0.031l0.414,0.046c0.153,-0 0.306,0.015 0.444,0.046l0.322,0.046c0.767,0.107 1.518,0.291 2.239,0.521l0.306,0.108l0.307,0.122c0.215,0.077 0.414,0.154 0.613,0.246l0.353,0.153l0.306,0.153c0.2,0.107 0.384,0.199 0.583,0.307c0.215,0.122 0.414,0.26 0.629,0.398c0.153,0.092 0.306,0.2 0.46,0.322l0.03,0.016l0.307,0.23c0.306,0.245 0.613,0.506 0.889,0.766l0.245,0.246l0.23,0.245c0.154,0.169 0.307,0.337 0.445,0.521c1.319,1.625 2.085,3.588 2.085,5.704Z" style="fill:#ffb93e;fill-rule:nonzero;"/><path d="M280.421,1033.04l-269.552,0c-5.794,0 -10.559,-4.324 -10.855,-9.705c-0.006,-0.169 -0.014,-0.353 -0.014,-0.521l0,-26.524c0,-0.169 0.008,-0.353 0.014,-0.522c0.296,-5.381 5.061,-9.705 10.855,-9.705l236.435,0c0.107,0.384 0.213,0.767 0.337,1.166c3.941,13.722 12.818,32.181 32.78,45.811Z" style="fill:#ffa412;fill-rule:nonzero;"/><rect x="460.539" y="986.067" width="5.719" height="46.977" style="fill:#ffa412;fill-rule:nonzero;"/><rect x="441.191" y="986.067" width="5.719" height="46.977" style="fill:#ffa412;fill-rule:nonzero;"/><rect x="417.978" y="986.067" width="5.719" height="46.977" style="fill:#ffa412;fill-rule:nonzero;"/><rect x="382.393" y="986.067" width="5.719" height="46.977" style="fill:#ffa412;fill-rule:nonzero;"/><rect x="344.769" y="986.067" width="5.719" height="46.977" style="fill:#ffa412;fill-rule:nonzero;"/><rect x="287.09" y="986.067" width="5.719" height="46.977" style="fill:#ffa412;fill-rule:nonzero;"/><rect x="233.091" y="986.067" width="5.703" height="46.977" style="fill:#ffa412;fill-rule:nonzero;"/><rect x="184.861" y="986.067" width="5.719" height="46.977" style="fill:#ffa412;fill-rule:nonzero;"/><rect x="478.968" y="986.067" width="5.719" height="46.977" style="fill:#ffa412;fill-rule:nonzero;"/><rect x="491.142" y="986.067" width="5.719" height="46.977" style="fill:#ffa412;fill-rule:nonzero;"/><rect x="502.886" y="986.067" width="5.719" height="46.977" style="fill:#ffa412;fill-rule:nonzero;"/><path d="M517.451,986.236l0,46.639c-0.69,0.108 -1.41,0.169 -2.146,0.169l-3.573,0l0,-46.977l3.573,0c0.736,0 1.456,0.062 2.146,0.169Z" style="fill:#ffa412;fill-rule:nonzero;"/><path d="M525.393,990.59l-0,37.931c-1.38,1.717 -3.373,3.067 -5.703,3.833l-0,-45.597c2.33,0.751 4.323,2.116 5.703,3.833Z" style="fill:#ffa412;fill-rule:nonzero;"/><path d="M553.481,950.482l0,26.524c0,2.116 -0.767,4.078 -2.085,5.704c-1.395,1.717 -3.389,3.066 -5.719,3.833c-0.705,0.23 -1.456,0.414 -2.223,0.521c-0.705,0.107 -1.41,0.169 -2.147,0.169l-503.138,-0c-2.018,-0 -3.93,-0.43 -5.612,-1.166c-3.56,-1.564 -6.103,-4.569 -6.507,-8.08c-0.021,-0.153 -0.033,-0.306 -0.039,-0.46c-0.008,-0.168 -0.014,-0.352 -0.014,-0.521l-0,-26.524c-0,-0.184 0.006,-0.353 0.014,-0.521c0.328,-5.382 5.671,-9.705 12.158,-9.705l503.138,-0c0.737,-0 1.442,0.061 2.147,0.168c0.767,0.108 1.518,0.292 2.223,0.522c2.33,0.751 4.324,2.116 5.719,3.833c1.318,1.625 2.085,3.587 2.085,5.703Z" style="fill:#ffb93e;fill-rule:nonzero;"/><path d="M306.408,987.233l-269.544,-0c-1.805,-0 -3.506,-0.43 -5.006,-1.166c-3.184,-1.564 -5.452,-4.569 -5.808,-8.08c-0.021,-0.153 -0.033,-0.306 -0.039,-0.46c-0.008,-0.168 -0.014,-0.352 -0.014,-0.521l-0,-26.524c-0,-0.184 0.006,-0.353 0.014,-0.521c0.295,-5.382 5.065,-9.705 10.853,-9.705l236.443,-0c3.68,13.446 12.097,31.921 31.446,45.811c0.552,0.399 1.103,0.782 1.655,1.166Z" style="fill:#ffa412;fill-rule:nonzero;"/><rect x="486.542" y="940.256" width="5.719" height="46.977" style="fill:#ffa412;fill-rule:nonzero;"/><rect x="467.178" y="940.256" width="5.719" height="46.977" style="fill:#ffa412;fill-rule:nonzero;"/><rect x="443.966" y="940.256" width="5.719" height="46.977" style="fill:#ffa412;fill-rule:nonzero;"/><rect x="408.396" y="940.256" width="5.719" height="46.977" style="fill:#ffa412;fill-rule:nonzero;"/><rect x="370.771" y="940.256" width="5.719" height="46.977" style="fill:#ffa412;fill-rule:nonzero;"/><rect x="313.093" y="940.256" width="5.703" height="46.977" style="fill:#ffa412;fill-rule:nonzero;"/><rect x="259.079" y="940.256" width="5.719" height="46.977" style="fill:#ffa412;fill-rule:nonzero;"/><rect x="210.86" y="940.256" width="5.719" height="46.977" style="fill:#ffa412;fill-rule:nonzero;"/><rect x="504.971" y="940.256" width="5.703" height="46.977" style="fill:#ffa412;fill-rule:nonzero;"/><rect x="517.129" y="940.256" width="5.719" height="46.977" style="fill:#ffa412;fill-rule:nonzero;"/><rect x="528.889" y="940.256" width="5.719" height="46.977" style="fill:#ffa412;fill-rule:nonzero;"/><path d="M543.454,940.424l-0,46.64c-0.705,0.107 -1.41,0.169 -2.147,0.169l-3.572,-0l0,-46.977l3.572,-0c0.737,-0 1.442,0.061 2.147,0.168Z" style="fill:#ffa412;fill-rule:nonzero;"/><path d="M551.396,944.779l-0,37.931c-1.395,1.717 -3.389,3.066 -5.719,3.833l0,-45.597c2.33,0.751 4.324,2.1 5.719,3.833Z" style="fill:#ffa412;fill-rule:nonzero;"/><path d="M565.532,903.505l-0,26.524c-0,2.116 -0.767,4.079 -2.085,5.719c-1.396,1.717 -3.373,3.067 -5.719,3.818c-0.705,0.245 -1.457,0.414 -2.223,0.521c-0.705,0.107 -1.411,0.169 -2.147,0.169l-503.137,-0c-6.487,-0 -11.83,-4.308 -12.16,-9.69c-0.006,-0.184 -0.012,-0.353 -0.012,-0.537l0,-26.524c0,-0.168 0.006,-0.352 0.012,-0.521c0.304,-4.983 4.899,-9.046 10.72,-9.628c0.471,-0.046 0.949,-0.077 1.44,-0.077l503.137,0c0.736,0 1.442,0.061 2.147,0.169c0.766,0.122 1.518,0.291 2.223,0.536c2.346,0.752 4.323,2.101 5.719,3.818c1.318,1.64 2.085,3.588 2.085,5.703Z" style="fill:#ffb93e;fill-rule:nonzero;"/><path d="M318.459,940.256l-269.543,-0c-5.788,-0 -10.559,-4.308 -10.855,-9.69c-0.006,-0.184 -0.012,-0.353 -0.012,-0.537l0,-26.524c0,-0.168 0.006,-0.352 0.012,-0.521c0.27,-4.967 4.375,-9.046 9.57,-9.628c0.418,-0.046 0.847,-0.077 1.285,-0.077l236.442,0l0.03,0.077c3.787,13.814 12.588,32.902 33.071,46.9Z" style="fill:#ffa412;fill-rule:nonzero;"/><rect x="498.593" y="893.279" width="5.719" height="46.977" style="fill:#ffa412;fill-rule:nonzero;"/><rect x="479.229" y="893.279" width="5.719" height="46.977" style="fill:#ffa412;fill-rule:nonzero;"/><rect x="456.016" y="893.279" width="5.719" height="46.977" style="fill:#ffa412;fill-rule:nonzero;"/><rect x="420.447" y="893.279" width="5.719" height="46.977" style="fill:#ffa412;fill-rule:nonzero;"/><rect x="382.822" y="893.279" width="5.719" height="46.977" style="fill:#ffa412;fill-rule:nonzero;"/><rect x="325.144" y="893.279" width="5.719" height="46.977" style="fill:#ffa412;fill-rule:nonzero;"/><rect x="271.13" y="893.279" width="5.717" height="46.977" style="fill:#ffa412;fill-rule:nonzero;"/><rect x="222.911" y="893.279" width="5.719" height="46.977" style="fill:#ffa412;fill-rule:nonzero;"/><rect x="517.022" y="893.279" width="5.719" height="46.977" style="fill:#ffa412;fill-rule:nonzero;"/><rect x="529.195" y="893.279" width="5.703" height="46.977" style="fill:#ffa412;fill-rule:nonzero;"/><rect x="540.939" y="893.279" width="5.719" height="46.977" style="fill:#ffa412;fill-rule:nonzero;"/><path d="M555.505,893.448l-0,46.639c-0.705,0.107 -1.411,0.169 -2.147,0.169l-3.572,-0l-0,-46.977l3.572,0c0.736,0 1.442,0.061 2.147,0.169Z" style="fill:#ffa412;fill-rule:nonzero;"/><path d="M563.447,897.802l-0,37.946c-1.396,1.717 -3.373,3.067 -5.719,3.818l-0,-45.597c2.346,0.767 4.323,2.116 5.719,3.833Z" style="fill:#ffa412;fill-rule:nonzero;"/><path d="M528.536,856.605l0,26.54c0,2.1 -0.767,4.063 -2.085,5.703c-1.38,1.717 -3.373,3.066 -5.703,3.818c-0.721,0.245 -1.472,0.414 -2.239,0.536c-0.23,0.031 -0.46,0.062 -0.705,0.077l-0.399,0.046l-0.399,0.015c-0.214,0.016 -0.429,0.016 -0.643,0.016l-503.132,-0c-6.488,-0 -11.831,-4.309 -12.159,-9.69c-0.008,-0.184 -0.014,-0.353 -0.014,-0.521l-0,-26.54c-0,-0.168 0.006,-0.337 0.014,-0.521c0.006,-0.138 0.02,-0.291 0.032,-0.429c0.484,-4.324 4.227,-7.896 9.125,-8.954l0.37,-0.061c0.849,-0.169 1.729,-0.246 2.632,-0.246l503.132,0c0.368,0 0.736,0.016 1.088,0.031c0.169,0.015 0.322,0.031 0.491,0.046c0.199,0.031 0.383,0.061 0.567,0.077c0.767,0.122 1.518,0.291 2.239,0.536c2.33,0.751 4.323,2.101 5.703,3.818c1.318,1.64 2.085,3.603 2.085,5.703Z" style="fill:#ffb93e;fill-rule:nonzero;"/><path d="M281.479,893.356l-269.554,-0c-5.788,-0 -10.559,-4.309 -10.853,-9.69c-0.008,-0.184 -0.014,-0.353 -0.014,-0.521l-0,-26.54c-0,-0.168 0.006,-0.337 0.014,-0.521c0.006,-0.138 0.02,-0.291 0.032,-0.429c0.438,-4.416 3.917,-8.05 8.432,-9.015c0.155,-0.031 0.31,-0.062 0.465,-0.092c0.626,-0.108 1.265,-0.154 1.924,-0.154l236.452,0l0.091,0.322c3.819,13.784 12.62,32.672 32.904,46.563l0.107,0.077Z" style="fill:#ffa412;fill-rule:nonzero;"/><rect x="461.597" y="846.394" width="5.719" height="46.961" style="fill:#ffa412;fill-rule:nonzero;"/><rect x="442.248" y="846.394" width="5.719" height="46.961" style="fill:#ffa412;fill-rule:nonzero;"/><rect x="419.036" y="846.394" width="5.719" height="46.961" style="fill:#ffa412;fill-rule:nonzero;"/><rect x="383.451" y="846.394" width="5.719" height="46.961" style="fill:#ffa412;fill-rule:nonzero;"/><rect x="345.826" y="846.394" width="5.719" height="46.961" style="fill:#ffa412;fill-rule:nonzero;"/><rect x="288.148" y="846.394" width="5.719" height="46.961" style="fill:#ffa412;fill-rule:nonzero;"/><rect x="234.134" y="846.394" width="5.719" height="46.961" style="fill:#ffa412;fill-rule:nonzero;"/><rect x="185.917" y="846.394" width="5.719" height="46.961" style="fill:#ffa412;fill-rule:nonzero;"/><rect x="480.026" y="846.394" width="5.719" height="46.961" style="fill:#ffa412;fill-rule:nonzero;"/><rect x="492.2" y="846.394" width="5.719" height="46.961" style="fill:#ffa412;fill-rule:nonzero;"/><rect x="503.944" y="846.394" width="5.719" height="46.961" style="fill:#ffa412;fill-rule:nonzero;"/><path d="M518.509,846.548l-0,46.654c-0.69,0.108 -1.41,0.154 -2.146,0.154l-3.573,-0l0,-46.962l3.573,0c0.736,0 1.456,0.046 2.146,0.154Z" style="fill:#ffa412;fill-rule:nonzero;"/><path d="M526.451,850.902l-0,37.946c-1.38,1.717 -3.373,3.066 -5.703,3.818l-0,-45.582c2.33,0.751 4.323,2.101 5.703,3.818Z" style="fill:#ffa412;fill-rule:nonzero;"/><path d="M527.478,809.981l0,26.524c0,2.116 -0.766,4.063 -2.085,5.704c-1.38,1.717 -3.373,3.066 -5.703,3.817c-0.568,0.2 -1.15,0.338 -1.748,0.445c-0.169,0.031 -0.322,0.061 -0.491,0.092c-0.69,0.107 -1.41,0.153 -2.146,0.153l-503.132,0c-0.53,0 -1.062,-0.015 -1.574,-0.076c-0.201,-0.031 -0.403,-0.046 -0.598,-0.092c-5.472,-0.828 -9.697,-4.753 -9.987,-9.521c-0.006,-0.169 -0.014,-0.353 -0.014,-0.522l0,-26.524c0,-0.184 0.008,-0.353 0.014,-0.537c0.329,-5.381 5.673,-9.689 12.159,-9.689l503.132,-0c0.322,-0 0.644,0.015 0.966,0.03l0.414,0.031c0.153,0.015 0.306,0.031 0.444,0.061l0.322,0.046c0.767,0.108 1.518,0.276 2.239,0.522l0.306,0.107l0.307,0.107c0.215,0.077 0.414,0.169 0.613,0.246c0.23,0.107 0.445,0.214 0.659,0.322c0.2,0.092 0.384,0.199 0.583,0.306c0.215,0.123 0.414,0.261 0.629,0.384c0.153,0.107 0.306,0.214 0.46,0.322l0.03,0.03l0.307,0.23c0.306,0.23 0.613,0.491 0.889,0.767l0.245,0.23l0.23,0.245c0.154,0.169 0.307,0.353 0.445,0.521c1.319,1.641 2.085,3.603 2.085,5.719Z" style="fill:#ffb93e;fill-rule:nonzero;"/><path d="M280.421,846.716l-269.552,0c-0.215,0 -0.431,0 -0.64,-0.015c-0.236,-0 -0.464,-0.031 -0.693,-0.061c-5.182,-0.598 -9.252,-4.646 -9.522,-9.613c-0.006,-0.169 -0.014,-0.353 -0.014,-0.522l0,-26.524c0,-0.184 0.008,-0.353 0.014,-0.537c0.296,-5.381 5.061,-9.689 10.855,-9.689l236.435,-0c0.107,0.383 0.213,0.766 0.337,1.15c3.909,13.614 12.665,31.89 32.289,45.489c0.169,0.108 0.322,0.215 0.491,0.322Z" style="fill:#ffa412;fill-rule:nonzero;"/><rect x="460.539" y="799.755" width="5.719" height="46.977" style="fill:#ffa412;fill-rule:nonzero;"/><rect x="441.191" y="799.755" width="5.719" height="46.977" style="fill:#ffa412;fill-rule:nonzero;"/><rect x="417.978" y="799.755" width="5.719" height="46.977" style="fill:#ffa412;fill-rule:nonzero;"/><rect x="382.393" y="799.755" width="5.719" height="46.977" style="fill:#ffa412;fill-rule:nonzero;"/><rect x="344.769" y="799.755" width="5.719" height="46.977" style="fill:#ffa412;fill-rule:nonzero;"/><rect x="287.09" y="799.755" width="5.719" height="46.977" style="fill:#ffa412;fill-rule:nonzero;"/><rect x="233.091" y="799.755" width="5.703" height="46.977" style="fill:#ffa412;fill-rule:nonzero;"/><rect x="184.861" y="799.755" width="5.719" height="46.977" style="fill:#ffa412;fill-rule:nonzero;"/><rect x="478.968" y="799.755" width="5.719" height="46.977" style="fill:#ffa412;fill-rule:nonzero;"/><rect x="491.142" y="799.755" width="5.719" height="46.977" style="fill:#ffa412;fill-rule:nonzero;"/><rect x="502.886" y="799.755" width="5.719" height="46.977" style="fill:#ffa412;fill-rule:nonzero;"/><path d="M517.451,799.923l0,46.64c-0.69,0.107 -1.41,0.153 -2.146,0.153l-3.573,0l0,-46.961l3.573,-0c0.736,-0 1.456,0.061 2.146,0.168Z" style="fill:#ffa412;fill-rule:nonzero;"/><path d="M525.393,804.262l-0,37.947c-1.38,1.717 -3.373,3.066 -5.703,3.833l-0,-45.597c2.33,0.751 4.323,2.1 5.703,3.817Z" style="fill:#ffa412;fill-rule:nonzero;"/><path d="M553.481,764.17l0,26.524c0,2.1 -0.767,4.063 -2.085,5.703c-1.395,1.717 -3.389,3.066 -5.719,3.818c-0.705,0.245 -1.456,0.414 -2.223,0.536c-0.705,0.108 -1.41,0.154 -2.147,0.154l-503.138,-0c-2.018,-0 -3.93,-0.414 -5.612,-1.15c-3.56,-1.564 -6.103,-4.569 -6.507,-8.08c-0.021,-0.153 -0.033,-0.307 -0.039,-0.46c-0.008,-0.184 -0.014,-0.353 -0.014,-0.521l-0,-26.524c-0,-0.184 0.006,-0.353 0.014,-0.537c0.328,-5.381 5.671,-9.69 12.158,-9.69l503.138,0c0.737,0 1.442,0.046 2.147,0.154c0.767,0.122 1.518,0.291 2.223,0.536c2.33,0.751 4.324,2.101 5.719,3.818c1.318,1.64 2.085,3.603 2.085,5.719Z" style="fill:#ffb93e;fill-rule:nonzero;"/><path d="M306.408,800.905l-269.544,-0c-1.805,-0 -3.506,-0.414 -5.006,-1.15c-3.184,-1.564 -5.452,-4.569 -5.808,-8.08c-0.021,-0.153 -0.033,-0.307 -0.039,-0.46c-0.008,-0.184 -0.014,-0.353 -0.014,-0.521l-0,-26.524c-0,-0.184 0.006,-0.353 0.014,-0.537c0.295,-5.381 5.065,-9.69 10.853,-9.69l236.443,0c3.68,13.446 12.097,31.906 31.446,45.812c0.552,0.383 1.103,0.766 1.655,1.15Z" style="fill:#ffa412;fill-rule:nonzero;"/><rect x="486.542" y="753.943" width="5.719" height="46.977" style="fill:#ffa412;fill-rule:nonzero;"/><rect x="467.178" y="753.943" width="5.719" height="46.977" style="fill:#ffa412;fill-rule:nonzero;"/><rect x="443.966" y="753.943" width="5.719" height="46.977" style="fill:#ffa412;fill-rule:nonzero;"/><rect x="408.396" y="753.943" width="5.719" height="46.977" style="fill:#ffa412;fill-rule:nonzero;"/><rect x="370.771" y="753.943" width="5.719" height="46.977" style="fill:#ffa412;fill-rule:nonzero;"/><rect x="313.093" y="753.943" width="5.703" height="46.977" style="fill:#ffa412;fill-rule:nonzero;"/><rect x="259.079" y="753.943" width="5.719" height="46.977" style="fill:#ffa412;fill-rule:nonzero;"/><rect x="210.86" y="753.943" width="5.719" height="46.977" style="fill:#ffa412;fill-rule:nonzero;"/><rect x="504.971" y="753.943" width="5.703" height="46.977" style="fill:#ffa412;fill-rule:nonzero;"/><rect x="517.129" y="753.943" width="5.719" height="46.977" style="fill:#ffa412;fill-rule:nonzero;"/><rect x="528.889" y="753.943" width="5.719" height="46.977" style="fill:#ffa412;fill-rule:nonzero;"/><path d="M543.454,754.112l-0,46.639c-0.705,0.108 -1.41,0.154 -2.147,0.154l-3.572,-0l0,-46.962l3.572,0c0.737,0 1.442,0.062 2.147,0.169Z" style="fill:#ffa412;fill-rule:nonzero;"/><path d="M551.396,758.451l-0,37.946c-1.395,1.717 -3.389,3.066 -5.719,3.818l0,-45.582c2.33,0.751 4.324,2.101 5.719,3.818Z" style="fill:#ffa412;fill-rule:nonzero;"/><path d="M594.601,717.193l-0,26.524c-0,2.116 -0.767,4.078 -2.101,5.703c-1.379,1.718 -3.372,3.067 -5.703,3.833c-0.72,0.23 -1.456,0.414 -2.223,0.522c-0.705,0.107 -1.426,0.168 -2.146,0.168l-503.142,0c-6.487,0 -11.83,-4.323 -12.16,-9.705c-0.008,-0.168 -0.014,-0.352 -0.014,-0.521l0,-26.524c0,-0.169 0.006,-0.353 0.014,-0.521c0.302,-4.983 4.898,-9.046 10.72,-9.629c0.471,-0.046 0.955,-0.077 1.44,-0.077l503.142,0c0.72,0 1.441,0.062 2.146,0.169c0.767,0.107 1.503,0.291 2.223,0.521c2.331,0.767 4.324,2.116 5.703,3.833c1.334,1.626 2.101,3.588 2.101,5.704Z" style="fill:#ffb93e;fill-rule:nonzero;"/><path d="M347.528,753.943l-269.549,0c-5.786,0 -10.557,-4.323 -10.853,-9.705c-0.008,-0.168 -0.014,-0.352 -0.014,-0.521l0,-26.524c0,-0.169 0.006,-0.353 0.014,-0.521c0.268,-4.983 4.374,-9.046 9.568,-9.629c0.418,-0.046 0.848,-0.077 1.285,-0.077l236.448,0l0.015,0.077c3.787,13.814 12.603,32.902 33.086,46.9Z" style="fill:#ffa412;fill-rule:nonzero;"/><rect x="527.662" y="706.966" width="5.719" height="46.977" style="fill:#ffa412;fill-rule:nonzero;"/><rect x="508.298" y="706.966" width="5.719" height="46.977" style="fill:#ffa412;fill-rule:nonzero;"/><rect x="485.086" y="706.966" width="5.719" height="46.977" style="fill:#ffa412;fill-rule:nonzero;"/><rect x="449.5" y="706.966" width="5.719" height="46.977" style="fill:#ffa412;fill-rule:nonzero;"/><rect x="411.876" y="706.966" width="5.719" height="46.977" style="fill:#ffa412;fill-rule:nonzero;"/><rect x="354.198" y="706.966" width="5.719" height="46.977" style="fill:#ffa412;fill-rule:nonzero;"/><rect x="300.199" y="706.966" width="5.719" height="46.977" style="fill:#ffa412;fill-rule:nonzero;"/><rect x="251.98" y="706.966" width="5.717" height="46.977" style="fill:#ffa412;fill-rule:nonzero;"/><rect x="546.076" y="706.966" width="5.719" height="46.977" style="fill:#ffa412;fill-rule:nonzero;"/><rect x="558.249" y="706.966" width="5.719" height="46.977" style="fill:#ffa412;fill-rule:nonzero;"/><rect x="570.009" y="706.966" width="5.719" height="46.977" style="fill:#ffa412;fill-rule:nonzero;"/><path d="M584.574,707.135l0,46.64c-0.705,0.107 -1.411,0.168 -2.146,0.168l-3.573,0l0,-46.977l3.573,0c0.735,0 1.441,0.062 2.146,0.169Z" style="fill:#ffa412;fill-rule:nonzero;"/><path d="M592.516,711.489l-0,37.931c-1.395,1.718 -3.388,3.067 -5.719,3.833l0,-45.597c2.331,0.752 4.324,2.116 5.719,3.833Z" style="fill:#ffa412;fill-rule:nonzero;"/><path d="M528.536,670.293l0,26.524c0,2.116 -0.767,4.078 -2.085,5.703c-1.38,1.733 -3.373,3.082 -5.703,3.833c-0.721,0.23 -1.472,0.414 -2.239,0.521c-0.23,0.046 -0.46,0.077 -0.705,0.092c-0.184,0.031 -0.368,0.031 -0.567,0.046l-0.277,0.016c-0.199,0.015 -0.398,0.015 -0.597,0.015l-503.132,0c-6.488,0 -11.831,-4.323 -12.159,-9.69c-0.008,-0.184 -0.014,-0.352 -0.014,-0.536l-0,-26.524c-0,-0.169 0.006,-0.353 0.014,-0.522c0.328,-5.381 5.671,-9.705 12.159,-9.705l503.132,0c0.214,0 0.429,0.016 0.643,0.016c0.522,0.03 1.012,0.076 1.503,0.153c0.767,0.107 1.518,0.291 2.239,0.521c0.352,0.123 0.72,0.261 1.042,0.399c0.23,0.092 0.429,0.184 0.629,0.291l0.076,0.031c0.2,0.092 0.399,0.199 0.614,0.322l0.092,0.046c0.184,0.107 0.368,0.23 0.552,0.337c0.429,0.276 0.828,0.567 1.211,0.889l0.337,0.307l0.061,0.046l0.215,0.199l0.031,0.031l0.368,0.383c0.168,0.184 0.322,0.353 0.475,0.552c1.318,1.625 2.085,3.588 2.085,5.704Z" style="fill:#ffb93e;fill-rule:nonzero;"/><path d="M281.479,707.043l-269.554,0c-5.788,0 -10.559,-4.323 -10.853,-9.69c-0.008,-0.184 -0.014,-0.352 -0.014,-0.536l-0,-26.524c-0,-0.169 0.006,-0.353 0.014,-0.522c0.294,-5.381 5.065,-9.705 10.853,-9.705l236.452,0c0.091,0.368 0.184,0.721 0.305,1.089c3.927,13.707 12.758,32.166 32.69,45.811l0.107,0.077Z" style="fill:#ffa412;fill-rule:nonzero;"/><rect x="461.597" y="660.066" width="5.719" height="46.977" style="fill:#ffa412;fill-rule:nonzero;"/><rect x="442.248" y="660.066" width="5.719" height="46.977" style="fill:#ffa412;fill-rule:nonzero;"/><rect x="419.036" y="660.066" width="5.719" height="46.977" style="fill:#ffa412;fill-rule:nonzero;"/><rect x="383.451" y="660.066" width="5.719" height="46.977" style="fill:#ffa412;fill-rule:nonzero;"/><rect x="345.826" y="660.066" width="5.719" height="46.977" style="fill:#ffa412;fill-rule:nonzero;"/><rect x="288.148" y="660.066" width="5.719" height="46.977" style="fill:#ffa412;fill-rule:nonzero;"/><rect x="234.134" y="660.066" width="5.719" height="46.977" style="fill:#ffa412;fill-rule:nonzero;"/><rect x="185.917" y="660.066" width="5.719" height="46.977" style="fill:#ffa412;fill-rule:nonzero;"/><rect x="480.026" y="660.066" width="5.719" height="46.977" style="fill:#ffa412;fill-rule:nonzero;"/><rect x="492.2" y="660.066" width="5.719" height="46.977" style="fill:#ffa412;fill-rule:nonzero;"/><rect x="503.944" y="660.066" width="5.719" height="46.977" style="fill:#ffa412;fill-rule:nonzero;"/><path d="M518.509,660.235l-0,46.639c-0.69,0.108 -1.41,0.169 -2.146,0.169l-3.573,0l0,-46.977l3.573,0c0.736,0 1.456,0.062 2.146,0.169Z" style="fill:#ffa412;fill-rule:nonzero;"/><path d="M526.451,664.589l-0,37.931c-1.38,1.733 -3.373,3.082 -5.703,3.833l-0,-45.597c2.33,0.767 4.323,2.116 5.703,3.833Z" style="fill:#ffa412;fill-rule:nonzero;"/><path d="M565.532,624.405l-0,26.524c-0,2.115 -0.767,4.078 -2.085,5.718c-1.396,1.718 -3.373,3.067 -5.719,3.818c-0.705,0.245 -1.457,0.414 -2.223,0.521c-0.705,0.108 -1.411,0.169 -2.147,0.169l-503.137,-0c-1.95,-0 -3.801,-0.383 -5.437,-1.089c-3.667,-1.533 -6.292,-4.599 -6.689,-8.187c-0.014,-0.138 -0.028,-0.276 -0.034,-0.414c-0.006,-0.184 -0.012,-0.352 -0.012,-0.536l0,-26.524c0,-0.169 0.006,-0.353 0.012,-0.522c0.304,-4.983 4.899,-9.046 10.72,-9.628c0.471,-0.046 0.949,-0.077 1.44,-0.077l503.137,0c0.736,0 1.442,0.062 2.147,0.169c0.766,0.123 1.518,0.291 2.223,0.521c2.346,0.767 4.323,2.116 5.719,3.833c1.318,1.641 2.085,3.588 2.085,5.704Z" style="fill:#ffb93e;fill-rule:nonzero;"/><path d="M318.459,661.155l-269.543,-0c-1.743,-0 -3.391,-0.383 -4.851,-1.089c-3.278,-1.533 -5.613,-4.599 -5.97,-8.187c-0.014,-0.138 -0.028,-0.276 -0.034,-0.414c-0.006,-0.184 -0.012,-0.352 -0.012,-0.536l0,-26.524c0,-0.169 0.006,-0.353 0.012,-0.522c0.27,-4.967 4.375,-9.046 9.57,-9.628c0.418,-0.046 0.847,-0.077 1.285,-0.077l236.442,0l0.03,0.077c3.68,13.477 12.143,31.936 31.523,45.811c0.506,0.368 1.027,0.736 1.548,1.089Z" style="fill:#ffa412;fill-rule:nonzero;"/><rect x="498.593" y="614.178" width="5.719" height="46.977" style="fill:#ffa412;fill-rule:nonzero;"/><rect x="479.229" y="614.178" width="5.719" height="46.977" style="fill:#ffa412;fill-rule:nonzero;"/><rect x="456.016" y="614.178" width="5.719" height="46.977" style="fill:#ffa412;fill-rule:nonzero;"/><rect x="420.447" y="614.178" width="5.719" height="46.977" style="fill:#ffa412;fill-rule:nonzero;"/><rect x="382.822" y="614.178" width="5.719" height="46.977" style="fill:#ffa412;fill-rule:nonzero;"/><rect x="325.144" y="614.178" width="5.719" height="46.977" style="fill:#ffa412;fill-rule:nonzero;"/><rect x="271.13" y="614.178" width="5.717" height="46.977" style="fill:#ffa412;fill-rule:nonzero;"/><rect x="222.911" y="614.178" width="5.719" height="46.977" style="fill:#ffa412;fill-rule:nonzero;"/><rect x="517.022" y="614.178" width="5.719" height="46.977" style="fill:#ffa412;fill-rule:nonzero;"/><rect x="529.195" y="614.178" width="5.703" height="46.977" style="fill:#ffa412;fill-rule:nonzero;"/><rect x="540.939" y="614.178" width="5.719" height="46.977" style="fill:#ffa412;fill-rule:nonzero;"/><path d="M555.505,614.347l-0,46.639c-0.705,0.108 -1.411,0.169 -2.147,0.169l-3.572,-0l-0,-46.977l3.572,0c0.736,0 1.442,0.062 2.147,0.169Z" style="fill:#ffa412;fill-rule:nonzero;"/><path d="M563.447,618.701l-0,37.946c-1.396,1.718 -3.373,3.067 -5.719,3.818l-0,-45.597c2.346,0.767 4.323,2.116 5.719,3.833Z" style="fill:#ffa412;fill-rule:nonzero;"/><path d="M581.278,577.504l-0,26.54c-0,2.1 -0.767,4.063 -2.085,5.703c-1.38,1.717 -3.374,3.067 -5.719,3.818c-0.706,0.245 -1.457,0.414 -2.223,0.537c-0.23,0.03 -0.476,0.061 -0.706,0.076l-0.398,0.046l-0.399,0.016c-0.215,0.015 -0.429,0.015 -0.644,0.015l-503.136,-0c-6.487,-0 -11.83,-4.308 -12.161,-9.69c-0.006,-0.184 -0.012,-0.352 -0.012,-0.521l-0,-26.54c-0,-0.168 0.006,-0.337 0.012,-0.521c0.331,-5.381 5.674,-9.69 12.161,-9.69l503.136,0c0.736,0 1.441,0.046 2.147,0.154c0.766,0.122 1.517,0.291 2.223,0.536c2.345,0.752 4.339,2.101 5.719,3.818c1.318,1.64 2.085,3.603 2.085,5.703Z" style="fill:#ffb93e;fill-rule:nonzero;"/><path d="M334.205,614.255l-269.541,-0c-5.788,-0 -10.559,-4.308 -10.857,-9.69c-0.006,-0.184 -0.012,-0.352 -0.012,-0.521l-0,-26.54c-0,-0.168 0.006,-0.337 0.012,-0.521c0.298,-5.381 5.069,-9.69 10.857,-9.69l236.44,0c3.771,13.799 12.556,32.872 32.994,46.885l0.107,0.077Z" style="fill:#ffa412;fill-rule:nonzero;"/><rect x="514.339" y="567.293" width="5.719" height="46.961" style="fill:#ffa412;fill-rule:nonzero;"/><rect x="494.975" y="567.293" width="5.719" height="46.961" style="fill:#ffa412;fill-rule:nonzero;"/><rect x="471.762" y="567.293" width="5.719" height="46.961" style="fill:#ffa412;fill-rule:nonzero;"/><rect x="436.192" y="567.293" width="5.719" height="46.961" style="fill:#ffa412;fill-rule:nonzero;"/><rect x="398.568" y="567.293" width="5.719" height="46.961" style="fill:#ffa412;fill-rule:nonzero;"/><rect x="340.89" y="567.293" width="5.719" height="46.961" style="fill:#ffa412;fill-rule:nonzero;"/><rect x="286.876" y="567.293" width="5.719" height="46.961" style="fill:#ffa412;fill-rule:nonzero;"/><rect x="238.657" y="567.293" width="5.719" height="46.961" style="fill:#ffa412;fill-rule:nonzero;"/><rect x="532.768" y="567.293" width="5.719" height="46.961" style="fill:#ffa412;fill-rule:nonzero;"/><rect x="544.941" y="567.293" width="5.719" height="46.961" style="fill:#ffa412;fill-rule:nonzero;"/><rect x="556.685" y="567.293" width="5.719" height="46.961" style="fill:#ffa412;fill-rule:nonzero;"/><path d="M571.251,567.447l-0,46.655c-0.706,0.107 -1.411,0.153 -2.147,0.153l-3.572,-0l-0,-46.962l3.572,0c0.736,0 1.441,0.046 2.147,0.154Z" style="fill:#ffa412;fill-rule:nonzero;"/><path d="M579.193,571.801l-0,37.946c-1.38,1.717 -3.374,3.067 -5.719,3.818l-0,-45.582c2.345,0.752 4.339,2.101 5.719,3.818Z" style="fill:#ffa412;fill-rule:nonzero;"/><path d="M47.897,283.639c-0,-156.645 126.99,-283.639 283.64,-283.639c156.661,-0 283.655,126.994 283.655,283.639c-0,156.661 -126.994,283.654 -283.655,283.654c-156.65,0 -283.64,-126.993 -283.64,-283.654Z" style="fill:#e2810e;fill-rule:nonzero;"/><path d="M23.151,283.639c0,-156.645 126.992,-283.639 283.641,-283.639c156.66,-0 283.654,126.994 283.654,283.639c0,156.661 -126.994,283.654 -283.654,283.654c-156.649,0 -283.641,-126.993 -283.641,-283.654Z" style="fill:#ffb93e;fill-rule:nonzero;"/><path d="M306.792,43.987c-133.994,0 -243.01,109.009 -243.01,243.01c0,134 109.016,243.009 243.01,243.009c134,0 243.025,-109.009 243.025,-243.009c-0,-134.001 -109.025,-243.01 -243.025,-243.01Zm-0,501.443c-69.024,0 -133.924,-26.892 -182.734,-75.693c-48.812,-48.817 -75.694,-113.716 -75.694,-182.74c0,-69.024 26.882,-133.924 75.694,-182.74c48.81,-48.802 113.71,-75.694 182.734,-75.694c69.039,0 133.923,26.892 182.74,75.694c48.816,48.816 75.693,113.716 75.693,182.74c0,69.024 -26.877,133.923 -75.693,182.74c-48.817,48.801 -113.701,75.693 -182.74,75.693Z" style="fill:#ffa412;fill-rule:nonzero;"/><path d="M342.377,362c0.659,-5.565 0.444,-10.579 -0.613,-15.01c-1.074,-4.431 -3.189,-8.586 -6.348,-12.449c-3.158,-3.879 -7.39,-7.605 -12.679,-11.208c-5.305,-3.587 -11.852,-7.252 -19.671,-11.008c-13.415,-6.562 -25.512,-13.216 -36.306,-19.947c-10.795,-6.731 -19.839,-14.105 -27.152,-22.093c-7.298,-8.003 -12.649,-16.972 -16.038,-26.938c-3.373,-9.95 -4.292,-21.434 -2.759,-34.435c1.349,-11.285 4.569,-21.327 9.659,-30.143c5.105,-8.816 11.79,-16.221 20.039,-22.246c8.233,-6.026 17.8,-10.579 28.67,-13.661c10.87,-3.082 22.798,-4.461 35.8,-4.124l5.044,-42.592l34.297,4.063l-5.136,43.19c12.097,3.051 22.86,7.635 32.274,13.722c9.413,6.102 17.156,13.476 23.227,22.139c6.072,8.662 10.365,18.551 12.895,29.682c2.514,11.131 2.989,23.335 1.41,36.597l-61.925,-7.343c1.886,-15.915 -0.23,-28.257 -6.363,-36.996c-6.148,-8.724 -15.132,-13.799 -26.999,-15.209c-6.424,-0.752 -12.066,-0.522 -16.927,0.72c-4.845,1.242 -8.953,3.251 -12.326,6.01c-3.373,2.76 -6.026,6.179 -7.958,10.257c-1.932,4.079 -3.189,8.571 -3.771,13.477c-0.583,4.906 -0.399,9.444 0.552,13.584c0.966,4.155 2.989,8.126 6.086,11.928c3.097,3.802 7.36,7.543 12.802,11.208c5.428,3.679 12.235,7.604 20.438,11.821c13.231,6.807 25.221,13.614 35.922,20.406c10.717,6.792 19.717,14.213 27.015,22.277c7.298,8.065 12.649,17.08 16.022,27.03c3.388,9.966 4.308,21.373 2.79,34.252c-1.395,11.667 -4.661,21.909 -9.843,30.709c-5.167,8.816 -11.882,16.16 -20.1,22.048c-8.233,5.887 -17.846,10.257 -28.839,13.124c-10.978,2.867 -22.967,4.139 -35.969,3.817l-4.706,39.602l-34.068,-4.047l4.675,-39.403c-11.712,-2.606 -22.874,-6.547 -33.468,-11.852c-10.594,-5.289 -19.732,-12.188 -27.429,-20.713c-7.681,-8.509 -13.409,-18.781 -17.197,-30.801c-3.789,-12.021 -4.739,-25.988 -2.851,-41.918l61.935,7.344c-1.121,9.429 -0.738,17.448 1.165,24.056c1.886,6.623 4.828,12.081 8.801,16.39c3.986,4.308 8.708,7.558 14.166,9.751c5.458,2.207 11.116,3.649 16.973,4.339c6.715,0.797 12.71,0.628 17.984,-0.491c5.274,-1.119 9.812,-3.005 13.599,-5.657c3.802,-2.638 6.792,-5.949 9,-9.92c2.223,-3.986 3.618,-8.417 4.201,-13.339Z" style="fill:#ffa412;fill-rule:nonzero;"/></g></svg>