<?xml version="1.0" encoding="UTF-8" standalone="no"?><!DOCTYPE svg PUBLIC "-//W3C//DTD SVG 1.1//EN" "http://www.w3.org/Graphics/SVG/1.1/DTD/svg11.dtd"><svg width="100%" height="100%" viewBox="0 0 1092 1024" version="1.1" xmlns="http://www.w3.org/2000/svg" xmlns:xlink="http://www.w3.org/1999/xlink" xml:space="preserve" xmlns:serif="http://www.serif.com/" style="fill-rule:evenodd;clip-rule:evenodd;stroke-linejoin:round;stroke-miterlimit:2;"><g><path d="M1004.61,830.885c0.322,-0.69 0.724,-1.319 1.197,-1.89l0,-0.006c0.352,-0.423 0.734,-0.814 1.156,-1.172l1.75,-1.772l0.463,0.34c8.939,-4.378 27.41,0.261 46.083,12.457c22.574,14.741 37.074,35.04 32.891,45.819l0.633,0.473l-2.875,2.876l-0.071,0.07l-0.02,0.01c-0.643,0.584 -1.367,1.086 -2.172,1.509l-0.02,0.01c-8.828,4.625 -27.491,0.02 -46.375,-12.308c-22.997,-15.015 -37.607,-35.796 -32.64,-46.416Z" style="fill:#ffa412;fill-rule:nonzero;"/><path d="M1057.94,836.157c-22.997,-15.015 -45.671,-18.578 -50.649,-7.958c-4.967,10.62 9.643,31.402 32.64,46.417c22.996,15.013 45.681,18.582 50.648,7.954c4.978,-10.618 -9.633,-31.398 -32.639,-46.413Z" style="fill:#ffb93e;fill-rule:nonzero;"/><path d="M1018.83,828.212c-2.373,0.685 -4.002,1.963 -4.847,3.8c-1.78,3.887 0.131,10.161 5.239,17.212c5.319,7.331 13.454,14.779 22.916,20.978c11.785,7.712 24.042,12.267 32.378,12.267c1.679,0 3.208,-0.181 4.535,-0.573c2.383,-0.683 4.012,-1.96 4.857,-3.791c1.779,-3.891 -0.131,-10.165 -5.249,-17.215c-5.309,-7.331 -13.454,-14.781 -22.906,-20.975c-11.795,-7.72 -24.042,-12.271 -32.378,-12.271c-1.69,-0 -3.218,0.185 -4.545,0.568Zm22.383,43.398c-9.623,-6.305 -17.919,-13.903 -23.359,-21.396c-5.56,-7.669 -7.481,-14.383 -5.409,-18.905c1.065,-2.305 3.046,-3.891 5.922,-4.718c8.487,-2.444 23.52,2.231 38.301,11.913c9.633,6.304 17.928,13.903 23.358,21.395c5.561,7.669 7.481,14.385 5.41,18.9c-1.056,2.313 -3.047,3.902 -5.913,4.726c-1.498,0.433 -3.197,0.634 -5.057,0.634c-8.728,-0 -21.076,-4.575 -33.253,-12.549Z" style="fill:#ffa412;fill-rule:nonzero;"/><path d="M1011.75,417.734c0.14,-0.306 0.321,-0.586 0.523,-0.84l-0,-0.003c0.16,-0.188 0.331,-0.361 0.522,-0.521l0.775,-0.787l0.201,0.151c3.972,-1.946 12.187,0.117 20.482,5.537c10.046,6.552 16.481,15.573 14.621,20.368l0.292,0.209l-1.117,1.113l-0.171,0.164l-0.03,0.032l-0.01,0.006c-0.281,0.258 -0.603,0.482 -0.965,0.671l-0.01,0.005l-0,-0.001c-3.922,2.056 -12.217,0.01 -20.614,-5.472c-10.216,-6.673 -16.711,-15.911 -14.499,-20.632Z" style="fill:#ffa412;fill-rule:nonzero;"/><path d="M1035.45,420.078c-10.216,-6.675 -20.302,-8.259 -22.514,-3.538c-2.212,4.721 4.284,13.959 14.51,20.633c10.226,6.675 20.302,8.257 22.514,3.537c2.212,-4.721 -4.284,-13.959 -14.51,-20.632Z" style="fill:#ffb93e;fill-rule:nonzero;"/><path d="M1018.06,416.546c-1.055,0.304 -1.779,0.872 -2.151,1.69c-0.795,1.727 0.05,4.515 2.322,7.65c2.363,3.259 5.983,6.57 10.186,9.323c5.239,3.432 10.689,5.456 14.4,5.455c0.744,0 1.427,-0.082 2.011,-0.252c1.056,-0.305 1.779,-0.873 2.162,-1.69c0.784,-1.727 -0.061,-4.517 -2.333,-7.651c-2.363,-3.258 -5.983,-6.569 -10.186,-9.322c-5.239,-3.433 -10.689,-5.456 -14.389,-5.456c-0.755,-0 -1.428,0.083 -2.022,0.253Zm9.945,19.29c-4.273,-2.802 -7.964,-6.179 -10.377,-9.51c-2.474,-3.409 -3.328,-6.393 -2.403,-8.403c0.472,-1.025 1.357,-1.73 2.624,-2.098c3.781,-1.086 10.458,0.993 17.034,5.296c4.273,2.802 7.964,6.18 10.377,9.511c2.474,3.409 3.328,6.393 2.403,8.402c-0.462,1.025 -1.347,1.731 -2.624,2.098c-0.664,0.192 -1.418,0.285 -2.253,0.285c-3.871,-0.001 -9.361,-2.036 -14.781,-5.581Z" style="fill:#ffa412;fill-rule:nonzero;"/><path d="M247.385,740.015c-0.272,-0.58 -0.604,-1.108 -0.996,-1.588l0,-0.005c-0.291,-0.356 -0.623,-0.685 -0.975,-0.985l-1.468,-1.49l-0.392,0.286c-7.512,-3.679 -23.027,0.22 -38.723,10.47c-18.975,12.386 -31.152,29.44 -27.642,38.505l-0.533,0.396l2.101,2.102c0.101,0.107 0.212,0.21 0.312,0.311l0.06,0.06l0.02,0.012c0.533,0.49 1.147,0.913 1.831,1.27l0.01,0.008l-0,-0.001c7.42,3.887 23.107,0.017 38.974,-10.344c19.326,-12.618 31.604,-30.082 27.421,-39.007Z" style="fill:#ffa412;fill-rule:nonzero;"/><path d="M202.568,744.445c19.327,-12.618 38.381,-15.612 42.565,-6.687c4.182,8.924 -8.105,26.389 -27.431,39.007c-19.327,12.618 -38.382,15.612 -42.565,6.687c-4.172,-8.925 8.105,-26.388 27.431,-39.007Z" style="fill:#ffb93e;fill-rule:nonzero;"/><path d="M231.628,737.291c-7.008,-0 -17.305,3.825 -27.21,10.313c-7.953,5.205 -14.791,11.466 -19.255,17.625c-4.294,5.926 -5.903,11.199 -4.405,14.465c0.704,1.544 2.082,2.618 4.073,3.194c1.116,0.321 2.403,0.477 3.821,0.477c7.008,0.001 17.295,-3.825 27.209,-10.312c7.944,-5.206 14.782,-11.467 19.256,-17.627c4.294,-5.926 5.903,-11.197 4.405,-14.464c-0.714,-1.544 -2.082,-2.618 -4.083,-3.194c-1.116,-0.321 -2.393,-0.477 -3.811,-0.477Zm-42.936,47.497c-1.569,0 -2.997,-0.176 -4.253,-0.539c-2.414,-0.694 -4.083,-2.028 -4.968,-3.965c-1.749,-3.799 -0.13,-9.442 4.545,-15.886c4.565,-6.298 11.534,-12.683 19.628,-17.981c12.419,-8.136 25.058,-12.065 32.187,-10.011c2.414,0.695 4.083,2.028 4.978,3.966c1.739,3.799 0.13,9.441 -4.545,15.886c-4.565,6.297 -11.544,12.683 -19.628,17.98c-10.237,6.702 -20.614,10.55 -27.944,10.55Z" style="fill:#ffa412;fill-rule:nonzero;"/><path d="M42.545,497.756c-0.158,-0.338 -0.354,-0.645 -0.582,-0.925l-0.003,-0.002c-0.17,-0.208 -0.359,-0.399 -0.566,-0.574l-0.855,-0.867l-0.225,0.166c-4.375,-2.143 -13.412,0.128 -22.553,6.095c-11.048,7.214 -18.141,17.145 -16.095,22.424l-0.312,0.23l1.229,1.224l0.181,0.181l0.035,0.035l0.01,0.007c0.312,0.285 0.667,0.532 1.063,0.74l0.006,0.004l0.001,-0.001c4.32,2.264 13.453,0.01 22.695,-6.023c11.254,-7.347 18.404,-17.517 15.971,-22.714Z" style="fill:#ffa412;fill-rule:nonzero;"/><path d="M16.446,500.335c11.254,-7.347 22.351,-9.091 24.785,-3.893c2.433,5.196 -4.717,15.366 -15.972,22.714c-11.254,7.347 -22.35,9.091 -24.783,3.894c-2.435,-5.197 4.716,-15.367 15.97,-22.715Z" style="fill:#ffb93e;fill-rule:nonzero;"/><path d="M33.367,496.169c-4.082,0 -10.076,2.229 -15.845,6.006c-4.628,3.032 -8.611,6.677 -11.212,10.264c-2.503,3.451 -3.438,6.52 -2.565,8.422c0.412,0.899 1.21,1.526 2.372,1.86c0.651,0.188 1.398,0.278 2.222,0.278c4.081,0.001 10.075,-2.227 15.845,-6.005c4.628,-3.031 8.61,-6.677 11.213,-10.263c2.501,-3.451 3.437,-6.521 2.564,-8.423c-0.412,-0.9 -1.211,-1.525 -2.372,-1.86c-0.651,-0.187 -1.398,-0.279 -2.222,-0.279Zm-25.001,27.658c-0.913,0.001 -1.746,-0.102 -2.478,-0.312c-1.402,-0.405 -2.377,-1.182 -2.894,-2.31c-1.014,-2.212 -0.075,-5.498 2.647,-9.251c2.66,-3.666 6.718,-7.384 11.429,-10.469c7.236,-4.738 14.594,-7.026 18.747,-5.83c1.404,0.404 2.377,1.181 2.894,2.308c1.016,2.213 0.075,5.498 -2.647,9.252c-2.658,3.666 -6.718,7.385 -11.429,10.47c-5.958,3.902 -12.003,6.142 -16.269,6.142Z" style="fill:#ffa412;fill-rule:nonzero;"/><path d="M227.445,568.03c0.201,-0.433 0.453,-0.825 0.744,-1.182l0,-0.004c0.222,-0.264 0.463,-0.509 0.724,-0.733l1.096,-1.107l0.282,0.212c5.591,-2.736 17.134,0.164 28.808,7.787c14.118,9.213 23.178,21.897 20.563,28.64l0.393,0.293l-1.569,1.564l-0.231,0.231l-0.041,0.044l-0.02,0.01c-0.392,0.364 -0.844,0.679 -1.357,0.945l-0,0.006l-0.01,-0.001c-5.511,2.891 -17.175,0.013 -28.98,-7.694c-14.379,-9.384 -23.509,-22.374 -20.402,-29.011Z" style="fill:#ffa412;fill-rule:nonzero;"/><path d="M260.779,571.324c-14.37,-9.385 -28.548,-11.611 -31.655,-4.974c-3.107,6.639 6.024,19.627 20.403,29.013c14.369,9.385 28.547,11.612 31.654,4.973c3.107,-6.638 -6.023,-19.628 -20.402,-29.012Z" style="fill:#ffb93e;fill-rule:nonzero;"/><path d="M236.334,566.358c-1.488,0.428 -2.504,1.227 -3.037,2.376c-1.116,2.429 0.081,6.35 3.278,10.758c3.329,4.582 8.407,9.238 14.319,13.109c7.371,4.825 15.033,7.671 20.242,7.671c1.055,0 2.011,-0.117 2.835,-0.356c1.488,-0.427 2.504,-1.227 3.037,-2.375c1.106,-2.429 -0.081,-6.351 -3.278,-10.758c-3.329,-4.582 -8.406,-9.238 -14.329,-13.109c-7.36,-4.826 -15.023,-7.671 -20.231,-7.671c-1.056,-0 -2.011,0.116 -2.836,0.355Zm13.987,27.126c-6.013,-3.941 -11.202,-8.69 -14.6,-13.374c-3.479,-4.793 -4.676,-8.989 -3.379,-11.816c0.664,-1.44 1.901,-2.432 3.7,-2.949c5.3,-1.527 14.701,1.395 23.942,7.446c6.013,3.941 11.202,8.69 14.6,13.373c3.47,4.794 4.676,8.99 3.379,11.816c-0.664,1.44 -1.9,2.433 -3.7,2.95c-0.935,0.269 -1.991,0.4 -3.158,0.4c-5.45,-0 -13.172,-2.862 -20.784,-7.846Z" style="fill:#ffa412;fill-rule:nonzero;"/><path d="M647.466,942.741c-0,-0 -13.826,19.467 -26.506,19.739c-12.67,0.271 -31.956,-9.03 -31.956,-9.03c0,-0 -11.634,-25.933 -3.741,-36.079c0,0 7.914,-3.478 16.19,2.655c1.417,1.066 2.865,2.393 4.283,4.113c2.011,2.413 4.264,3.78 6.657,4.504c9.04,2.756 19.779,-3.72 23.791,2.524c2.343,3.64 4.897,6.365 6.998,8.286c2.474,2.202 4.284,3.288 4.284,3.288Z" style="fill:#ffeddc;fill-rule:nonzero;"/><path d="M579.954,966.089c0,0 35.254,7.844 46.134,3.238c0,0 1.639,-14.741 -13.202,-12.68c-10.166,1.418 -16.783,-3.469 -20.684,-5.449c-5.501,-2.806 -13.716,8.728 -12.248,14.891Z" style="fill:#db6a1d;fill-rule:nonzero;"/><path d="M610.633,943.867c-2.252,1.69 -9.18,-23.841 -9.18,-23.841c1.417,1.066 2.865,2.393 4.283,4.113c2.011,2.413 4.264,3.78 6.657,4.504c0.02,0.745 0.432,13.575 -1.76,15.224Z" style="fill:#e5c1a1;fill-rule:nonzero;"/><path d="M643.182,939.453c-0.503,0.292 -16.802,10.055 -19.014,10.055c-2.263,0 12.016,-18.341 12.016,-18.341c2.343,3.64 4.897,6.365 6.998,8.286Z" style="fill:#e5c1a1;fill-rule:nonzero;"/><path d="M328.34,950.634c0,0 -2.745,-13.534 28.396,-55.173c6.717,-8.979 27.21,-42.807 27.21,-42.807c8.105,-1.967 33.323,11.438 39.98,15.527c1.337,0.824 2.112,1.317 2.112,1.317c-0,0 10.789,46.799 -12.147,41.488c-0.714,-0.171 -1.428,-0.301 -2.142,-0.422c-22.182,-3.448 -43.59,18.552 -53.313,32.529c-6.335,9.08 -25.883,7.913 -30.096,7.541Z" style="fill:#233862;fill-rule:nonzero;"/><path d="M492.725,859.697c-0,0 -2.746,-13.529 28.406,-55.17c6.717,-8.982 27.209,-42.808 27.209,-42.808c8.095,-1.968 33.324,11.438 39.97,15.523c1.338,0.825 2.112,1.322 2.112,1.322c-0,-0 10.789,46.792 -12.137,41.486c-0.724,-0.171 -1.438,-0.304 -2.152,-0.417c-22.172,-3.456 -43.579,18.551 -53.313,32.523c-6.335,9.082 -25.882,7.91 -30.095,7.541Z" style="fill:#233862;fill-rule:nonzero;"/><path d="M843.595,628.071c-6.375,-27.374 -77.215,-112.722 -113.505,-92.953c-36.279,19.767 -17.456,127.124 20.362,253.731c0.584,1.932 1.167,3.852 1.77,5.759c-76.239,-12.517 -166.979,-16.317 -166.979,-16.317l-9.552,44.087c68.698,18.983 202.162,84.958 258.13,113.365c21.398,9.703 46.536,9.703 51.654,-9.121c17.134,-63.037 -41.88,-298.551 -41.88,-298.551Z" style="fill:#ed7d2b;fill-rule:nonzero;"/><path d="M708.32,1022.47c0,-0 -162.162,-73.173 -261.036,-102.746c-12.257,-3.65 -23.509,-6.626 -33.383,-8.738l10.397,-42.403c0,0 9.693,-0.171 25.41,-0.151c61.569,0.171 215.727,3.62 243.278,33.836c34.56,37.949 15.334,120.202 15.334,120.202Z" style="fill:#ffb27d;fill-rule:nonzero;"/><path d="M830.855,19.445c5.329,12.261 9.582,28.342 5.972,36.823c-4.082,9.613 -2.956,16.567 -2.956,16.567l-8.718,2.131l-10.417,2.538c-0,0 -0.553,-0.893 -1.388,-2.416c-0.834,-1.511 -1.94,-3.67 -3.047,-6.179c0,-0 -0.482,-4.604 -4.927,-6.708c-4.434,-2.098 -9.09,-7.45 -9.944,-12.629c-0.855,-5.173 -6.164,-14.834 -4.656,-15.848c3.65,-2.465 9.12,12.562 12.338,13.232c2.916,0.608 3.841,-1.454 3.992,-1.858l0.03,-0.079c5.058,-12.281 -4.284,-43.278 3.117,-44.999c2.765,-0.638 18.341,14.201 20.604,19.425Z" style="fill:#ffb27d;fill-rule:nonzero;"/><path d="M269.708,266.934c9.06,9.825 22.051,20.217 31.262,20.346c10.447,0.148 16.36,3.986 16.36,3.986l5.47,-7.111l6.526,-8.5c-0,0 -0.594,-0.869 -1.649,-2.248c-1.046,-1.375 -8.437,-7.591 -8.568,-12.501c-0.12,-4.903 -3.137,-11.329 -7.521,-14.204c-4.394,-2.868 -11.081,-11.629 -12.619,-10.658c-3.731,2.334 7.803,13.419 7.119,16.633c-0.624,2.908 -2.886,2.924 -3.318,2.899l-0.081,-0.01c-13.283,-0.334 -37.858,-21.407 -42.423,-15.333c-1.7,2.275 5.58,22.516 9.442,26.701Z" style="fill:#ffb27d;fill-rule:nonzero;"/><path d="M662.036,648.507c-40,10.373 -29.965,58.468 -23.992,190.47c0.684,14.937 2.071,29.365 4.042,43.12c-58.622,-11.774 -148.748,-13.544 -192.378,-13.665c-0,0 -7.24,16.119 -6.928,29.001c0.663,27.42 14.67,45.549 14.67,45.549c98.874,29.573 250.87,79.488 250.87,79.488l0.021,-0.121c10.135,2.634 19.678,-2.433 27.26,-16.953c30.236,-57.909 81.97,-443.252 81.97,-443.252c0.463,-28.102 -115.545,75.989 -155.535,86.363Z" style="fill:#f99746;fill-rule:nonzero;"/><path d="M596.737,352.689c-0,0 14.067,-35.653 -13.273,-86.505l38.873,8.634l26.416,5.863c-0,-0 4.364,9.005 10.075,25.744c1.509,4.403 7.089,22.067 8.728,27.528c9.281,0.392 -4.102,14.456 -23.167,17.225c-21.207,3.081 -47.652,1.511 -47.652,1.511Z" style="fill:#ffb27d;fill-rule:nonzero;"/><path d="M648.753,280.681c-0,-0 4.364,9.005 10.075,25.744c-22.685,6.769 -63.157,-15.29 -63.157,-15.29c9.13,-8.347 18.18,-13.518 26.666,-16.317l26.416,5.863Z" style="fill:#ed975d;fill-rule:nonzero;"/><path d="M666.209,267.383c-0,-0 -45.038,49.813 -75.626,21.287c-30.589,-28.526 -57.004,-41.308 -29.543,-74.319c27.461,-33.009 44.817,-28.216 57.346,-21.178c12.519,7.037 58.753,60.517 47.823,74.21Z" style="fill:#ffb27d;fill-rule:nonzero;"/><path d="M588.059,285.586c-0,-0 4.615,-5.117 -2.061,-11.769c-6.677,-6.651 -14.279,-16.245 -6.898,-19.193c7.38,-2.948 11.463,1.59 11.704,-3.143c0.231,-4.733 -9.05,-16.513 8.044,-31.415c17.094,-14.904 29.211,-14.454 34.58,-24.631c5.37,-10.177 -4.112,-23.011 -4.112,-23.011c-0,0 1.196,6.322 -1.227,10.554c0,0 -1.176,-29.753 -27.36,-30.01c-26.194,-0.257 -35.727,21.094 -44.505,28.976c-19.347,17.362 -31.504,29.002 -27.542,47.624c3.962,18.621 36.139,53.518 59.377,56.018Z" style="fill:#2b478b;fill-rule:nonzero;"/><path d="M638.064,257.006l16.712,-15.724c-0,0 6.797,10.425 2.021,14.952c-4.766,4.529 -18.733,0.772 -18.733,0.772Z" style="fill:#fff;fill-rule:nonzero;"/><path d="M862.378,162.793c-7.139,-44.21 -28.648,-92.813 -28.648,-92.813l-23.429,-1.068c0,0 2.605,59.892 2.022,101.776c-0.272,20.121 -9.07,38.314 -11.463,41.535c-7.27,9.73 -114.4,112.835 -117.979,116.121l-0.091,0.086l0.02,0.011c-11.403,1.938 -10.136,20.666 -21.85,23.808c-19.527,5.235 -51.956,-4.304 -69.311,2.126c-0,0 -139.096,0.157 -160.262,-9.98c-21.176,-10.136 -103.71,-70.988 -103.71,-70.988l-15.285,17.806c0,-0 56.652,109.065 101.569,128.687c24.445,10.681 78.14,23.535 122.001,33.032c17.346,3.756 31.242,16.617 36.501,33.565c41.267,133.062 20.493,245.272 20.493,245.272c-0,0 39.547,4.43 88.778,-9.244c64.012,-17.781 110.77,-46.586 110.77,-46.586c18.039,-21.87 7.38,-102.06 7.38,-102.06c0,-0 12.449,13.45 16.622,35.916c3.006,16.187 4.625,25.141 5.621,30.825c0.945,5.346 7.179,7.844 11.543,4.613c9.251,-6.849 22.454,-17.513 26.576,-25.341c14.41,-27.348 -17.637,-138.73 -61.9,-216.449c-7.904,-13.892 -7.622,-30.975 0.834,-44.541c27.23,-43.68 69.09,-112.954 69.603,-126.862c0.282,-7.532 -2.282,-43.835 -6.405,-69.247Z" style="fill:#2b478b;fill-rule:nonzero;"/><path d="M657.903,362.291c0,-0 37.346,52.985 9.965,104.194c-27.391,51.208 -134.962,44.136 -154.872,108.105l12.107,39.828l44.967,-24.359c-0,-0 3.761,-34.586 48.004,-49.608c86.415,-29.337 107.22,-80.011 89.08,-125.353c-15.324,-38.32 -37.516,-56.781 -37.516,-56.781l-11.735,3.974Z" style="fill:#f99746;fill-rule:nonzero;"/><path d="M600.216,333.137l43.308,14.305l2.132,8.213l-54.007,-1.28c-0,0 2.865,-12.416 8.567,-21.238Z" style="fill:#f99746;fill-rule:nonzero;"/><path d="M663.574,321.233l1.448,22.388c0,0 5.672,4.644 5.601,4.028c-0.08,-0.617 12.177,-19.212 12.177,-19.212c0,-0 -10.176,-4.885 -19.226,-7.204Z" style="fill:#f99746;fill-rule:nonzero;"/><path d="M643.524,347.442l22.071,-7.453c2.032,-0.683 4.173,0.666 4.425,2.786l1.82,14.839c0.191,1.587 -0.754,3.091 -2.263,3.604l-9.723,3.29c-1.056,0.358 -2.222,0.171 -3.107,-0.5l-14.178,-10.677c-2.162,-1.631 -1.619,-5.022 0.955,-5.889Z" style="fill:#ed7d2b;fill-rule:nonzero;"/><path d="M809.216,65.787l-1.951,18.594c-0,0 23.469,0.356 23.469,0c-0,-0.355 0.714,-9.219 0.714,-9.219l3.911,10.286l8.708,-2.845l-9.975,-16.816c0,-0 -9.954,4.697 -24.876,-0Z" style="fill:#233862;fill-rule:nonzero;"/><path d="M327.677,273.407l-15.285,17.806l4.485,17.381l6.224,-4.268l-3.066,-13.06l10.708,8.793l13.867,-18.314l-16.933,-8.338Z" style="fill:#233862;fill-rule:nonzero;"/><path d="M324.348,289.747c0,-0.786 0.634,-1.423 1.418,-1.423c0.784,-0 1.428,0.637 1.428,1.423c-0,0.785 -0.644,1.422 -1.428,1.422c-0.784,-0 -1.418,-0.637 -1.418,-1.422Z" style="fill:#ebf3fa;fill-rule:nonzero;"/><path d="M826.39,77.504c-0,-0.62 0.503,-1.124 1.116,-1.124c0.624,0 1.126,0.504 1.126,1.124c0,0.623 -0.502,1.125 -1.126,1.125c-0.613,0 -1.116,-0.502 -1.116,-1.125Z" style="fill:#ebf3fa;fill-rule:nonzero;"/><path d="M789.487,510.403c0,-1.671 1.347,-3.023 3.017,-3.023c1.669,0 3.026,1.352 3.026,3.023c0,1.669 -1.357,3.022 -3.026,3.022c-1.67,0 -3.017,-1.353 -3.017,-3.022Z" style="fill:#ebf3fa;fill-rule:nonzero;"/><path d="M765.475,460.395c-0,-1.67 1.357,-3.023 3.027,-3.023c1.669,-0 3.026,1.353 3.026,3.023c0,1.669 -1.357,3.022 -3.026,3.022c-1.67,0 -3.027,-1.353 -3.027,-3.022Z" style="fill:#ebf3fa;fill-rule:nonzero;"/><path d="M732.403,422.552c-0,-1.669 1.357,-3.023 3.027,-3.023c1.669,-0 3.026,1.354 3.026,3.023c0,1.67 -1.357,3.023 -3.026,3.023c-1.67,0 -3.027,-1.353 -3.027,-3.023Z" style="fill:#ebf3fa;fill-rule:nonzero;"/></g></svg>