<?xml version="1.0" encoding="UTF-8" standalone="no"?><!DOCTYPE svg PUBLIC "-//W3C//DTD SVG 1.1//EN" "http://www.w3.org/Graphics/SVG/1.1/DTD/svg11.dtd"><svg width="100%" height="100%" viewBox="0 0 833 875" version="1.1" xmlns="http://www.w3.org/2000/svg" xmlns:xlink="http://www.w3.org/1999/xlink" xml:space="preserve" xmlns:serif="http://www.serif.com/" style="fill-rule:evenodd;clip-rule:evenodd;stroke-linejoin:round;stroke-miterlimit:2;"><g><path d="M366.166,262.716c-0,0 -20.383,28.692 -39.067,29.093c-18.685,0.4 -47.114,-13.297 -47.114,-13.297c0,0 -17.155,-38.234 -5.514,-53.197c-0,0 11.662,-5.125 23.862,3.923c2.098,1.56 4.228,3.522 6.327,6.052c2.952,3.554 6.274,5.579 9.806,6.644c13.328,4.059 29.156,-5.484 35.071,3.721c3.459,5.358 7.213,9.385 10.313,12.212c3.659,3.257 6.316,4.849 6.316,4.849Z" style="fill:#f9ddbf;fill-rule:nonzero;"/><path d="M100.465,469.684c0,0 72.03,-174.554 201.696,-177.875c-0,-0 119.69,13.296 126.344,177.875c-112.67,58.488 -222.029,58.717 -328.04,0Z" style="fill:#f9ddbf;fill-rule:nonzero;"/><path d="M266.636,297.134c0,-0 51.974,11.557 68.012,4.766c0,-0 2.426,-21.732 -19.465,-18.685c-14.984,2.088 -24.737,-5.114 -30.474,-8.035c-8.129,-4.133 -20.224,12.864 -18.073,21.954Z" style="fill:#db6a1d;fill-rule:nonzero;"/><path d="M311.872,264.383c-3.321,2.488 -13.539,-35.145 -13.539,-35.145c2.098,1.56 4.228,3.522 6.327,6.052c2.952,3.554 6.274,5.579 9.806,6.644c0.032,1.096 0.633,20.013 -2.594,22.449Z" style="fill:#e5c1a1;fill-rule:nonzero;"/><path d="M359.85,257.867c-0.739,0.431 -24.769,14.825 -28.028,14.825c-3.332,-0 17.715,-27.037 17.715,-27.037c3.459,5.358 7.213,9.385 10.313,12.212Z" style="fill:#e5c1a1;fill-rule:nonzero;"/><path d="M170.839,420.916c-1.339,-1.139 50.972,-77.017 65.387,-77.576c14.404,-0.548 46.775,16.628 70.205,18.843c23.441,2.214 46.154,-4.439 50.593,9.416c4.428,13.856 16.618,62.972 9.142,70.828c-7.487,7.855 -166.561,3.068 -195.327,-21.511Z" style="fill:#e5c1a1;fill-rule:nonzero;"/><path d="M323.64,280.674c-4.345,-3.069 -14.204,-9.817 -14.71,-8.309c-0.369,1.075 0.158,2.921 1.34,4.829c-5.969,-2.225 -12.021,-3.69 -26.341,-0.938c-2.868,0.548 -5.462,2.182 -7.044,4.639c-1.455,2.267 -2.003,5.114 1.656,7.381c7.307,4.545 5.188,1.825 15.342,8.436c10.155,6.622 22.587,8.309 30.01,3.659l9.964,-1.656l1.245,-16.396c-0,-0 -5.684,-0.675 -11.462,-1.645Z" style="fill:#ffb27d;fill-rule:nonzero;"/><path d="M584.848,143.162c0,-0 -23.503,27.879 -53.428,16.216c-0,0 -6.433,-15.57 -6.528,-27.047c-0.01,-1.413 -0.031,-2.781 -0.052,-4.083c-0.159,-12.925 -0.591,-20.177 -0.591,-20.177c0,-0 0.011,-0.003 0.032,-0.007c1.36,-0.567 45.742,-18.79 45.71,-17.277c-0.77,34.956 14.857,52.375 14.857,52.375Z" style="fill:#ffb27d;fill-rule:nonzero;"/><path d="M565.531,99.123c-4.281,7.933 -18.97,23.455 -40.691,29.125c-0.159,-12.925 -0.591,-20.177 -0.591,-20.177c0,-0 0.011,-0.003 0.032,-0.007c1.223,-0.33 42.526,-11.28 41.25,-8.941Z" style="fill:#ed975d;fill-rule:nonzero;"/><path d="M514.949,106.727c-0,0 49.918,11.736 56.75,-19.462c6.823,-31.197 17.873,-50.694 -13.707,-59.504c-31.581,-8.813 -40.407,1.732 -45.215,11.591c-4.819,9.858 -10.629,63.519 2.172,67.375Z" style="fill:#ffb27d;fill-rule:nonzero;"/><path d="M569.991,95.765c0.675,0.437 11.42,3.736 31.76,-36.784c3.195,-6.361 5.367,-20.121 -2.077,-32.279c-7.444,-12.159 -33.827,-21.719 -55.759,-25.878c-21.922,-4.161 -27.195,8.177 -32.351,20.577c-5.42,13.016 -21.078,23.734 -21.078,23.734c18.906,10.561 41.682,-4.545 49.569,-2.062c7.898,2.485 10.682,14.919 11.272,18.905c0.591,3.985 1.498,7.298 11.42,3.739c9.923,-3.56 4.492,14.059 2.9,17.428c-0,-0 -1.35,8.975 4.344,12.62Z" style="fill:#a9453d;fill-rule:nonzero;"/><path d="M698.571,873.76l30.231,0c6.327,0 13.371,-6.347 15.131,-17.957c1.772,-11.62 14.794,-17.957 17.61,-27.468c2.826,-9.512 -11.62,-22.893 -11.62,-22.893l-2.415,-3.1l-2.51,-3.237l-23.946,5.631c-0,-0 -0.591,5.705 -0.96,12.959c-0.253,5.251 -0.4,11.314 -0.095,16.629c0.707,12.674 -3.553,26.33 -14.815,28.797c-11.272,2.467 -6.611,10.639 -6.611,10.639Z" style="fill:#2c3a64;fill-rule:nonzero;"/><path d="M488.166,873.76l80.117,0c0.77,-0.147 1.35,-0.316 1.698,-0.495c5.346,-2.679 3.68,-23.156 3.037,-29.483c-0.127,-1.17 -0.211,-1.856 -0.211,-1.856c-0,0 -28.175,-22.533 -32.056,-5.282c-0.126,0.537 -0.263,1.065 -0.411,1.592c-4.893,16.144 -26.751,23.482 -39.384,25.528c-9.648,1.561 -12.147,7.181 -12.79,9.996Z" style="fill:#2c3a64;fill-rule:nonzero;"/><path d="M504.309,411.753c0,-0 4.281,53.376 9.311,117.539c6.833,87.172 15.047,194.241 15.87,214.518c1.402,35.229 7.043,91.568 7.043,91.568c0,0 13.371,13.381 40.143,7.74c0,-0 23.852,-80.423 30.664,-165.517c0.105,-1.403 0.211,-2.805 0.316,-4.207c6.348,-86.624 16.197,-269.044 16.197,-269.044l-119.544,7.403Z" style="fill:#2b478b;fill-rule:nonzero;"/><path d="M504.309,411.753c0,-0 4.281,53.376 9.311,117.539l93.72,148.309c0.105,-1.403 0.211,-2.805 0.316,-4.207c6.348,-86.624 16.197,-269.044 16.197,-269.044l-119.544,7.403Z" style="fill:#233862;fill-rule:nonzero;"/><path d="M523.848,418.09c0,-0 77.123,193.323 127.831,284.174c50.709,90.852 66.558,116.211 66.558,116.211c-0,0 29.05,-11.62 31.686,-19.549c-0,-0 -19.392,-175.397 -53.345,-218.145c-19.191,-24.168 -41.735,-96.672 -42.79,-122.021c-1.054,-25.36 -6.864,-75.53 -6.864,-75.53l-123.076,34.86Z" style="fill:#2b478b;fill-rule:nonzero;"/><path d="M699.72,382.966l0.812,12.432c0,0 -8.193,22.091 14.784,33.416c-0,-0 9.827,3.964 10.228,-3.691c0.401,-7.655 -0.854,-4.777 -0.064,-15.553c0.802,-10.787 -3.437,-20.973 -10.565,-24.411l-5.852,-6.748l-9.343,4.555Z" style="fill:#ffb27d;fill-rule:nonzero;"/><path d="M708.694,392.013c-8.531,2.742 -9.901,2.12 -9.901,2.12c-0,-0 -41.546,-75.636 -45.753,-82.564c-4.208,-6.917 -88.216,-84.82 -88.216,-84.82l21.596,-80.498c-0,0 95.533,123.72 105.856,141.477c17.05,29.335 27.036,97.474 27.036,97.474c0,-0 -3.912,4.66 -10.618,6.811Z" style="fill:#1e3d70;fill-rule:nonzero;"/><path d="M488.029,258.351c0.306,16.534 1.265,35.124 2.562,53.999c0.074,1.117 0.158,2.235 0.232,3.353c0.833,11.693 1.729,23.408 2.763,34.839c0.411,4.587 0.854,9.11 1.307,13.57l0.074,0.591c0.032,1.666 0.232,3.48 0.422,5.125c4.207,42.81 8.625,76.627 9.448,77.143c0.98,0.654 2.077,0.981 3.29,0.844c11.219,-1.413 44.719,1.139 72.134,-4.83c23.146,-4.882 43.064,-14.14 64.185,-26.614c2.794,-1.655 9.184,-6.042 8.668,-9.321c-0.517,-3.607 -1.456,-8.815 -2.658,-15.364c-4.154,-22.765 -11.335,-61.938 -13.781,-107.775c-0.485,-8.541 -1.181,-16.977 -2.078,-25.265c-2.351,-21.595 -6.126,-42.114 -11.177,-60.335c-9.406,-33.856 -23.219,-59.78 -40.554,-69.923c-2.267,-1.269 -14.457,6.486 -25.644,13.668c-10.334,6.626 -21.216,8.46 -31.803,7.534l-9.31,10.301c-11.283,13.112 -23.293,30.568 -26.573,55.386c-0.242,1.834 -0.453,3.775 -0.632,5.852c-0.907,10.102 -1.128,22.904 -0.875,37.222Z" style="fill:#2a4e96;fill-rule:nonzero;"/><path d="M488.029,258.351c0.306,16.534 1.265,35.124 2.562,53.999c0.074,1.117 0.158,2.235 0.232,3.353c64.121,-40.133 74.001,-113.585 74.001,-113.585c-31.549,1.384 -56.602,8.635 -75.92,19.011c-0.907,10.102 -1.128,22.904 -0.875,37.222Z" style="fill:#1e3d70;fill-rule:nonzero;"/><path d="M326.012,289.974c-0.664,-9.511 4.26,-11.093 4.26,-11.093c0,0 96.683,-17.525 104.908,-20.108c8.214,-2.584 78.493,-75.696 78.493,-75.696c0,-0 26.941,-30.38 49,-23.671c19.17,5.83 26.657,20.781 29.209,35.024c3.037,16.974 -4.788,34.048 -19.487,43.064c-32.993,20.247 -99.044,60.114 -114.597,64.68c-34.629,10.144 -127.652,0.812 -127.652,0.812c-0,-0 -3.617,-5.546 -4.134,-13.012Z" style="fill:#2a4e96;fill-rule:nonzero;"/></g><path d="M832.008,874.865l-831.064,0c-0.519,0 -0.944,-0.425 -0.944,-0.943l0,-0.323c0,-0.518 0.425,-0.944 0.944,-0.944l831.064,0c0.518,0 0.943,0.426 0.943,0.944l0,0.323c0,0.518 -0.425,0.943 -0.943,0.943Z" style="fill:#2e3552;fill-rule:nonzero;"/></svg>