<?xml version="1.0" encoding="UTF-8" standalone="no"?><!DOCTYPE svg PUBLIC "-//W3C//DTD SVG 1.1//EN" "http://www.w3.org/Graphics/SVG/1.1/DTD/svg11.dtd"><svg width="100%" height="100%" viewBox="0 0 433 696" version="1.1" xmlns="http://www.w3.org/2000/svg" xmlns:xlink="http://www.w3.org/1999/xlink" xml:space="preserve" xmlns:serif="http://www.serif.com/" style="fill-rule:evenodd;clip-rule:evenodd;stroke-linejoin:round;stroke-miterlimit:2;"><g><path d="M258.1,300.693l7.237,5.875c-0,-0 19.796,-7.102 24.264,16.425c0,0 1.188,10.029 -5.161,10.049c-6.351,0.009 -3.731,-1.102 -12.723,-0.841c-8.994,0.271 -16.447,-4.473 -17.764,-11.768l-4.302,-6.184l8.449,-13.556Z" style="fill:#ea8e50;fill-rule:nonzero;"/><path d="M257.281,313.302c5.774,-6.029 5.308,-10.483 5.308,-10.483c-0,0 -66.853,-54.735 -73.633,-59.189c-4.62,-3.044 -53.854,-46.687 -76.869,-73.296c-11.416,-13.199 -25.556,-8.078 -41.735,-3.44l-13.323,3.826c-16.087,4.609 -20.271,27.112 -7.072,38.049c37.176,30.793 99.019,65.422 110.592,72.707c28.726,18.068 84.953,39.537 84.953,39.537c-0,-0 6.821,-2.532 11.779,-7.711Z" style="fill:#1e3d70;fill-rule:nonzero;"/><path d="M333.574,649.579c-0,-0 16.224,12.164 41.084,5.739c0,-0 20.044,-4.57 24.441,5.43c-0,-0 -30.742,15.614 -38.52,19.884c-5.863,3.218 -11.981,8.3 -16.306,12.223c-3.423,3.111 -8.755,2.695 -11.673,-0.899c-1.352,-1.662 -2.9,-3.643 -4.595,-5.942c-4.74,-6.416 -15.784,-27.17 -15.784,-27.17l21.353,-9.265Z" style="fill:#233862;fill-rule:nonzero;"/><path d="M343.098,643.405c-0,-0 -9.88,22.783 -32.683,18.589c-0,0 -46.535,-38.426 -78.455,-78.349c-10.366,-12.966 -19.193,-26.087 -24.38,-38.097c-21.166,-49.006 -78.297,-122.099 -114.62,-159.143l90.878,-32.88c-0,0 29.11,58.562 67.841,130.486c27.911,51.817 60.811,110.591 91.419,159.394Z" style="fill:#2b478b;fill-rule:nonzero;"/><path d="M251.679,484.011l-19.719,99.634c-10.366,-12.966 -19.193,-26.087 -24.38,-38.097c-21.166,-49.006 -78.297,-122.099 -114.62,-159.143l90.878,-32.88c-0,0 29.11,58.562 67.841,130.486Z" style="fill:#233862;fill-rule:nonzero;"/><path d="M177.393,662.806c0,-0 -0.99,18.174 21.045,20.599c0,0 12.593,0.068 12.628,11.633l-64.043,0.203c-0,0 -1.859,-4.667 -2.311,-14.657c-0.346,-7.681 7.439,-27.749 7.439,-27.749l25.242,9.971Z" style="fill:#233862;fill-rule:nonzero;"/><path d="M154.031,353.525c-0,0 40.485,44.484 66.185,124.63c13.982,43.615 -25.629,153.249 -33.351,191.337c-0,-0 -26.572,2.261 -44.742,-4.763c0,-0 -1.381,-78.678 9.246,-139.326c5.947,-33.933 -53.306,-72.581 -79.197,-133.896c-17.614,-41.721 3.814,-41.006 30.148,-42.011l51.711,4.029Z" style="fill:#2b478b;fill-rule:nonzero;"/><path d="M107.295,155.058c-22.525,12.715 -68.639,0.986 -68.639,0.986c-0,-0 18.728,-21.411 10.218,-55.895l17.686,8.986l18.995,9.652c0,-0 1.23,6.088 2.084,17.024c0.217,2.812 0.412,5.962 0.547,9.402c11.565,3.507 19.109,9.845 19.109,9.845Z" style="fill:#ffb07b;fill-rule:nonzero;"/><path d="M189.891,351.226c0,3.961 -4.56,5.855 -5.529,6.048c-9.086,1.662 -34.453,11.527 -57.305,13.788c-19.242,2.019 -37.106,0.106 -56.733,-3.836c-2.599,-0.522 -8.7,-2.164 -9.133,-4.657c-0.542,-2.715 -75.704,-153.22 -17.274,-217.878c1.372,-1.517 12.905,1.217 23.453,3.72c9.74,2.309 18.676,1.024 26.655,-2.174l9.891,5.198c12.149,6.773 35.133,30.822 37.822,49.692c1.366,9.594 6.854,16.705 8.442,25.14c0.59,3.131 1.192,6.174 1.805,9.15c1.197,5.826 2.43,11.382 3.7,16.657c3.437,14.271 7.064,26.551 10.626,37.17c3.79,11.266 7.509,20.638 10.83,28.484c4.308,10.164 7.949,17.768 10.224,23.584c1.605,4.097 2.526,7.315 2.526,9.914Z" style="fill:#2a4e96;fill-rule:nonzero;"/><path d="M187.365,341.312c-106.103,-49.991 -142.847,-145.973 -142.847,-145.973c-0,-0 86.204,31.798 107.467,40.078c1.197,5.826 2.43,11.382 3.7,16.657c3.437,14.271 7.064,26.551 10.626,37.17c3.79,11.266 7.509,20.638 10.83,28.484c4.308,10.164 7.949,17.768 10.224,23.584Z" style="fill:#1e3d70;fill-rule:nonzero;"/><path d="M87.639,135.811c-22.151,1.247 -36.555,-17.043 -36.555,-17.043c-0,-0 10.015,-5.546 15.476,-9.633l18.995,9.652c0,-0 1.23,6.088 2.084,17.024Z" style="fill:#ea8e50;fill-rule:nonzero;"/><path d="M97.076,113.067c0,0 -33.562,24.087 -48.239,2.957c-14.677,-21.131 -28.894,-32.257 -8.087,-48.529c20.809,-16.271 30.617,-11.13 37.231,-5.268c6.616,5.862 27.447,44.028 19.095,50.84Z" style="fill:#ffb07b;fill-rule:nonzero;"/><path d="M81.527,43.141c-1.203,-8.122 -3.91,-13.838 -3.91,-13.838c-0,0 -2.107,8.724 -18.051,7.521c-15.944,-1.204 -41.215,1.568 -49.639,19.738c-0.536,1.154 -1.014,2.346 -1.438,3.564c-1.525,-4.029 -1.893,-10.065 -1.893,-10.065c-3.03,7.822 0,17.606 0,17.606l0.002,0c-0.046,0.284 -0.083,0.571 -0.124,0.856c-3.519,2.976 -6.474,12.224 -6.474,12.224c1.061,-2.578 3.651,-4.262 5.96,-5.299c-0.072,14.139 5.662,27.957 15.725,32.073c14.717,6.02 14.599,1.43 29.399,11.247c-0,-0 3.97,-4.928 1.262,-8.242c-2.707,-3.304 -12.937,-8.116 -7.221,-12.928c5.716,-4.821 7.823,0.599 9.929,-2.715c2.105,-3.304 -8.424,-12.932 5.114,-21.958c13.538,-9.025 22.563,-21.661 21.359,-29.784Z" style="fill:#233862;fill-rule:nonzero;"/><path d="M110.704,204.47c-22.522,-87.528 30.175,-176.745 117.703,-199.268c87.528,-22.523 176.741,30.175 199.264,117.701c22.522,87.528 -30.174,176.747 -117.702,199.269c-87.529,22.522 -176.742,-30.174 -199.265,-117.702Z" style="fill:#ffb93e;fill-rule:nonzero;"/><path d="M234.731,29.777c-74.87,19.266 -120.108,95.851 -100.843,170.722c19.266,74.87 95.851,120.108 170.721,100.842c74.87,-19.266 120.107,-95.847 100.841,-170.718c-19.265,-74.874 -95.85,-120.112 -170.719,-100.846Zm72.094,280.173c-38.568,9.932 -78.695,4.241 -112.985,-16.02c-34.291,-20.252 -58.642,-52.648 -68.565,-91.219c-9.925,-38.571 -4.236,-78.696 16.018,-112.982c20.256,-34.291 52.652,-58.641 91.221,-68.566c38.569,-9.925 78.694,-4.235 112.986,16.02c34.289,20.254 58.639,52.65 68.564,91.218c9.925,38.57 4.236,78.697 -16.019,112.987c-20.255,34.291 -52.65,58.639 -91.22,68.562Z" style="fill:#ffa412;fill-rule:nonzero;"/><path d="M300.332,202.354c-0.431,-3.208 -1.266,-5.972 -2.499,-8.3c-1.234,-2.319 -3.014,-4.338 -5.335,-6.048c-2.325,-1.711 -5.225,-3.189 -8.699,-4.435c-3.476,-1.237 -7.664,-2.348 -12.569,-3.324c-8.443,-1.739 -16.162,-3.72 -23.156,-5.923c-6.999,-2.212 -13.113,-5.024 -18.346,-8.444c-5.234,-3.421 -9.511,-7.672 -12.832,-12.745c-3.321,-5.072 -5.486,-11.362 -6.493,-18.849c-0.874,-6.494 -0.519,-12.57 1.064,-18.223c1.584,-5.663 4.247,-10.764 7.989,-15.315c3.742,-4.551 8.428,-8.464 14.058,-11.751c5.629,-3.284 12.1,-5.771 19.41,-7.453l-3.3,-24.527l19.741,-2.656l3.347,24.87c7.195,-0.034 13.863,0.976 20.002,3.026c6.136,2.052 11.525,5.062 16.163,9.022c4.636,3.971 8.459,8.88 11.467,14.744c3.005,5.856 5.025,12.6 6.053,20.242l-35.657,4.802c-1.234,-9.169 -4.192,-15.758 -8.875,-19.758c-4.684,-3.991 -10.44,-5.537 -17.266,-4.619c-3.702,0.503 -6.822,1.449 -9.354,2.841c-2.535,1.391 -4.544,3.101 -6.031,5.121c-1.485,2.038 -2.477,4.328 -2.969,6.879c-0.493,2.56 -0.549,5.246 -0.168,8.077c0.379,2.822 1.135,5.334 2.265,7.508c1.131,2.183 2.834,4.116 5.113,5.787c2.277,1.682 5.198,3.16 8.76,4.426c3.562,1.275 7.935,2.492 13.117,3.661c8.378,1.904 16.051,3.991 23.011,6.242c6.96,2.251 13.06,5.102 18.298,8.561c5.239,3.459 9.519,7.729 12.84,12.802c3.32,5.072 5.479,11.324 6.477,18.734c0.905,6.715 0.545,12.918 -1.08,18.58c-1.624,5.662 -4.314,10.725 -8.067,15.199c-3.752,4.473 -8.492,8.299 -14.219,11.488c-5.726,3.179 -12.245,5.613 -19.555,7.295l3.069,22.802l-19.618,2.647l-3.053,-22.696c-6.921,0.232 -13.723,-0.367 -20.404,-1.806c-6.684,-1.43 -12.783,-3.972 -18.299,-7.624c-5.516,-3.652 -10.197,-8.57 -14.042,-14.744c-3.846,-6.174 -6.386,-13.846 -7.62,-23.015l35.658,-4.792c0.73,5.42 2.099,9.845 4.11,13.275c2.009,3.421 4.436,6.049 7.279,7.885c2.842,1.835 5.947,2.975 9.316,3.41c3.366,0.445 6.735,0.435 10.109,-0.009c3.866,-0.522 7.191,-1.479 9.979,-2.86c2.785,-1.392 5.047,-3.092 6.785,-5.121c1.739,-2.02 2.938,-4.3 3.601,-6.841c0.664,-2.541 0.806,-5.217 0.425,-8.048Z" style="fill:#ffa412;fill-rule:nonzero;"/><path d="M251.679,328.675c-0,-0 17.957,6.048 28.302,5.797c10.344,-0.251 28.336,-11.131 28.372,-11.904c0.037,-0.763 -8.086,-5.449 -19.869,-3.961c-11.783,1.488 -14.182,-0.28 -10.522,-1.739c4.121,-1.653 7.059,-4.116 6.055,-5.691c-0.554,-0.86 -6.475,1.014 -8.493,1.681c-2.019,0.676 -7.064,-1.169 -11.269,1.865c-2.795,2.009 -13.287,3.517 -13.287,3.517l0.711,10.435Z" style="fill:#ffc299;fill-rule:nonzero;"/><path d="M258.778,322.839c3.166,-8.928 4.612,-12.976 4.612,-12.976c-0,-0 -70.683,-54.697 -77.862,-59.364c-4.892,-3.178 -53.669,-37.749 -77.714,-65.054c-11.926,-13.536 -30.341,-19.401 -47.903,-15.256l-14.461,3.42c-17.463,4.126 -22.605,26.493 -8.692,37.817c39.182,31.914 104.835,68.417 117.096,76.04c30.44,18.938 97.363,44.861 97.363,44.861c-0,-0 5.075,-2.474 7.561,-9.488Z" style="fill:#2a4e96;fill-rule:nonzero;"/></g></svg>