<?xml version="1.0" encoding="UTF-8" standalone="no"?><!DOCTYPE svg PUBLIC "-//W3C//DTD SVG 1.1//EN" "http://www.w3.org/Graphics/SVG/1.1/DTD/svg11.dtd"><svg width="100%" height="100%" viewBox="0 0 557 558" version="1.1" xmlns="http://www.w3.org/2000/svg" xmlns:xlink="http://www.w3.org/1999/xlink" xml:space="preserve" xmlns:serif="http://www.serif.com/" style="fill-rule:evenodd;clip-rule:evenodd;stroke-linejoin:round;stroke-miterlimit:2;"><g><circle cx="268.762" cy="268.762" r="268.762" style="fill:#d9d9d9;"/><path id="Person" d="M268.762,53.588c-118.776,-0 -215.174,96.398 -215.174,215.174c-0,118.776 96.398,215.174 215.174,215.174c118.776,0 215.174,-96.398 215.174,-215.174c0,-118.776 -96.398,-215.174 -215.174,-215.174Zm131.423,363.203c40.816,-36.265 66.537,-89.15 66.537,-148.029c0,-109.309 -88.651,-197.96 -197.96,-197.96c-109.309,-0 -197.96,88.651 -197.96,197.96c-0,58.879 25.721,111.764 66.537,148.029c23.372,-0.725 55.333,5.172 84.226,-27.317c8.449,-9.5 6.673,-35.48 4.162,-43.249c-10.163,-5.004 -16.733,-19.922 -17.214,-51.642c-9.446,0.143 -15.514,-3.191 -17.214,-8.607c-6.11,-19.468 -13.916,-40.127 0,-60.249c-18.768,-71.193 25.822,-111.889 77.463,-111.89c51.64,-0 96.231,40.696 77.463,111.89c13.916,20.122 6.11,40.781 -0,60.249c-1.7,5.416 -7.768,8.75 -17.214,8.607c-0.481,31.72 -7.051,46.638 -17.214,51.642c-2.511,7.769 -4.287,33.749 4.162,43.249c28.893,32.489 60.854,26.592 84.226,27.317Z" style="fill:#fff;"/></g><circle cx="462.33" cy="463.524" r="93.683" style="fill:#fff;"/><clipPath id="_clip1"><circle cx="462.33" cy="463.524" r="93.683"/></clipPath><g clip-path="url(#_clip1)"><path id="Pencil-Icon" serif:id="Pencil Icon" d="M504.071,440.638l-18.872,-18.878l3.145,-3.149c5.211,-5.213 13.66,-5.213 18.871,0c5.211,5.214 5.211,13.667 -0,18.88l-3.144,3.147Zm-92.918,74.089l6.291,-25.171l3.145,-3.147l18.871,18.879l-3.145,3.147l-25.162,6.292Zm86.628,-67.795l-52.031,52.063l-18.872,-18.879l52.031,-52.063l18.872,18.879Z" style="fill:#d9d9d9;"/></g></svg>