<?xml version="1.0" encoding="UTF-8" standalone="no"?><!DOCTYPE svg PUBLIC "-//W3C//DTD SVG 1.1//EN" "http://www.w3.org/Graphics/SVG/1.1/DTD/svg11.dtd"><svg width="100%" height="100%" viewBox="0 0 868 836" version="1.1" xmlns="http://www.w3.org/2000/svg" xmlns:xlink="http://www.w3.org/1999/xlink" xml:space="preserve" xmlns:serif="http://www.serif.com/" style="fill-rule:evenodd;clip-rule:evenodd;stroke-linejoin:round;stroke-miterlimit:2;"><g><path d="M854.566,797.445l0,26.524c0,2.131 -0.782,4.079 -2.1,5.719c-1.38,1.717 -3.373,3.066 -5.704,3.818c-0.705,0.245 -1.472,0.414 -2.223,0.521c-0.705,0.123 -1.426,0.169 -2.162,0.169l-503.129,-0c-6.072,-0 -11.162,-3.787 -12.051,-8.694c-0.062,-0.322 -0.107,-0.674 -0.123,-0.996l0,-27.582c0.016,-0.337 0.061,-0.675 0.123,-0.997c0.889,-4.906 5.979,-8.693 12.051,-8.693l503.129,0c0.736,0 1.457,0.046 2.162,0.153c0.751,0.108 1.518,0.292 2.223,0.522c2.331,0.766 4.324,2.116 5.704,3.848c1.318,1.625 2.1,3.588 2.1,5.688Z" style="fill:#ffb93e;fill-rule:nonzero;"/><path d="M607.478,834.196l-269.534,-0c-5.013,-0 -9.214,-3.235 -10.456,-7.574c-0.123,-0.368 -0.23,-0.736 -0.291,-1.12c-0.062,-0.322 -0.107,-0.674 -0.123,-0.996l0,-27.582c0.016,-0.337 0.061,-0.675 0.123,-0.997c0.061,-0.368 0.168,-0.751 0.291,-1.104c1.242,-4.354 5.443,-7.589 10.456,-7.589l236.448,0c3.772,13.814 12.572,32.948 33.086,46.962Z" style="fill:#ffa412;fill-rule:nonzero;"/><rect x="787.612" y="787.234" width="5.719" height="46.961" style="fill:#ffa412;fill-rule:nonzero;"/><rect x="768.263" y="787.234" width="5.719" height="46.961" style="fill:#ffa412;fill-rule:nonzero;"/><rect x="745.051" y="787.234" width="5.719" height="46.961" style="fill:#ffa412;fill-rule:nonzero;"/><rect x="709.466" y="787.234" width="5.719" height="46.961" style="fill:#ffa412;fill-rule:nonzero;"/><rect x="671.841" y="787.234" width="5.719" height="46.961" style="fill:#ffa412;fill-rule:nonzero;"/><rect x="614.163" y="787.234" width="5.719" height="46.961" style="fill:#ffa412;fill-rule:nonzero;"/><rect x="560.147" y="787.234" width="5.719" height="46.961" style="fill:#ffa412;fill-rule:nonzero;"/><rect x="511.93" y="787.234" width="5.719" height="46.961" style="fill:#ffa412;fill-rule:nonzero;"/><rect x="806.041" y="787.234" width="5.719" height="46.961" style="fill:#ffa412;fill-rule:nonzero;"/><rect x="818.214" y="787.234" width="5.719" height="46.961" style="fill:#ffa412;fill-rule:nonzero;"/><rect x="829.974" y="787.234" width="5.703" height="46.961" style="fill:#ffa412;fill-rule:nonzero;"/><path d="M844.524,787.387l-0,46.655c-0.69,0.108 -1.411,0.154 -2.147,0.154l-3.572,-0l-0,-46.962l3.572,0c0.736,0 1.457,0.061 2.147,0.153Z" style="fill:#ffa412;fill-rule:nonzero;"/><path d="M852.466,791.742l-0,37.946c-1.38,1.717 -3.373,3.066 -5.704,3.818l0,-45.582c2.331,0.751 4.324,2.101 5.704,3.818Z" style="fill:#ffa412;fill-rule:nonzero;"/><path d="M800.752,750.484l-0,26.524c-0,2.116 -0.752,4.078 -2.07,5.703c-1.395,1.733 -3.373,3.082 -5.719,3.833c-0.721,0.23 -1.457,0.414 -2.239,0.537c-0.337,0.046 -0.689,0.077 -1.057,0.107c-0.353,0.031 -0.721,0.046 -1.074,0.046l-503.145,0c-6.071,0 -11.161,-3.802 -12.051,-8.708c-0.061,-0.322 -0.092,-0.66 -0.107,-0.982c0,-0.184 -0.015,-0.368 -0.015,-0.536l-0,-26.524c-0,-0.184 0.015,-0.353 0.015,-0.522c0.015,-0.337 0.046,-0.674 0.107,-0.996c0.89,-4.922 5.98,-8.709 12.051,-8.709l503.145,0c0.322,0 0.66,0.016 0.966,0.046l0.337,0.031l0.062,0c0.138,0.015 0.306,0.031 0.46,0.046l0.306,0.046c0.782,0.123 1.518,0.276 2.239,0.521l0.322,0.108l0.306,0.107l0.231,0.107l0.383,0.154l0.337,0.153l0.108,0.046l0.214,0.107c0.199,0.092 0.368,0.2 0.567,0.307c0.521,0.307 0.997,0.629 1.442,0.981c0.214,0.153 0.414,0.322 0.582,0.491c0.445,0.398 0.859,0.828 1.227,1.272c1.318,1.626 2.07,3.588 2.07,5.704Z" style="fill:#ffb93e;fill-rule:nonzero;"/><path d="M553.694,787.234l-269.534,0c-5.013,0 -9.229,-3.25 -10.471,-7.589c-0.123,-0.368 -0.215,-0.736 -0.292,-1.119c-0.061,-0.322 -0.092,-0.66 -0.107,-0.982c0,-0.184 -0.015,-0.368 -0.015,-0.536l-0,-26.524c-0,-0.184 0.015,-0.353 0.015,-0.522c0.015,-0.337 0.046,-0.674 0.107,-0.996c0.077,-0.368 0.169,-0.751 0.292,-1.104c1.242,-4.37 5.458,-7.605 10.471,-7.605l236.418,0c0.122,0.384 0.214,0.782 0.337,1.166c2.037,7.083 5.412,15.469 10.947,23.779c5.151,7.758 12.202,15.47 21.832,22.032Z" style="fill:#ffa412;fill-rule:nonzero;"/><rect x="733.812" y="740.257" width="5.719" height="46.977" style="fill:#ffa412;fill-rule:nonzero;"/><rect x="714.464" y="740.257" width="5.719" height="46.977" style="fill:#ffa412;fill-rule:nonzero;"/><rect x="691.251" y="740.257" width="5.719" height="46.977" style="fill:#ffa412;fill-rule:nonzero;"/><rect x="655.666" y="740.257" width="5.719" height="46.977" style="fill:#ffa412;fill-rule:nonzero;"/><rect x="618.042" y="740.257" width="5.719" height="46.977" style="fill:#ffa412;fill-rule:nonzero;"/><rect x="560.364" y="740.257" width="5.719" height="46.977" style="fill:#ffa412;fill-rule:nonzero;"/><rect x="506.365" y="740.257" width="5.719" height="46.977" style="fill:#ffa412;fill-rule:nonzero;"/><rect x="458.131" y="740.257" width="5.734" height="46.977" style="fill:#ffa412;fill-rule:nonzero;"/><rect x="752.241" y="740.257" width="5.719" height="46.977" style="fill:#ffa412;fill-rule:nonzero;"/><rect x="764.415" y="740.257" width="5.719" height="46.977" style="fill:#ffa412;fill-rule:nonzero;"/><rect x="776.175" y="740.257" width="5.719" height="46.977" style="fill:#ffa412;fill-rule:nonzero;"/><path d="M790.74,740.426l-0,46.64c-0.705,0.107 -1.426,0.168 -2.147,0.168l-3.572,0l0,-46.977l3.572,0c0.721,0 1.442,0.062 2.147,0.169Z" style="fill:#ffa412;fill-rule:nonzero;"/><path d="M798.682,744.78l-0,37.931c-1.395,1.717 -3.389,3.067 -5.719,3.833l-0,-45.597c2.33,0.752 4.324,2.116 5.719,3.833Z" style="fill:#ffa412;fill-rule:nonzero;"/><path d="M826.754,704.672l0,26.524c0,2.116 -0.766,4.079 -2.07,5.704c-1.41,1.717 -3.403,3.066 -5.718,3.817c-0.721,0.261 -1.472,0.414 -2.239,0.537c-0.69,0.107 -1.41,0.169 -2.146,0.169l-503.13,-0c-2.024,-0 -3.925,-0.414 -5.611,-1.166c-3.557,-1.563 -6.103,-4.568 -6.501,-8.079c-0.031,-0.154 -0.046,-0.292 -0.046,-0.46c-0,-0.169 -0.015,-0.353 -0.015,-0.522l-0,-26.524c-0,-0.168 0.015,-0.352 0.015,-0.536c0.015,-0.322 0.046,-0.66 0.107,-0.982c0.89,-4.906 5.98,-8.708 12.051,-8.708l503.13,-0c0.736,-0 1.456,0.061 2.146,0.153c0.767,0.123 1.518,0.307 2.239,0.537c2.315,0.751 4.308,2.1 5.718,3.833c1.304,1.625 2.07,3.587 2.07,5.703Z" style="fill:#ffb93e;fill-rule:nonzero;"/><path d="M579.697,741.423l-269.565,-0c-1.793,-0 -3.495,-0.414 -4.998,-1.166c-3.173,-1.563 -5.458,-4.568 -5.795,-8.079c-0.031,-0.154 -0.046,-0.292 -0.046,-0.46c-0,-0.169 -0.015,-0.353 -0.015,-0.522l-0,-26.524c-0,-0.168 0.015,-0.352 0.015,-0.536c0.015,-0.322 0.046,-0.66 0.107,-0.982c0.077,-0.383 0.169,-0.751 0.292,-1.119c1.241,-4.354 5.458,-7.589 10.44,-7.589l236.464,-0c1.502,5.489 3.787,11.836 7.298,18.337c5.088,9.444 12.694,19.257 24.132,27.474c0.567,0.399 1.104,0.782 1.671,1.166Z" style="fill:#ffa412;fill-rule:nonzero;"/><rect x="759.815" y="694.446" width="5.719" height="46.977" style="fill:#ffa412;fill-rule:nonzero;"/><rect x="740.467" y="694.446" width="5.703" height="46.977" style="fill:#ffa412;fill-rule:nonzero;"/><rect x="717.254" y="694.446" width="5.719" height="46.977" style="fill:#ffa412;fill-rule:nonzero;"/><rect x="681.669" y="694.446" width="5.719" height="46.977" style="fill:#ffa412;fill-rule:nonzero;"/><rect x="644.045" y="694.446" width="5.719" height="46.977" style="fill:#ffa412;fill-rule:nonzero;"/><rect x="586.366" y="694.446" width="5.719" height="46.977" style="fill:#ffa412;fill-rule:nonzero;"/><rect x="532.352" y="694.446" width="5.719" height="46.977" style="fill:#ffa412;fill-rule:nonzero;"/><rect x="484.134" y="694.446" width="5.719" height="46.977" style="fill:#ffa412;fill-rule:nonzero;"/><rect x="778.244" y="694.446" width="5.719" height="46.977" style="fill:#ffa412;fill-rule:nonzero;"/><rect x="790.418" y="694.446" width="5.719" height="46.977" style="fill:#ffa412;fill-rule:nonzero;"/><rect x="802.162" y="694.446" width="5.719" height="46.977" style="fill:#ffa412;fill-rule:nonzero;"/><path d="M816.727,694.615l0,46.639c-0.69,0.107 -1.41,0.169 -2.146,0.169l-3.573,-0l0,-46.977l3.573,-0c0.736,-0 1.456,0.061 2.146,0.169Z" style="fill:#ffa412;fill-rule:nonzero;"/><path d="M824.669,698.969l-0,37.931c-1.38,1.717 -3.373,3.066 -5.719,3.833l0,-45.597c2.346,0.751 4.339,2.1 5.719,3.833Z" style="fill:#ffa412;fill-rule:nonzero;"/><path d="M838.805,657.711l-0,26.524c-0,2.1 -0.751,4.063 -2.085,5.688c-0.353,0.429 -0.736,0.843 -1.165,1.227c-1.242,1.149 -2.791,2.054 -4.538,2.606c-0.721,0.245 -1.457,0.414 -2.239,0.537c-0.353,0.046 -0.705,0.076 -1.058,0.107c-0.353,0.015 -0.721,0.046 -1.088,0.046l-503.13,-0c-6.072,-0 -11.162,-3.787 -12.051,-8.693c-0.061,-0.322 -0.092,-0.66 -0.107,-0.997c-0,-0.184 -0.016,-0.368 -0.016,-0.521l0,-26.524c0,-0.184 0.016,-0.368 0.016,-0.537c0.015,-0.306 0.046,-0.628 0.092,-0.92c0.782,-4.553 5.166,-8.141 10.625,-8.708c0.475,-0.046 0.95,-0.062 1.441,-0.062l503.13,0c0.735,0 1.456,0.046 2.146,0.169c0.782,0.107 1.518,0.276 2.239,0.521c2.315,0.736 4.308,2.101 5.703,3.818c1.334,1.625 2.085,3.588 2.085,5.719Z" style="fill:#ffb93e;fill-rule:nonzero;"/><path d="M591.748,694.446l-269.565,-0c-4.983,-0 -9.199,-3.235 -10.441,-7.589c-0.122,-0.368 -0.214,-0.736 -0.291,-1.104c-0.061,-0.322 -0.092,-0.66 -0.107,-0.997c-0,-0.184 -0.016,-0.368 -0.016,-0.521l0,-26.524c0,-0.184 0.016,-0.368 0.016,-0.537c0.015,-0.306 0.046,-0.628 0.092,-0.92c0.69,-4.538 4.615,-8.141 9.475,-8.708c0.429,-0.046 0.858,-0.062 1.272,-0.062l236.463,0l0.016,0.062c1.303,4.737 3.204,10.103 5.964,15.684c5.259,10.641 13.66,22.017 27.122,31.216Z" style="fill:#ffa412;fill-rule:nonzero;"/><rect x="771.866" y="647.469" width="5.719" height="46.977" style="fill:#ffa412;fill-rule:nonzero;"/><rect x="752.517" y="647.469" width="5.719" height="46.977" style="fill:#ffa412;fill-rule:nonzero;"/><rect x="729.305" y="647.469" width="5.719" height="46.977" style="fill:#ffa412;fill-rule:nonzero;"/><rect x="693.72" y="647.469" width="5.719" height="46.977" style="fill:#ffa412;fill-rule:nonzero;"/><rect x="656.095" y="647.469" width="5.719" height="46.977" style="fill:#ffa412;fill-rule:nonzero;"/><rect x="598.417" y="647.469" width="5.719" height="46.977" style="fill:#ffa412;fill-rule:nonzero;"/><rect x="544.401" y="647.469" width="5.719" height="46.977" style="fill:#ffa412;fill-rule:nonzero;"/><rect x="496.184" y="647.469" width="5.717" height="46.977" style="fill:#ffa412;fill-rule:nonzero;"/><rect x="790.295" y="647.469" width="5.719" height="46.977" style="fill:#ffa412;fill-rule:nonzero;"/><rect x="802.469" y="647.469" width="5.719" height="46.977" style="fill:#ffa412;fill-rule:nonzero;"/><rect x="814.213" y="647.469" width="5.719" height="46.977" style="fill:#ffa412;fill-rule:nonzero;"/><path d="M828.778,647.638l-0,46.639c-0.69,0.108 -1.411,0.169 -2.146,0.169l-3.573,-0l0,-46.977l3.573,0c0.735,0 1.456,0.061 2.146,0.169Z" style="fill:#ffa412;fill-rule:nonzero;"/><path d="M836.72,651.992l-0,37.946c-1.38,1.717 -3.373,3.067 -5.703,3.818l-0,-45.597c2.33,0.767 4.323,2.116 5.703,3.833Z" style="fill:#ffa412;fill-rule:nonzero;"/><path d="M801.825,610.795l-0,26.524c-0,2.132 -0.782,4.079 -2.086,5.719c-1.395,1.702 -3.388,3.067 -5.718,3.818c-0.706,0.245 -1.472,0.414 -2.223,0.521c-0.246,0.031 -0.476,0.077 -0.706,0.107l-0.107,0c-0.23,0.031 -0.46,0.046 -0.69,0.046c-0.215,0.016 -0.429,0.016 -0.659,0.016l-503.13,-0c-6.071,-0 -11.161,-3.787 -12.051,-8.693c-0.061,-0.322 -0.092,-0.675 -0.107,-0.997l0,-27.582c0.015,-0.138 0.031,-0.291 0.031,-0.429c0.49,-4.339 4.231,-7.896 9.137,-8.939l0.353,-0.092c0.859,-0.138 1.733,-0.23 2.637,-0.23l503.13,0c0.383,0 0.751,0.016 1.088,0.031c0.169,0.015 0.338,0.015 0.476,0.061l0.015,0c0.199,0.016 0.383,0.031 0.583,0.062c0.751,0.107 1.517,0.291 2.223,0.521c2.33,0.767 4.323,2.116 5.718,3.848c1.304,1.625 2.086,3.588 2.086,5.688Z" style="fill:#ffb93e;fill-rule:nonzero;"/><path d="M554.75,647.546l-269.547,-0c-4.998,-0 -9.215,-3.235 -10.456,-7.574c-0.123,-0.368 -0.215,-0.736 -0.292,-1.119c-0.061,-0.322 -0.092,-0.675 -0.107,-0.997l0,-27.582c0.015,-0.138 0.031,-0.291 0.031,-0.429c0.444,-4.416 3.909,-8.049 8.448,-9.015c0.138,-0.031 0.291,-0.062 0.459,-0.092c0.629,-0.108 1.258,-0.154 1.917,-0.154l236.448,0l0.092,0.338c3.817,13.783 12.618,32.641 32.902,46.562l0.105,0.062Z" style="fill:#ffa412;fill-rule:nonzero;"/><rect x="734.87" y="600.584" width="5.719" height="46.961" style="fill:#ffa412;fill-rule:nonzero;"/><rect x="715.522" y="600.584" width="5.719" height="46.961" style="fill:#ffa412;fill-rule:nonzero;"/><rect x="692.309" y="600.584" width="5.719" height="46.961" style="fill:#ffa412;fill-rule:nonzero;"/><rect x="656.724" y="600.584" width="5.719" height="46.961" style="fill:#ffa412;fill-rule:nonzero;"/><rect x="619.1" y="600.584" width="5.719" height="46.961" style="fill:#ffa412;fill-rule:nonzero;"/><rect x="561.421" y="600.584" width="5.719" height="46.961" style="fill:#ffa412;fill-rule:nonzero;"/><rect x="507.423" y="600.584" width="5.719" height="46.961" style="fill:#ffa412;fill-rule:nonzero;"/><rect x="459.204" y="600.584" width="5.704" height="46.961" style="fill:#ffa412;fill-rule:nonzero;"/><rect x="753.299" y="600.584" width="5.719" height="46.961" style="fill:#ffa412;fill-rule:nonzero;"/><rect x="765.473" y="600.584" width="5.719" height="46.961" style="fill:#ffa412;fill-rule:nonzero;"/><rect x="777.232" y="600.584" width="5.719" height="46.961" style="fill:#ffa412;fill-rule:nonzero;"/><path d="M791.798,600.738l-0,46.654c-0.706,0.108 -1.426,0.154 -2.147,0.154l-3.572,-0l-0,-46.962l3.572,0c0.721,0 1.441,0.046 2.147,0.154Z" style="fill:#ffa412;fill-rule:nonzero;"/><path d="M799.739,605.092l0,37.946c-1.395,1.717 -3.388,3.067 -5.718,3.818l-0,-45.582c2.33,0.752 4.323,2.101 5.718,3.818Z" style="fill:#ffa412;fill-rule:nonzero;"/><path d="M800.752,564.171l-0,26.524c-0,2.101 -0.752,4.063 -2.07,5.704c-1.395,1.717 -3.373,3.066 -5.719,3.833c-0.552,0.168 -1.15,0.322 -1.748,0.444l-0.015,0c-0.138,0.031 -0.307,0.046 -0.476,0.077c-0.689,0.092 -1.395,0.169 -2.131,0.169l-503.145,-0c-0.521,-0 -1.058,-0.046 -1.579,-0.108c-0.199,-0.015 -0.383,-0.03 -0.583,-0.076c-5.12,-0.782 -9.168,-4.278 -9.904,-8.647c-0.046,-0.292 -0.077,-0.583 -0.092,-0.874c0,-0.184 -0.015,-0.338 -0.015,-0.522l-0,-26.524c-0,-0.184 0.015,-0.352 0.015,-0.536c0.015,-0.322 0.046,-0.675 0.107,-0.982c0.89,-4.921 5.98,-8.708 12.051,-8.708l503.145,-0c0.322,-0 0.629,0.015 0.966,0.031l0.108,0.015l0.291,0.015c0.138,0.016 0.306,0.031 0.46,0.046l0.306,0.062c0.782,0.107 1.518,0.291 2.239,0.521l0.322,0.092l0.306,0.122l0.231,0.092l0.383,0.154l0.031,0.015l0.275,0.138c0.859,0.399 1.656,0.889 2.362,1.441c0.214,0.169 0.414,0.338 0.582,0.491c0.184,0.169 0.368,0.337 0.537,0.521l0.23,0.246c0.168,0.153 0.306,0.337 0.46,0.505c1.318,1.626 2.07,3.603 2.07,5.719Z" style="fill:#ffb93e;fill-rule:nonzero;"/><path d="M553.694,600.922l-269.534,-0c-0.23,-0 -0.444,-0.016 -0.644,-0.016c-0.245,-0.03 -0.475,-0.046 -0.689,-0.076c-4.876,-0.552 -8.786,-4.201 -9.445,-8.739c-0.046,-0.292 -0.077,-0.583 -0.092,-0.874c0,-0.184 -0.015,-0.338 -0.015,-0.522l-0,-26.524c-0,-0.184 0.015,-0.352 0.015,-0.536c0.015,-0.322 0.046,-0.675 0.107,-0.982c0.077,-0.383 0.169,-0.751 0.292,-1.119c1.242,-4.354 5.458,-7.589 10.471,-7.589l236.418,-0c0.122,0.368 0.214,0.767 0.337,1.15c3.908,13.614 12.679,31.875 32.302,45.489c0.155,0.108 0.309,0.215 0.477,0.338Z" style="fill:#ffa412;fill-rule:nonzero;"/><rect x="733.812" y="553.945" width="5.719" height="46.977" style="fill:#ffa412;fill-rule:nonzero;"/><rect x="714.464" y="553.945" width="5.719" height="46.977" style="fill:#ffa412;fill-rule:nonzero;"/><rect x="691.251" y="553.945" width="5.719" height="46.977" style="fill:#ffa412;fill-rule:nonzero;"/><rect x="655.666" y="553.945" width="5.719" height="46.977" style="fill:#ffa412;fill-rule:nonzero;"/><rect x="618.042" y="553.945" width="5.719" height="46.977" style="fill:#ffa412;fill-rule:nonzero;"/><rect x="560.364" y="553.945" width="5.719" height="46.977" style="fill:#ffa412;fill-rule:nonzero;"/><rect x="506.365" y="553.945" width="5.719" height="46.977" style="fill:#ffa412;fill-rule:nonzero;"/><rect x="458.131" y="553.945" width="5.734" height="46.977" style="fill:#ffa412;fill-rule:nonzero;"/><rect x="752.241" y="553.945" width="5.719" height="46.977" style="fill:#ffa412;fill-rule:nonzero;"/><rect x="764.415" y="553.945" width="5.719" height="46.977" style="fill:#ffa412;fill-rule:nonzero;"/><rect x="776.175" y="553.945" width="5.719" height="46.977" style="fill:#ffa412;fill-rule:nonzero;"/><path d="M790.74,554.114l-0,46.639c-0.705,0.107 -1.426,0.153 -2.147,0.153l-3.572,0l0,-46.961l3.572,-0c0.721,-0 1.442,0.061 2.147,0.169Z" style="fill:#ffa412;fill-rule:nonzero;"/><path d="M798.682,558.452l-0,37.947c-1.395,1.717 -3.389,3.066 -5.719,3.833l-0,-45.597c2.33,0.751 4.324,2.1 5.719,3.817Z" style="fill:#ffa412;fill-rule:nonzero;"/><path d="M826.754,518.36l0,26.524c0,2.116 -0.766,4.063 -2.07,5.703c-1.41,1.717 -3.403,3.082 -5.718,3.833c-0.721,0.23 -1.472,0.414 -2.239,0.506c-0.352,0.077 -0.705,0.107 -1.058,0.138c-0.352,0.015 -0.72,0.031 -1.088,0.031l-503.13,-0c-2.024,-0 -3.925,-0.414 -5.611,-1.15c-3.557,-1.564 -6.103,-4.584 -6.501,-8.095c-0.031,-0.138 -0.046,-0.292 -0.046,-0.46c-0,-0.154 -0.015,-0.338 -0.015,-0.506l-0,-26.524c-0,-0.184 0.015,-0.368 0.015,-0.522c0.015,-0.337 0.046,-0.674 0.107,-0.996c0.89,-4.922 5.98,-8.709 12.051,-8.709l503.13,0c0.736,0 1.456,0.046 2.146,0.169c0.767,0.107 1.518,0.276 2.239,0.521c2.315,0.767 4.308,2.116 5.718,3.818c1.304,1.64 2.07,3.588 2.07,5.719Z" style="fill:#ffb93e;fill-rule:nonzero;"/><path d="M579.697,555.095l-269.565,-0c-1.793,-0 -3.495,-0.414 -4.998,-1.15c-3.173,-1.564 -5.458,-4.584 -5.795,-8.095c-0.031,-0.138 -0.046,-0.292 -0.046,-0.46c-0,-0.154 -0.015,-0.338 -0.015,-0.506l-0,-26.524c-0,-0.184 0.015,-0.368 0.015,-0.522c0.015,-0.337 0.046,-0.674 0.107,-0.996c0.077,-0.383 0.169,-0.751 0.292,-1.119c1.241,-4.355 5.458,-7.59 10.44,-7.59l236.464,0c3.664,13.446 12.081,31.906 31.43,45.812c0.567,0.399 1.104,0.767 1.671,1.15Z" style="fill:#ffa412;fill-rule:nonzero;"/><rect x="759.815" y="508.133" width="5.719" height="46.977" style="fill:#ffa412;fill-rule:nonzero;"/><rect x="740.467" y="508.133" width="5.703" height="46.977" style="fill:#ffa412;fill-rule:nonzero;"/><rect x="717.254" y="508.133" width="5.719" height="46.977" style="fill:#ffa412;fill-rule:nonzero;"/><rect x="681.669" y="508.133" width="5.719" height="46.977" style="fill:#ffa412;fill-rule:nonzero;"/><rect x="644.045" y="508.133" width="5.719" height="46.977" style="fill:#ffa412;fill-rule:nonzero;"/><rect x="586.366" y="508.133" width="5.719" height="46.977" style="fill:#ffa412;fill-rule:nonzero;"/><rect x="532.352" y="508.133" width="5.719" height="46.977" style="fill:#ffa412;fill-rule:nonzero;"/><rect x="484.134" y="508.133" width="5.719" height="46.977" style="fill:#ffa412;fill-rule:nonzero;"/><rect x="778.244" y="508.133" width="5.719" height="46.977" style="fill:#ffa412;fill-rule:nonzero;"/><rect x="790.418" y="508.133" width="5.719" height="46.977" style="fill:#ffa412;fill-rule:nonzero;"/><rect x="802.162" y="508.133" width="5.719" height="46.977" style="fill:#ffa412;fill-rule:nonzero;"/><path d="M816.727,508.302l0,46.639c-0.69,0.108 -1.41,0.154 -2.146,0.154l-3.573,-0l0,-46.962l3.573,0c0.736,0 1.456,0.062 2.146,0.169Z" style="fill:#ffa412;fill-rule:nonzero;"/><path d="M824.669,512.641l-0,37.946c-1.38,1.717 -3.373,3.067 -5.719,3.818l0,-45.582c2.346,0.752 4.339,2.101 5.719,3.818Z" style="fill:#ffa412;fill-rule:nonzero;"/><path d="M867.874,471.383l0,26.524c0,2.116 -0.767,4.063 -2.085,5.703c-0.184,0.215 -0.353,0.43 -0.552,0.629c-1.334,1.426 -3.112,2.545 -5.151,3.204c-0.736,0.23 -1.457,0.414 -2.223,0.522c-0.721,0.107 -1.426,0.168 -2.162,0.168l-503.13,0c-6.071,0 -11.162,-3.787 -12.051,-8.708c-0.076,-0.307 -0.107,-0.659 -0.122,-0.981c-0,-0.184 -0.016,-0.353 -0.016,-0.537l0,-26.524c0,-0.184 0.016,-0.337 0.016,-0.521c0.322,-4.983 4.906,-9.046 10.716,-9.644c0.476,-0.046 0.966,-0.061 1.457,-0.061l503.13,-0c0.736,-0 1.441,0.046 2.162,0.168c0.766,0.108 1.487,0.276 2.223,0.522c2.039,0.659 3.817,1.778 5.151,3.204c0.199,0.199 0.368,0.414 0.552,0.613c1.318,1.641 2.085,3.619 2.085,5.719Z" style="fill:#ffb93e;fill-rule:nonzero;"/><path d="M620.802,508.133l-269.549,0c-4.999,0 -9.215,-3.235 -10.441,-7.589c-0.123,-0.368 -0.23,-0.736 -0.292,-1.119c-0.076,-0.307 -0.107,-0.659 -0.122,-0.981c-0,-0.184 -0.016,-0.353 -0.016,-0.537l0,-26.524c0,-0.184 0.016,-0.337 0.016,-0.521c0.03,-0.476 0.107,-0.92 0.214,-1.365c0.874,-4.339 4.661,-7.727 9.353,-8.279c0.429,-0.046 0.858,-0.061 1.288,-0.061l236.462,-0l0.016,0.061c3.787,13.845 12.587,32.917 33.071,46.915Z" style="fill:#ffa412;fill-rule:nonzero;"/><rect x="800.935" y="461.157" width="5.719" height="46.977" style="fill:#ffa412;fill-rule:nonzero;"/><rect x="781.571" y="461.157" width="5.719" height="46.977" style="fill:#ffa412;fill-rule:nonzero;"/><rect x="758.359" y="461.157" width="5.719" height="46.977" style="fill:#ffa412;fill-rule:nonzero;"/><rect x="722.789" y="461.157" width="5.719" height="46.977" style="fill:#ffa412;fill-rule:nonzero;"/><rect x="685.165" y="461.157" width="5.719" height="46.977" style="fill:#ffa412;fill-rule:nonzero;"/><rect x="627.486" y="461.157" width="5.719" height="46.977" style="fill:#ffa412;fill-rule:nonzero;"/><rect x="573.472" y="461.157" width="5.719" height="46.977" style="fill:#ffa412;fill-rule:nonzero;"/><rect x="525.252" y="461.157" width="5.719" height="46.977" style="fill:#ffa412;fill-rule:nonzero;"/><rect x="819.364" y="461.157" width="5.719" height="46.977" style="fill:#ffa412;fill-rule:nonzero;"/><rect x="831.538" y="461.157" width="5.719" height="46.977" style="fill:#ffa412;fill-rule:nonzero;"/><rect x="843.282" y="461.157" width="5.719" height="46.977" style="fill:#ffa412;fill-rule:nonzero;"/><path d="M857.847,461.325l0,46.64c-0.705,0.107 -1.41,0.168 -2.146,0.168l-3.572,0l-0,-46.976l3.572,-0c0.736,-0 1.441,0.061 2.146,0.168Z" style="fill:#ffa412;fill-rule:nonzero;"/><path d="M865.789,465.68l0,37.93c-1.38,1.718 -3.373,3.067 -5.719,3.833l0,-45.596c2.346,0.751 4.339,2.115 5.719,3.833Z" style="fill:#ffa412;fill-rule:nonzero;"/><path d="M801.825,424.498l-0,26.524c-0,2.101 -0.782,4.063 -2.086,5.688c-1.395,1.733 -3.388,3.082 -5.718,3.833c-0.706,0.23 -1.472,0.414 -2.223,0.537c-0.23,0.031 -0.46,0.061 -0.706,0.077l-0.046,-0l-0.352,0.03l-0.184,0.016l-0.276,0.015l-503.728,-0c-6.071,-0 -11.161,-3.787 -12.051,-8.693c-0.061,-0.307 -0.092,-0.659 -0.107,-0.981l0,-27.582c0.015,-0.322 0.046,-0.675 0.107,-0.997c0.89,-4.906 5.98,-8.693 12.051,-8.693l503.13,-0c0.23,-0 0.444,-0 0.659,0.015l0.062,0c0.199,0.016 0.383,0.016 0.567,0.046c0.291,0.015 0.582,0.046 0.874,0.092c0.751,0.123 1.517,0.291 2.223,0.537c0.291,0.092 0.582,0.199 0.858,0.306l0.184,0.092l0.015,0c1.886,0.782 3.481,1.963 4.661,3.419c1.304,1.626 2.086,3.588 2.086,5.719Z" style="fill:#ffb93e;fill-rule:nonzero;"/><path d="M554.75,461.218l-269.547,-0c-4.998,-0 -9.215,-3.22 -10.456,-7.574c-0.123,-0.368 -0.215,-0.736 -0.292,-1.119c-0.061,-0.307 -0.092,-0.659 -0.107,-0.981l0,-27.582c0.015,-0.322 0.046,-0.675 0.107,-0.997c0.077,-0.383 0.169,-0.751 0.292,-1.119c1.241,-4.354 5.458,-7.574 10.456,-7.574l236.448,-0c0.092,0.337 0.199,0.705 0.306,1.088c3.925,13.692 12.772,32.151 32.688,45.797l0.105,0.061Z" style="fill:#ffa412;fill-rule:nonzero;"/><rect x="734.87" y="414.257" width="5.719" height="46.977" style="fill:#ffa412;fill-rule:nonzero;"/><rect x="715.522" y="414.257" width="5.719" height="46.977" style="fill:#ffa412;fill-rule:nonzero;"/><rect x="692.309" y="414.257" width="5.719" height="46.977" style="fill:#ffa412;fill-rule:nonzero;"/><rect x="656.724" y="414.257" width="5.719" height="46.977" style="fill:#ffa412;fill-rule:nonzero;"/><rect x="619.1" y="414.257" width="5.719" height="46.977" style="fill:#ffa412;fill-rule:nonzero;"/><rect x="561.421" y="414.257" width="5.719" height="46.977" style="fill:#ffa412;fill-rule:nonzero;"/><rect x="507.423" y="414.257" width="5.719" height="46.977" style="fill:#ffa412;fill-rule:nonzero;"/><rect x="459.204" y="414.257" width="5.704" height="46.977" style="fill:#ffa412;fill-rule:nonzero;"/><rect x="753.299" y="414.257" width="5.719" height="46.977" style="fill:#ffa412;fill-rule:nonzero;"/><rect x="765.473" y="414.257" width="5.719" height="46.977" style="fill:#ffa412;fill-rule:nonzero;"/><rect x="777.232" y="414.257" width="5.719" height="46.977" style="fill:#ffa412;fill-rule:nonzero;"/><path d="M791.798,414.425l-0,46.64c-0.706,0.107 -1.426,0.168 -2.147,0.168l-3.572,0l-0,-46.976l3.572,-0c0.721,-0 1.441,0.061 2.147,0.168Z" style="fill:#ffa412;fill-rule:nonzero;"/><path d="M799.739,418.779l0,37.931c-1.395,1.733 -3.388,3.082 -5.718,3.833l-0,-45.597c2.33,0.767 4.323,2.116 5.718,3.833Z" style="fill:#ffa412;fill-rule:nonzero;"/><path d="M838.805,378.595l-0,26.539c-0,2.101 -0.751,4.063 -2.085,5.688c-1.395,1.733 -3.388,3.082 -5.703,3.833c-0.721,0.23 -1.457,0.414 -2.239,0.537c-0.69,0.092 -1.411,0.168 -2.146,0.168l-503.13,0c-1.963,0 -3.802,-0.398 -5.443,-1.088c-3.419,-1.457 -5.964,-4.232 -6.593,-7.543c-0.046,-0.215 -0.076,-0.43 -0.092,-0.66l-0.03,-0.414c-0,-0.184 -0.016,-0.368 -0.016,-0.521l0,-26.539c0,-0.169 0.016,-0.338 0.016,-0.522c0.015,-0.306 0.046,-0.628 0.092,-0.92c0.782,-4.538 5.166,-8.156 10.625,-8.708c0.475,-0.046 0.95,-0.061 1.441,-0.061l503.13,-0c0.444,-0 0.904,0.015 1.349,0.061c0.276,0.015 0.536,0.046 0.797,0.092c0.782,0.123 1.518,0.291 2.239,0.537c2.315,0.751 4.308,2.1 5.703,3.817c1.334,1.625 2.085,3.588 2.085,5.704Z" style="fill:#ffb93e;fill-rule:nonzero;"/><path d="M591.748,415.36l-269.565,0c-1.732,0 -3.388,-0.398 -4.829,-1.088c-3.082,-1.457 -5.32,-4.232 -5.888,-7.543c-0.046,-0.215 -0.076,-0.43 -0.092,-0.66l-0.03,-0.414c-0,-0.184 -0.016,-0.368 -0.016,-0.521l0,-26.539c0,-0.169 0.016,-0.338 0.016,-0.522c0.015,-0.306 0.046,-0.628 0.092,-0.92c0.69,-4.538 4.615,-8.156 9.475,-8.708c0.429,-0.046 0.858,-0.061 1.272,-0.061l236.463,-0l0.016,0.061c3.695,13.461 12.156,31.936 31.537,45.827c0.506,0.352 1.012,0.72 1.549,1.088Z" style="fill:#ffa412;fill-rule:nonzero;"/><rect x="771.866" y="368.368" width="5.719" height="46.977" style="fill:#ffa412;fill-rule:nonzero;"/><rect x="752.517" y="368.368" width="5.719" height="46.977" style="fill:#ffa412;fill-rule:nonzero;"/><rect x="729.305" y="368.368" width="5.719" height="46.977" style="fill:#ffa412;fill-rule:nonzero;"/><rect x="693.72" y="368.368" width="5.719" height="46.977" style="fill:#ffa412;fill-rule:nonzero;"/><rect x="656.095" y="368.368" width="5.719" height="46.977" style="fill:#ffa412;fill-rule:nonzero;"/><rect x="598.417" y="368.368" width="5.719" height="46.977" style="fill:#ffa412;fill-rule:nonzero;"/><rect x="544.401" y="368.368" width="5.719" height="46.977" style="fill:#ffa412;fill-rule:nonzero;"/><rect x="496.184" y="368.368" width="5.717" height="46.977" style="fill:#ffa412;fill-rule:nonzero;"/><rect x="790.295" y="368.368" width="5.719" height="46.977" style="fill:#ffa412;fill-rule:nonzero;"/><rect x="802.469" y="368.368" width="5.719" height="46.977" style="fill:#ffa412;fill-rule:nonzero;"/><rect x="814.213" y="368.368" width="5.719" height="46.977" style="fill:#ffa412;fill-rule:nonzero;"/><path d="M828.778,368.537l-0,46.639c-0.69,0.108 -1.411,0.169 -2.146,0.169l-3.573,0l0,-46.977l3.573,0c0.735,0 1.456,0.062 2.146,0.169Z" style="fill:#ffa412;fill-rule:nonzero;"/><path d="M836.72,372.891l-0,37.946c-1.38,1.718 -3.373,3.067 -5.703,3.818l-0,-45.597c2.33,0.767 4.323,2.116 5.703,3.833Z" style="fill:#ffa412;fill-rule:nonzero;"/><path d="M854.566,331.71l0,26.524c0,2.1 -0.782,4.063 -2.1,5.703c-0.337,0.43 -0.721,0.828 -1.15,1.212c-1.242,1.15 -2.791,2.039 -4.554,2.621c-0.705,0.23 -1.472,0.414 -2.223,0.506c-0.245,0.046 -0.475,0.077 -0.705,0.108l-0.307,0.015c-0.368,0.031 -0.751,0.046 -1.15,0.046l-503.129,-0c-0.445,-0 -0.89,-0.015 -1.334,-0.061c-5.489,-0.522 -9.889,-4.094 -10.717,-8.648c-0.062,-0.322 -0.107,-0.659 -0.123,-0.996l0,-27.551c0.016,-0.338 0.061,-0.675 0.123,-0.997c0.889,-4.921 5.979,-8.708 12.051,-8.708l503.129,-0c0.736,-0 1.457,0.046 2.162,0.168c0.751,0.107 1.518,0.276 2.223,0.521c2.331,0.736 4.324,2.116 5.704,3.818c1.318,1.641 2.1,3.588 2.1,5.719Z" style="fill:#ffb93e;fill-rule:nonzero;"/><path d="M607.478,368.445l-269.534,-0c-0.398,-0 -0.797,-0.015 -1.18,-0.061c-4.906,-0.506 -8.847,-4.094 -9.567,-8.648c-0.062,-0.322 -0.107,-0.659 -0.123,-0.996l0,-27.551c0.016,-0.338 0.061,-0.675 0.123,-0.997c0.061,-0.383 0.168,-0.751 0.291,-1.119c1.242,-4.354 5.443,-7.589 10.456,-7.589l236.448,-0c3.772,13.798 12.541,32.886 32.994,46.9l0.092,0.061Z" style="fill:#ffa412;fill-rule:nonzero;"/><rect x="787.612" y="321.484" width="5.719" height="46.961" style="fill:#ffa412;fill-rule:nonzero;"/><rect x="768.263" y="321.484" width="5.719" height="46.961" style="fill:#ffa412;fill-rule:nonzero;"/><rect x="745.051" y="321.484" width="5.719" height="46.961" style="fill:#ffa412;fill-rule:nonzero;"/><rect x="709.466" y="321.484" width="5.719" height="46.961" style="fill:#ffa412;fill-rule:nonzero;"/><rect x="671.841" y="321.484" width="5.719" height="46.961" style="fill:#ffa412;fill-rule:nonzero;"/><rect x="614.163" y="321.484" width="5.719" height="46.961" style="fill:#ffa412;fill-rule:nonzero;"/><rect x="560.163" y="321.484" width="5.719" height="46.961" style="fill:#ffa412;fill-rule:nonzero;"/><rect x="511.93" y="321.484" width="5.719" height="46.961" style="fill:#ffa412;fill-rule:nonzero;"/><rect x="806.041" y="321.484" width="5.719" height="46.961" style="fill:#ffa412;fill-rule:nonzero;"/><rect x="818.214" y="321.484" width="5.719" height="46.961" style="fill:#ffa412;fill-rule:nonzero;"/><rect x="829.974" y="321.484" width="5.703" height="46.961" style="fill:#ffa412;fill-rule:nonzero;"/><path d="M844.524,321.637l-0,46.655c-0.69,0.107 -1.411,0.153 -2.147,0.153l-3.572,-0l-0,-46.961l3.572,-0c0.736,-0 1.457,0.046 2.147,0.153Z" style="fill:#ffa412;fill-rule:nonzero;"/><path d="M852.466,325.991l-0,37.946c-1.38,1.718 -3.373,3.067 -5.704,3.818l0,-45.582c2.331,0.752 4.324,2.101 5.704,3.818Z" style="fill:#ffa412;fill-rule:nonzero;"/><path d="M21.894,584.762c-0,-138.615 112.367,-250.967 250.967,-250.967c138.615,0 250.982,112.352 250.982,250.967c0,138.6 -112.367,250.967 -250.982,250.967c-138.6,-0 -250.967,-112.367 -250.967,-250.967Z" style="fill:#e2810e;fill-rule:nonzero;"/><path d="M478.829,834.196l-140.885,-0c-3.832,-0 -7.19,-1.886 -9.122,-4.723c33.914,-7.727 65.222,-22.323 92.359,-42.239l90.749,0l0,9.491c-9.919,13.614 -21.02,26.156 -33.101,37.471Zm38.82,-45.597l-0,-1.365l0.92,0c-0.291,0.46 -0.6,0.905 -0.92,1.365Z" style="fill:#f09210;fill-rule:nonzero;"/><path d="M511.93,796.725l0,-9.491l5.719,0l-0,1.365c-1.84,2.759 -3.756,5.458 -5.719,8.126Z" style="fill:#f09210;fill-rule:nonzero;"/><path d="M531.862,765.202c-5.535,-8.31 -8.91,-16.696 -10.947,-23.779l22.445,-0c-3.465,8.141 -7.313,16.098 -11.498,23.779Z" style="fill:#f09d26;fill-rule:nonzero;"/><path d="M518.569,787.234l-97.388,0c13.385,-9.812 25.773,-20.943 36.95,-33.178l-0,33.178l5.734,0l-0,-39.648c1.717,-2.024 3.419,-4.094 5.09,-6.163l37.41,-0l-0,45.811l5.719,0l-0,-45.811l8.831,-0c2.037,7.083 5.412,15.469 10.947,23.779c-4.125,7.59 -8.557,14.934 -13.293,22.032Z" style="fill:#f09210;fill-rule:nonzero;"/><rect x="506.365" y="741.423" width="5.719" height="45.812" style="fill:#f09210;fill-rule:nonzero;"/><path d="M463.865,787.234l-5.734,0l-0,-33.178c1.947,-2.116 3.863,-4.278 5.734,-6.47l-0,39.648Z" style="fill:#f09210;fill-rule:nonzero;"/><path d="M553.894,712.783c-3.511,-6.501 -5.796,-12.833 -7.298,-18.337l12.296,-0c-1.459,6.194 -3.143,12.311 -4.998,18.337Z" style="fill:#f09d26;fill-rule:nonzero;"/><path d="M543.36,741.423l-5.289,-0l0,-46.977l-5.719,-0l0,46.977l-42.5,-0l0,-30.465c3.128,-5.381 6.072,-10.885 8.816,-16.512l47.928,-0c1.502,5.504 3.787,11.836 7.298,18.337c-2.898,9.398 -6.256,18.567 -10.027,27.474c-0.154,0.384 -0.322,0.782 -0.507,1.166Zm-59.226,-0l-15.179,-0c5.412,-6.777 10.472,-13.814 15.179,-21.128l-0,21.128Z" style="fill:#f09210;fill-rule:nonzero;"/><rect x="532.352" y="694.446" width="5.719" height="46.977" style="fill:#f09210;fill-rule:nonzero;"/><path d="M489.852,741.423l-5.718,-0l-0,-21.128c1.977,-3.081 3.879,-6.194 5.718,-9.337l0,30.465Z" style="fill:#f09210;fill-rule:nonzero;"/><path d="M564.626,663.23c-2.76,-5.581 -4.661,-10.947 -5.964,-15.684l7.587,-0c-0.414,5.274 -0.949,10.502 -1.623,15.684Z" style="fill:#f09d26;fill-rule:nonzero;"/><path d="M558.892,694.446l-8.772,-0l0,-46.9l8.542,-0c1.303,4.737 3.204,10.103 5.964,15.684c-1.365,10.61 -3.281,21.036 -5.734,31.216Zm-14.491,-0l-42.499,-0l-0,-6.93c5.749,-12.787 10.457,-26.156 14.015,-39.97l28.484,-0l0,46.9Z" style="fill:#f09210;fill-rule:nonzero;"/><path d="M550.12,694.446l-5.719,-0l0,-46.9l5.719,-0l0,46.9Z" style="fill:#f09210;fill-rule:nonzero;"/><path d="M501.902,694.446l-3.234,-0c1.104,-2.285 2.193,-4.6 3.234,-6.93l-0,6.93Z" style="fill:#f09210;fill-rule:nonzero;"/><path d="M561.421,647.546l-6.671,-0l-0.105,-0.062c-18.293,-12.556 -27.245,-29.115 -31.615,-42.361c0.108,-1.396 0.2,-2.806 0.29,-4.201l38.101,-0l0,46.624Z" style="fill:#f09d26;fill-rule:nonzero;"/><path d="M554.75,647.546l-38.833,-0c3.539,-13.722 5.933,-27.889 7.113,-42.423c4.37,13.246 13.322,29.805 31.615,42.361l0.105,0.062Z" style="fill:#f09210;fill-rule:nonzero;"/><path d="M566.249,647.546l-4.828,-0l0,-46.624l4.844,-0c0.584,7.635 0.875,15.362 0.875,23.151c0,7.88 -0.291,15.684 -0.891,23.411l0,0.062Z" style="fill:#f09210;fill-rule:nonzero;"/><path d="M566.265,600.922l-12.571,-0c-0.168,-0.123 -0.322,-0.23 -0.477,-0.338c-17.093,-11.851 -25.94,-27.214 -30.524,-39.985c-0.184,-1.84 -0.368,-3.68 -0.598,-5.504l10.257,-0l0,0.015l5.719,0l0,-0.015l21.173,-0c0.399,1.656 0.752,3.327 1.12,4.998l-0,40.829l5.718,-0l0,-2.377c0,0.016 0,0.046 0.016,0.062c0.046,0.659 0.107,1.318 0.151,1.977l0.016,0.338Z" style="fill:#f09d26;fill-rule:nonzero;"/><path d="M553.694,600.922l-30.374,-0c0.339,-5.336 0.523,-10.733 0.523,-16.16c0,-8.141 -0.399,-16.206 -1.15,-24.163c4.584,12.771 13.431,28.134 30.524,39.985c0.155,0.108 0.309,0.215 0.477,0.338Z" style="fill:#f09210;fill-rule:nonzero;"/><path d="M566.082,600.922l-5.718,-0l-0,-40.798c2.713,12.495 4.63,25.328 5.718,38.421l0,2.377Z" style="fill:#f09210;fill-rule:nonzero;"/><path d="M559.244,555.095l-21.173,-0l0,-46.962l5.903,0c6.177,14.627 11.223,29.943 14.993,45.812c0.093,0.368 0.17,0.767 0.277,1.15Zm-26.892,-0l-10.257,-0c-1.901,-16.175 -5.335,-31.875 -10.165,-46.962l20.422,0l0,46.962Z" style="fill:#f09210;fill-rule:nonzero;"/><path d="M538.071,555.11l-5.719,0l0,-46.977l5.719,0l0,46.977Z" style="fill:#f09210;fill-rule:nonzero;"/><path d="M543.974,508.133l-32.044,0c-5.274,-16.435 -12.189,-32.135 -20.545,-46.915l16.038,-0l-0,0.015l5.718,0l0,-0.015l5.658,-0c2.206,3.327 4.37,6.715 6.453,10.18l-0,36.735l5.719,0l-0,-26.83c4.77,8.647 9.124,17.601 13.003,26.83Z" style="fill:#f09210;fill-rule:nonzero;"/><path d="M530.971,508.133l-5.719,0l-0,-36.735c1.979,3.251 3.88,6.532 5.719,9.905l-0,26.83Z" style="fill:#f09210;fill-rule:nonzero;"/><path d="M518.799,461.218l-5.658,-0l0,-8.157c1.917,2.668 3.787,5.367 5.61,8.096l0.048,0.061Zm-11.376,-0l-16.038,-0c-7.665,-13.492 -16.527,-26.233 -26.477,-38.038l-0,-7.82l15.439,0c9.705,9.246 18.766,19.288 27.076,30.035l-0,15.823Zm-48.219,-44.585c-0.399,-0.429 -0.782,-0.859 -1.165,-1.273l1.165,0l-0,1.273Z" style="fill:#f09210;fill-rule:nonzero;"/><path d="M513.141,461.233l-5.718,0l-0,-15.838c1.962,2.53 3.863,5.075 5.718,7.666l0,8.172Z" style="fill:#f09210;fill-rule:nonzero;"/><path d="M464.908,423.18c-1.871,-2.208 -3.772,-4.401 -5.704,-6.547l-0,-1.273l5.704,0l-0,7.82Z" style="fill:#f09210;fill-rule:nonzero;"/><path d="M480.347,415.36l-22.308,0c-16.804,-18.352 -36.291,-34.205 -57.847,-46.915l10.579,-0c25.083,11.208 48.126,26.769 68.395,45.827c0.399,0.352 0.782,0.72 1.181,1.088Z" style="fill:#f09210;fill-rule:nonzero;"/><path d="M410.771,368.445l-10.579,-0c-7.528,-4.446 -15.301,-8.509 -23.305,-12.158c11.576,3.174 22.845,7.221 33.746,12.097l0.138,0.061Z" style="fill:#f09210;fill-rule:nonzero;"/><path d="M328.822,829.473c-0.598,-0.874 -1.043,-1.839 -1.334,-2.851c-0.123,-0.368 -0.23,-0.736 -0.291,-1.12c-0.062,-0.322 -0.107,-0.674 -0.123,-0.996l0,-27.582c0.016,-0.337 0.061,-0.675 0.123,-0.997c0.061,-0.368 0.168,-0.751 0.291,-1.104c1.242,-4.354 5.443,-7.589 10.456,-7.589l-53.784,0c-5.013,0 -9.229,-3.25 -10.471,-7.589c-0.123,-0.368 -0.215,-0.736 -0.292,-1.119c-0.061,-0.322 -0.092,-0.66 -0.107,-0.982c0,-0.184 -0.015,-0.368 -0.015,-0.536l-0,-26.524c-0,-0.184 0.015,-0.353 0.015,-0.522c0.015,-0.337 0.046,-0.674 0.107,-0.996c0.077,-0.368 0.169,-0.751 0.292,-1.104c1.242,-4.37 5.458,-7.605 10.471,-7.605l20.974,0c-3.173,-1.563 -5.458,-4.568 -5.795,-8.079c-0.031,-0.154 -0.046,-0.292 -0.046,-0.46c-0,-0.169 -0.015,-0.353 -0.015,-0.522l-0,-26.524c-0,-0.168 0.015,-0.352 0.015,-0.536c0.015,-0.322 0.046,-0.66 0.107,-0.982c0.077,-0.383 0.169,-0.751 0.292,-1.119c1.241,-4.354 5.458,-7.589 10.44,-7.589l12.051,-0c-4.983,-0 -9.199,-3.235 -10.441,-7.589c-0.122,-0.368 -0.214,-0.736 -0.291,-1.104c-0.061,-0.322 -0.092,-0.66 -0.107,-0.997c-0,-0.184 -0.016,-0.368 -0.016,-0.521l0,-26.524c0,-0.184 0.016,-0.368 0.016,-0.537c0.015,-0.306 0.046,-0.628 0.092,-0.92c0.69,-4.538 4.615,-8.141 9.475,-8.708l-35.708,-0c-4.998,-0 -9.215,-3.235 -10.456,-7.574c-0.123,-0.368 -0.215,-0.736 -0.292,-1.119c-0.061,-0.322 -0.092,-0.675 -0.107,-0.997l0,-27.582c0.015,-0.138 0.031,-0.291 0.031,-0.429c0.444,-4.416 3.909,-8.049 8.448,-9.015c-4.876,-0.552 -8.786,-4.201 -9.445,-8.739c-0.046,-0.292 -0.077,-0.583 -0.092,-0.874c0,-0.184 -0.015,-0.338 -0.015,-0.522l-0,-26.524c-0,-0.184 0.015,-0.352 0.015,-0.536c0.015,-0.322 0.046,-0.675 0.107,-0.982c0.077,-0.383 0.169,-0.751 0.292,-1.119c1.242,-4.354 5.458,-7.589 10.471,-7.589l20.974,-0c-3.173,-1.564 -5.458,-4.584 -5.795,-8.095c-0.031,-0.138 -0.046,-0.292 -0.046,-0.46c-0,-0.154 -0.015,-0.338 -0.015,-0.506l-0,-26.524c-0,-0.184 0.015,-0.368 0.015,-0.522c0.015,-0.337 0.046,-0.674 0.107,-0.996c0.077,-0.383 0.169,-0.751 0.292,-1.119c1.241,-4.355 5.458,-7.59 10.44,-7.59l41.121,0c-4.999,0 -9.215,-3.235 -10.441,-7.589c-0.123,-0.368 -0.23,-0.736 -0.292,-1.119c-0.076,-0.307 -0.107,-0.659 -0.122,-0.981c-0,-0.184 -0.016,-0.353 -0.016,-0.537l0,-26.524c0,-0.184 0.016,-0.337 0.016,-0.521c0.03,-0.476 0.107,-0.92 0.214,-1.365c0.874,-4.339 4.661,-7.727 9.353,-8.279l-64.762,-0c-4.998,-0 -9.215,-3.22 -10.456,-7.574c-0.123,-0.368 -0.215,-0.736 -0.292,-1.119c-0.061,-0.307 -0.092,-0.659 -0.107,-0.981l0,-27.582c0.015,-0.322 0.046,-0.675 0.107,-0.997c0.077,-0.383 0.169,-0.751 0.292,-1.119c1.241,-4.354 5.458,-7.574 10.456,-7.574l32.151,-0c-3.082,-1.457 -5.32,-4.232 -5.888,-7.543c-0.046,-0.215 -0.076,-0.43 -0.092,-0.66l-0.03,-0.414c-0,-0.184 -0.016,-0.368 -0.016,-0.521l0,-26.539c0,-0.169 0.016,-0.338 0.016,-0.522c0.015,-0.306 0.046,-0.628 0.092,-0.92c0.69,-4.538 4.615,-8.156 9.475,-8.708c0.429,-0.046 0.858,-0.061 1.272,-0.061l14.581,-0c-4.906,-0.506 -8.847,-4.094 -9.567,-8.648c-0.062,-0.322 -0.107,-0.659 -0.123,-0.996l0,-10.318c17.111,0.797 33.761,3.48 49.813,7.865c8.004,3.649 15.777,7.712 23.305,12.158c21.556,12.71 41.043,28.563 57.847,46.915c0.383,0.414 0.766,0.844 1.165,1.273c1.932,2.146 3.833,4.339 5.704,6.547c9.95,11.805 18.812,24.546 26.477,38.038c8.356,14.78 15.271,30.48 20.545,46.915c4.83,15.087 8.264,30.787 10.165,46.962c0.23,1.824 0.414,3.664 0.598,5.504c0.751,7.957 1.15,16.022 1.15,24.163c0,5.427 -0.184,10.824 -0.523,16.16c-0.09,1.395 -0.182,2.805 -0.29,4.201c-1.18,14.534 -3.574,28.701 -7.113,42.423c-3.558,13.814 -8.266,27.183 -14.015,39.97c-1.041,2.33 -2.13,4.645 -3.234,6.93c-2.744,5.627 -5.688,11.131 -8.816,16.512c-1.839,3.143 -3.741,6.256 -5.718,9.337c-4.707,7.314 -9.767,14.351 -15.179,21.128c-1.671,2.069 -3.373,4.139 -5.09,6.163c-1.871,2.192 -3.787,4.354 -5.734,6.47c-11.177,12.235 -23.565,23.366 -36.95,33.178c-27.137,19.916 -58.445,34.512 -92.359,42.239Z" style="fill:#e2810e;fill-rule:nonzero;"/><path d="M-0,584.762c-0,-138.615 112.367,-250.967 250.967,-250.967c138.615,0 250.982,112.352 250.982,250.967c0,138.6 -112.367,250.967 -250.982,250.967c-138.6,-0 -250.967,-112.367 -250.967,-250.967Z" style="fill:#ffb93e;fill-rule:nonzero;"/><path d="M250.967,372.707c-118.561,0 -215.014,96.453 -215.014,215.014c0,118.561 96.453,215.029 215.014,215.029c118.561,-0 215.029,-96.468 215.029,-215.029c0,-118.561 -96.468,-215.014 -215.029,-215.014Zm-0,443.673c-61.067,-0 -118.5,-23.78 -161.674,-66.969c-43.19,-43.19 -66.985,-100.608 -66.985,-161.69c-0,-61.067 23.795,-118.5 66.985,-161.674c43.174,-43.19 100.607,-66.985 161.674,-66.985c61.082,-0 118.5,23.795 161.69,66.985c43.189,43.174 66.984,100.607 66.984,161.674c0,61.082 -23.795,118.5 -66.984,161.69c-43.19,43.189 -100.608,66.969 -161.69,66.969Z" style="fill:#ffa412;fill-rule:nonzero;"/><path d="M282.459,654.092c0.582,-4.936 0.398,-9.352 -0.552,-13.277c-0.936,-3.925 -2.806,-7.604 -5.612,-11.023c-2.79,-3.435 -6.531,-6.731 -11.223,-9.905c-4.691,-3.174 -10.487,-6.424 -17.401,-9.751c-11.867,-5.811 -22.584,-11.698 -32.121,-17.647c-9.551,-5.964 -17.555,-12.48 -24.025,-19.548c-6.47,-7.083 -11.192,-15.025 -14.182,-23.826c-2.989,-8.815 -3.817,-18.98 -2.437,-30.479c1.18,-9.981 4.032,-18.874 8.539,-26.678c4.508,-7.788 10.426,-14.35 17.724,-19.686c7.298,-5.32 15.746,-9.352 25.359,-12.081c9.628,-2.714 20.177,-3.941 31.691,-3.649l4.462,-37.686l30.341,3.603l-4.538,38.207c10.702,2.714 20.223,6.761 28.548,12.143c8.34,5.397 15.194,11.928 20.56,19.579c5.366,7.681 9.168,16.435 11.391,26.278c2.239,9.843 2.653,20.652 1.258,32.381l-54.796,-6.501c1.671,-14.089 -0.2,-24.99 -5.627,-32.733c-5.428,-7.712 -13.385,-12.204 -23.872,-13.446c-5.688,-0.69 -10.686,-0.475 -14.979,0.629c-4.293,1.088 -7.942,2.867 -10.916,5.304c-2.99,2.454 -5.336,5.474 -7.038,9.092c-1.717,3.603 -2.821,7.574 -3.342,11.928c-0.521,4.339 -0.353,8.341 0.491,12.021c0.843,3.664 2.637,7.19 5.381,10.548c2.745,3.358 6.516,6.669 11.33,9.92c4.799,3.25 10.825,6.73 18.077,10.441c11.713,6.04 22.323,12.066 31.798,18.06c9.475,6.011 17.447,12.588 23.902,19.717c6.455,7.129 11.177,15.117 14.182,23.918c2.99,8.816 3.802,18.904 2.453,30.296c-1.226,10.333 -4.124,19.394 -8.708,27.183c-4.569,7.788 -10.503,14.289 -17.785,19.502c-7.283,5.213 -15.792,9.076 -25.512,11.622c-9.721,2.529 -20.33,3.649 -31.829,3.357l-4.155,35.049l-30.158,-3.573l4.14,-34.879c-10.365,-2.3 -20.238,-5.781 -29.606,-10.472c-9.383,-4.676 -17.463,-10.794 -24.27,-18.322c-6.792,-7.543 -11.867,-16.619 -15.225,-27.26c-3.342,-10.64 -4.185,-22.997 -2.514,-37.087l54.796,6.5c-0.997,8.341 -0.66,15.439 1.027,21.281c1.671,5.857 4.277,10.686 7.788,14.504c3.527,3.802 7.697,6.685 12.542,8.632c4.83,1.947 9.828,3.219 15.025,3.833c5.933,0.705 11.238,0.567 15.899,-0.43c4.676,-0.996 8.693,-2.667 12.036,-5.013c3.357,-2.331 6.01,-5.259 7.972,-8.785c1.947,-3.511 3.189,-7.436 3.711,-11.791Z" style="fill:#ffa412;fill-rule:nonzero;"/><path d="M724.752,50.815c-0,0 -26.663,37.533 -51.102,38.054c-24.438,0.521 -61.634,-17.402 -61.634,-17.402c0,0 -22.43,-50.012 -7.205,-69.576c-0,0 15.255,-6.7 31.215,5.121c2.744,2.055 5.535,4.615 8.264,7.927c3.879,4.645 8.218,7.298 12.833,8.693c17.447,5.305 38.145,-7.175 45.888,4.875c4.523,6.992 9.429,12.266 13.476,15.961c4.784,4.262 8.265,6.347 8.265,6.347Z" style="fill:#ffeddc;fill-rule:nonzero;"/><path d="M377.179,321.545c-0,-0 94.245,-228.322 263.861,-232.676c-0,-0 156.553,17.402 165.261,232.676l-429.122,-0Z" style="fill:#ffeddc;fill-rule:nonzero;"/><path d="M594.569,95.845c0,-0 67.981,15.117 88.955,6.225c-0,-0 3.174,-28.426 -25.451,-24.439c-19.609,2.729 -32.365,-6.685 -39.878,-10.503c-10.625,-5.412 -26.447,16.819 -23.626,28.717Z" style="fill:#db6a1d;fill-rule:nonzero;"/><path d="M653.734,52.992c-4.354,3.266 -17.708,-45.98 -17.708,-45.98c2.744,2.055 5.535,4.615 8.264,7.927c3.879,4.645 8.218,7.298 12.833,8.693c0.046,1.441 0.828,26.187 -3.389,29.36Z" style="fill:#e5c1a1;fill-rule:nonzero;"/><path d="M716.487,44.468c-0.95,0.567 -32.396,19.395 -36.658,19.395c-4.354,-0 23.182,-35.356 23.182,-35.356c4.523,6.992 9.429,12.266 13.476,15.961Z" style="fill:#e5c1a1;fill-rule:nonzero;"/><path d="M469.246,257.764c-1.747,-1.487 66.679,-100.76 85.535,-101.481c18.844,-0.721 61.191,21.74 91.84,24.638c30.648,2.898 60.376,-5.795 66.172,12.327c5.795,18.122 21.74,82.363 11.959,92.65c-9.782,10.273 -217.883,4.002 -255.506,-28.134Z" style="fill:#f9ddbf;fill-rule:nonzero;"/></g></svg>