<?xml version="1.0" encoding="UTF-8" standalone="no"?><!DOCTYPE svg PUBLIC "-//W3C//DTD SVG 1.1//EN" "http://www.w3.org/Graphics/SVG/1.1/DTD/svg11.dtd"><svg width="100%" height="100%" viewBox="0 0 1339 352" version="1.1" xmlns="http://www.w3.org/2000/svg" xmlns:xlink="http://www.w3.org/1999/xlink" xml:space="preserve" xmlns:serif="http://www.serif.com/" style="fill-rule:evenodd;clip-rule:evenodd;stroke-linejoin:round;stroke-miterlimit:2;"><g><text x="-23.069px" y="297.387px" style="font-family:'Montserrat-Bold', 'Montserrat';font-weight:700;font-size:277.938px;fill:#567bd8;">E<tspan x="161.482px " y="297.387px ">x</tspan>pen<tspan x="887.735px 1050.05px " y="297.387px 297.387px ">ce</tspan>r</text><path d="M251.28,136.663l-85.566,-0c-0,-75.477 61.186,-136.663 136.663,-136.663c75.476,0 136.662,61.186 136.662,136.663l-98.659,-0c0.606,-4.642 0.123,-9.367 -1.448,-14.172c-2.311,-6.882 -9.407,-16.251 -21.29,-28.106l11.576,-20.049c1.655,2.681 2.636,4.957 2.942,6.828c0.306,1.87 0.159,4.819 -0.441,8.846l28.141,10.796c2.605,-8.353 2.397,-16.235 -0.624,-23.646c-3.021,-7.412 -9.519,-14.428 -19.495,-21.05l3.961,-6.861l-10.118,-5.842l-3.961,6.861c-11.713,-5.96 -22.04,-7.839 -30.982,-5.635c-8.942,2.204 -15.789,7.42 -20.54,15.65c-3.47,6.01 -4.981,11.935 -4.532,17.773c0.449,5.838 2.078,10.831 4.887,14.981c2.81,4.15 8.133,10.214 15.971,18.192l-14.139,24.489c-2.327,-3.438 -3.608,-6.58 -3.844,-9.427c-0.235,-2.846 0.552,-6.796 2.361,-11.851l-29.879,-12.907c-1.836,5.1 -2.862,9.759 -3.08,13.977c-0.217,4.217 0.397,8.622 1.842,13.214c0.864,2.746 2.062,5.393 3.592,7.939Zm41.954,-0l9.613,-16.651c3.582,4.163 5.617,7.605 6.104,10.328c0.412,2.302 0.199,4.409 -0.637,6.323l-15.08,-0Zm26.066,-68.515c-3.52,-0.732 -6.273,-0.712 -8.259,0.061c-1.986,0.772 -3.542,2.133 -4.668,4.083c-1.179,2.043 -1.619,4.157 -1.318,6.342c0.301,2.186 1.62,4.631 3.956,7.335l10.289,-17.821Z" style="fill:#567bd8;"/></g></svg>