<?xml version="1.0" encoding="UTF-8" standalone="no"?><!DOCTYPE svg PUBLIC "-//W3C//DTD SVG 1.1//EN" "http://www.w3.org/Graphics/SVG/1.1/DTD/svg11.dtd"><svg width="100%" height="100%" viewBox="0 0 128 128" version="1.1" xmlns="http://www.w3.org/2000/svg" xmlns:xlink="http://www.w3.org/1999/xlink" xml:space="preserve" xmlns:serif="http://www.serif.com/" style="fill-rule:evenodd;clip-rule:evenodd;stroke-linejoin:round;stroke-miterlimit:2;"><path d="M127.676,31.919c-0,-17.617 -14.303,-31.919 -31.919,-31.919l-63.838,0c-17.617,0 -31.919,14.302 -31.919,31.919l-0,63.838c-0,17.616 14.302,31.919 31.919,31.919l63.838,-0c17.616,-0 31.919,-14.303 31.919,-31.919l-0,-63.838Zm-40.857,64.621c-5.219,0.869 -11.355,1.101 -22.981,1.101c-11.626,-0 -17.763,-0.232 -22.981,-1.101c-7.308,-1.217 -11.474,-3.823 -11.474,-8.201c-0,-5.784 7.442,-13.849 17.789,-18.517c4.182,6.341 10.087,10.593 16.666,10.593c6.579,0 12.484,-4.252 16.666,-10.593c10.347,4.668 17.789,12.733 17.789,18.517c-0,4.378 -4.166,6.984 -11.474,8.201Zm-22.981,-21.868c-9.538,0 -17.228,-12.661 -17.228,-25.67c0,-12.113 7.192,-20.268 17.228,-20.268c10.036,0 17.228,8.155 17.228,20.268c-0,13.009 -7.69,25.67 -17.228,25.67Z" style="fill:#fff;"/><path d="M127.676,31.919c-0,-17.617 -14.303,-31.919 -31.919,-31.919l-63.838,0c-17.617,0 -31.919,14.302 -31.919,31.919l-0,63.838c-0,17.616 14.302,31.919 31.919,31.919l63.838,-0c17.616,-0 31.919,-14.303 31.919,-31.919l-0,-63.838Zm-3.334,-0l0,63.838c0,15.777 -12.808,28.585 -28.585,28.585l-63.838,0c-15.777,0 -28.586,-12.808 -28.586,-28.585c0,-0 0,-63.838 0,-63.838c0,-15.777 12.809,-28.586 28.586,-28.586l63.838,0c15.777,0 28.585,12.809 28.585,28.586Zm-76.675,34.607c-2.732,-5.008 -4.39,-11.224 -4.39,-17.524c0,-14.254 8.752,-23.601 20.561,-23.601c11.809,-0 20.561,9.347 20.561,23.601c0,6.3 -1.658,12.516 -4.39,17.524c0.616,-0.093 1.263,-0.014 1.865,0.258c6.756,3.048 12.352,7.457 15.765,11.832c2.633,3.376 3.987,6.81 3.987,9.723c0,5.684 -4.771,9.909 -14.26,11.489c-5.342,0.89 -11.624,1.146 -23.528,1.146c-11.903,0 -18.186,-0.256 -23.528,-1.146c-9.489,-1.58 -14.261,-5.805 -14.261,-11.489c0,-2.913 1.354,-6.347 3.987,-9.723c3.414,-4.375 9.009,-8.784 15.765,-11.832c0.603,-0.272 1.25,-0.351 1.866,-0.258Zm39.152,30.014c-5.219,0.869 -11.355,1.101 -22.981,1.101c-11.626,-0 -17.763,-0.232 -22.981,-1.101c-7.308,-1.217 -11.474,-3.823 -11.474,-8.201c-0,-5.784 7.442,-13.849 17.789,-18.517c4.182,6.341 10.087,10.593 16.666,10.593c6.579,0 12.484,-4.252 16.666,-10.593c10.347,4.668 17.789,12.733 17.789,18.517c-0,4.378 -4.166,6.984 -11.474,8.201Zm-22.981,-21.868c-9.538,0 -17.228,-12.661 -17.228,-25.67c0,-12.113 7.192,-20.268 17.228,-20.268c10.036,0 17.228,8.155 17.228,20.268c-0,13.009 -7.69,25.67 -17.228,25.67Z" style="fill:#fff;"/></svg>