<?xml version="1.0" encoding="UTF-8" standalone="no"?><!DOCTYPE svg PUBLIC "-//W3C//DTD SVG 1.1//EN" "http://www.w3.org/Graphics/SVG/1.1/DTD/svg11.dtd"><svg width="100%" height="100%" viewBox="0 0 1143 1509" version="1.1" xmlns="http://www.w3.org/2000/svg" xmlns:xlink="http://www.w3.org/1999/xlink" xml:space="preserve" xmlns:serif="http://www.serif.com/" style="fill-rule:evenodd;clip-rule:evenodd;stroke-linejoin:round;stroke-miterlimit:2;"><g><g><g><path d="M1123.52,1456.87l0,36.965c0,2.928 -1.068,5.663 -2.906,7.949c-1.923,2.393 -4.701,4.273 -7.97,5.32c-0.983,0.342 -2.03,0.577 -3.098,0.748c-0.983,0.15 -1.966,0.214 -2.992,0.214l-701.2,0c-9.041,0 -16.487,-6.004 -16.947,-13.504c-0.008,-0.235 -0.019,-0.492 -0.019,-0.727l0,-36.965c0,-0.257 0.011,-0.492 0.019,-0.748c0.46,-7.5 7.906,-13.504 16.947,-13.504l701.2,-0c1.026,-0 2.009,0.085 2.992,0.213c1.068,0.171 2.115,0.406 3.098,0.748c3.269,1.047 6.047,2.928 7.97,5.321c1.838,2.286 2.906,5.021 2.906,7.97Z" style="fill:#ffb93e;fill-rule:nonzero;"/><path d="M779.18,1508.07l-375.652,0c-8.064,0 -14.713,-6.004 -15.126,-13.504c-0.008,-0.235 -0.019,-0.492 -0.019,-0.727l0,-36.965c0,-0.257 0.011,-0.492 0.019,-0.748c0.413,-7.5 7.062,-13.504 15.126,-13.504l329.52,-0c5.277,19.273 17.542,45.918 46.132,65.448Z" style="fill:#ffa412;fill-rule:nonzero;"/><rect x="1030.22" y="1442.62" width="7.97" height="65.448" style="fill:#ffa412;fill-rule:nonzero;"/><rect x="1003.24" y="1442.62" width="7.97" height="65.448" style="fill:#ffa412;fill-rule:nonzero;"/><rect x="970.888" y="1442.62" width="7.97" height="65.448" style="fill:#ffa412;fill-rule:nonzero;"/><rect x="921.316" y="1442.62" width="7.97" height="65.448" style="fill:#ffa412;fill-rule:nonzero;"/><rect x="868.88" y="1442.62" width="7.97" height="65.448" style="fill:#ffa412;fill-rule:nonzero;"/><rect x="788.496" y="1442.62" width="7.97" height="65.448" style="fill:#ffa412;fill-rule:nonzero;"/><rect x="713.219" y="1442.62" width="7.97" height="65.448" style="fill:#ffa412;fill-rule:nonzero;"/><rect x="646.018" y="1442.62" width="7.97" height="65.448" style="fill:#ffa412;fill-rule:nonzero;"/><rect x="1055.91" y="1442.62" width="7.97" height="65.448" style="fill:#ffa412;fill-rule:nonzero;"/><rect x="1072.87" y="1442.62" width="7.97" height="65.448" style="fill:#ffa412;fill-rule:nonzero;"/><rect x="1089.24" y="1442.62" width="7.97" height="65.448" style="fill:#ffa412;fill-rule:nonzero;"/><path d="M1109.54,1442.83l-0,65.021c-0.983,0.15 -1.966,0.214 -2.992,0.214l-4.978,0l-0,-65.448l4.978,-0c1.026,-0 2.009,0.085 2.992,0.213Z" style="fill:#ffa412;fill-rule:nonzero;"/><path d="M1120.61,1448.9l0,52.884c-1.923,2.393 -4.701,4.273 -7.97,5.32l0,-63.525c3.269,1.047 6.047,2.928 7.97,5.321Z" style="fill:#ffa412;fill-rule:nonzero;"/><path d="M1048.54,1391.4l0,36.966c0,2.948 -1.068,5.683 -2.906,7.948c-1.923,2.393 -4.701,4.274 -7.949,5.342c-1.004,0.321 -2.051,0.577 -3.119,0.727c-0.962,0.149 -1.966,0.235 -2.992,0.235l-701.194,-0c-9.04,-0 -16.487,-6.026 -16.946,-13.526c-0.009,-0.235 -0.02,-0.491 -0.02,-0.726l0,-36.966c0,-0.235 0.011,-0.491 0.02,-0.726c0.459,-7.5 7.906,-13.526 16.946,-13.526l701.194,0c0.449,0 0.898,0.021 1.346,0.043l0.577,0.064c0.214,-0 0.428,0.021 0.62,0.064l0.449,0.064c1.068,0.15 2.115,0.406 3.119,0.727l0.428,0.149l0.427,0.171c0.299,0.107 0.577,0.214 0.855,0.342l0.491,0.214l0.427,0.213c0.278,0.15 0.535,0.278 0.812,0.428c0.3,0.171 0.577,0.363 0.877,0.555c0.213,0.128 0.427,0.278 0.641,0.449l0.042,0.021l0.428,0.321c0.427,0.342 0.854,0.705 1.239,1.068l0.342,0.342l0.32,0.342c0.214,0.235 0.428,0.47 0.62,0.726c1.838,2.265 2.906,5 2.906,7.949Z" style="fill:#ffb93e;fill-rule:nonzero;"/><path d="M704.223,1442.62l-375.664,-0c-8.075,-0 -14.716,-6.026 -15.128,-13.526c-0.009,-0.235 -0.02,-0.491 -0.02,-0.726l0,-36.966c0,-0.235 0.011,-0.491 0.02,-0.726c0.412,-7.5 7.053,-13.526 15.128,-13.526l329.511,0c0.149,0.534 0.296,1.068 0.47,1.624c5.491,19.124 17.863,44.85 45.683,63.846Z" style="fill:#ffa412;fill-rule:nonzero;"/><rect x="955.247" y="1377.15" width="7.97" height="65.47" style="fill:#ffa412;fill-rule:nonzero;"/><rect x="928.281" y="1377.15" width="7.97" height="65.47" style="fill:#ffa412;fill-rule:nonzero;"/><rect x="895.931" y="1377.15" width="7.97" height="65.47" style="fill:#ffa412;fill-rule:nonzero;"/><rect x="846.338" y="1377.15" width="7.97" height="65.47" style="fill:#ffa412;fill-rule:nonzero;"/><rect x="793.902" y="1377.15" width="7.97" height="65.47" style="fill:#ffa412;fill-rule:nonzero;"/><rect x="713.518" y="1377.15" width="7.97" height="65.47" style="fill:#ffa412;fill-rule:nonzero;"/><rect x="638.262" y="1377.15" width="7.949" height="65.47" style="fill:#ffa412;fill-rule:nonzero;"/><rect x="571.044" y="1377.15" width="7.97" height="65.47" style="fill:#ffa412;fill-rule:nonzero;"/><rect x="980.931" y="1377.15" width="7.97" height="65.47" style="fill:#ffa412;fill-rule:nonzero;"/><rect x="997.896" y="1377.15" width="7.97" height="65.47" style="fill:#ffa412;fill-rule:nonzero;"/><rect x="1014.26" y="1377.15" width="7.97" height="65.47" style="fill:#ffa412;fill-rule:nonzero;"/><path d="M1034.56,1377.38l-0,65c-0.962,0.149 -1.966,0.235 -2.992,0.235l-4.978,-0l-0,-65.47l4.978,0c1.026,0 2.03,0.086 2.992,0.235Z" style="fill:#ffa412;fill-rule:nonzero;"/><path d="M1045.63,1383.45l-0,52.863c-1.923,2.393 -4.701,4.274 -7.949,5.342l0,-63.546c3.248,1.047 6.026,2.948 7.949,5.341Z" style="fill:#ffa412;fill-rule:nonzero;"/><path d="M1084.78,1327.56l0,36.966c0,2.949 -1.068,5.684 -2.906,7.949c-1.944,2.393 -4.722,4.273 -7.97,5.341c-0.983,0.321 -2.03,0.577 -3.098,0.727c-0.983,0.15 -1.966,0.235 -2.992,0.235l-701.204,0c-2.812,0 -5.477,-0.598 -7.821,-1.624c-4.961,-2.179 -8.506,-6.367 -9.068,-11.261c-0.03,-0.213 -0.047,-0.427 -0.056,-0.641c-0.01,-0.235 -0.019,-0.491 -0.019,-0.726l0,-36.966c0,-0.256 0.009,-0.491 0.019,-0.726c0.458,-7.5 7.904,-13.526 16.945,-13.526l701.204,0c1.026,0 2.009,0.086 2.992,0.235c1.068,0.15 2.115,0.406 3.098,0.727c3.248,1.047 6.026,2.949 7.97,5.342c1.838,2.265 2.906,5 2.906,7.948Z" style="fill:#ffb93e;fill-rule:nonzero;"/><path d="M740.441,1378.77l-375.654,0c-2.515,0 -4.886,-0.598 -6.976,-1.624c-4.438,-2.179 -7.598,-6.367 -8.094,-11.261c-0.03,-0.213 -0.047,-0.427 -0.056,-0.641c-0.01,-0.235 -0.019,-0.491 -0.019,-0.726l0,-36.966c0,-0.256 0.009,-0.491 0.019,-0.726c0.413,-7.5 7.06,-13.526 15.126,-13.526l329.522,0c5.128,18.74 16.858,44.487 43.824,63.846c0.769,0.556 1.539,1.09 2.308,1.624Z" style="fill:#ffa412;fill-rule:nonzero;"/><rect x="991.486" y="1313.3" width="7.97" height="65.47" style="fill:#ffa412;fill-rule:nonzero;"/><rect x="964.499" y="1313.3" width="7.97" height="65.47" style="fill:#ffa412;fill-rule:nonzero;"/><rect x="932.149" y="1313.3" width="7.97" height="65.47" style="fill:#ffa412;fill-rule:nonzero;"/><rect x="882.577" y="1313.3" width="7.97" height="65.47" style="fill:#ffa412;fill-rule:nonzero;"/><rect x="830.141" y="1313.3" width="7.97" height="65.47" style="fill:#ffa412;fill-rule:nonzero;"/><rect x="749.757" y="1313.3" width="7.949" height="65.47" style="fill:#ffa412;fill-rule:nonzero;"/><rect x="674.48" y="1313.3" width="7.97" height="65.47" style="fill:#ffa412;fill-rule:nonzero;"/><rect x="607.279" y="1313.3" width="7.97" height="65.47" style="fill:#ffa412;fill-rule:nonzero;"/><rect x="1017.17" y="1313.3" width="7.949" height="65.47" style="fill:#ffa412;fill-rule:nonzero;"/><rect x="1034.11" y="1313.3" width="7.97" height="65.47" style="fill:#ffa412;fill-rule:nonzero;"/><rect x="1050.5" y="1313.3" width="7.97" height="65.47" style="fill:#ffa412;fill-rule:nonzero;"/><path d="M1070.8,1313.54l-0,65c-0.983,0.15 -1.966,0.235 -2.992,0.235l-4.978,0l-0,-65.47l4.978,0c1.026,0 2.009,0.086 2.992,0.235Z" style="fill:#ffa412;fill-rule:nonzero;"/><path d="M1081.87,1319.61l0,52.863c-1.944,2.393 -4.722,4.273 -7.97,5.341l0,-63.546c3.248,1.047 6.026,2.927 7.97,5.342Z" style="fill:#ffa412;fill-rule:nonzero;"/><path d="M1101.57,1262.09l-0,36.965c-0,2.949 -1.069,5.684 -2.906,7.97c-1.945,2.393 -4.701,4.274 -7.97,5.321c-0.983,0.342 -2.03,0.577 -3.099,0.726c-0.982,0.15 -1.965,0.235 -2.991,0.235l-701.202,0c-9.041,0 -16.488,-6.004 -16.947,-13.504c-0.008,-0.256 -0.017,-0.491 -0.017,-0.748l-0,-36.965c-0,-0.235 0.009,-0.492 0.017,-0.727c0.423,-6.944 6.827,-12.606 14.94,-13.418c0.656,-0.065 1.323,-0.107 2.007,-0.107l701.202,-0c1.026,-0 2.009,0.085 2.991,0.235c1.069,0.171 2.116,0.406 3.099,0.748c3.269,1.047 6.025,2.927 7.97,5.32c1.837,2.286 2.906,5 2.906,7.949Z" style="fill:#ffb93e;fill-rule:nonzero;"/><path d="M757.235,1313.3l-375.651,0c-8.066,0 -14.716,-6.004 -15.128,-13.504c-0.008,-0.256 -0.017,-0.491 -0.017,-0.748l-0,-36.965c-0,-0.235 0.009,-0.492 0.017,-0.727c0.376,-6.923 6.096,-12.606 13.338,-13.418c0.581,-0.065 1.179,-0.107 1.79,-0.107l329.519,-0l0.043,0.107c5.278,19.252 17.543,45.854 46.089,65.362Z" style="fill:#ffa412;fill-rule:nonzero;"/><rect x="1008.28" y="1247.83" width="7.97" height="65.47" style="fill:#ffa412;fill-rule:nonzero;"/><rect x="981.294" y="1247.83" width="7.97" height="65.47" style="fill:#ffa412;fill-rule:nonzero;"/><rect x="948.943" y="1247.83" width="7.97" height="65.47" style="fill:#ffa412;fill-rule:nonzero;"/><rect x="899.371" y="1247.83" width="7.97" height="65.47" style="fill:#ffa412;fill-rule:nonzero;"/><rect x="846.936" y="1247.83" width="7.97" height="65.47" style="fill:#ffa412;fill-rule:nonzero;"/><rect x="766.552" y="1247.83" width="7.97" height="65.47" style="fill:#ffa412;fill-rule:nonzero;"/><rect x="691.274" y="1247.83" width="7.968" height="65.47" style="fill:#ffa412;fill-rule:nonzero;"/><rect x="624.074" y="1247.83" width="7.97" height="65.47" style="fill:#ffa412;fill-rule:nonzero;"/><rect x="1033.96" y="1247.83" width="7.97" height="65.47" style="fill:#ffa412;fill-rule:nonzero;"/><rect x="1050.93" y="1247.83" width="7.949" height="65.47" style="fill:#ffa412;fill-rule:nonzero;"/><rect x="1067.3" y="1247.83" width="7.97" height="65.47" style="fill:#ffa412;fill-rule:nonzero;"/><path d="M1087.6,1248.07l0,64.999c-0.982,0.15 -1.965,0.235 -2.991,0.235l-4.979,0l0,-65.469l4.979,-0c1.026,-0 2.009,0.085 2.991,0.235Z" style="fill:#ffa412;fill-rule:nonzero;"/><path d="M1098.66,1254.14l-0,52.884c-1.945,2.393 -4.701,4.274 -7.97,5.321l-0,-63.547c3.269,1.069 6.025,2.949 7.97,5.342Z" style="fill:#ffa412;fill-rule:nonzero;"/><path d="M1050.01,1196.72l0,36.987c0,2.927 -1.068,5.662 -2.906,7.949c-1.923,2.393 -4.7,4.273 -7.948,5.32c-1.005,0.342 -2.052,0.577 -3.12,0.748c-0.32,0.043 -0.641,0.085 -0.983,0.107l-0.555,0.064l-0.556,0.021c-0.299,0.022 -0.598,0.022 -0.897,0.022l-701.194,-0c-9.043,-0 -16.49,-6.005 -16.947,-13.505c-0.011,-0.256 -0.019,-0.491 -0.019,-0.726l-0,-36.987c-0,-0.235 0.008,-0.47 0.019,-0.727c0.009,-0.192 0.028,-0.406 0.045,-0.598c0.675,-6.025 5.891,-11.004 12.718,-12.478l0.515,-0.086c1.184,-0.235 2.41,-0.342 3.669,-0.342l701.194,0c0.513,0 1.025,0.022 1.517,0.043c0.235,0.021 0.448,0.043 0.683,0.064c0.278,0.043 0.535,0.086 0.791,0.107c1.068,0.171 2.115,0.406 3.12,0.748c3.248,1.047 6.025,2.927 7.948,5.32c1.838,2.287 2.906,5.022 2.906,7.949Z" style="fill:#ffb93e;fill-rule:nonzero;"/><path d="M705.697,1247.94l-375.666,-0c-8.066,-0 -14.716,-6.005 -15.126,-13.505c-0.011,-0.256 -0.019,-0.491 -0.019,-0.726l-0,-36.987c-0,-0.235 0.008,-0.47 0.019,-0.727c0.009,-0.192 0.028,-0.406 0.045,-0.598c0.611,-6.154 5.459,-11.218 11.752,-12.564c0.216,-0.043 0.432,-0.085 0.647,-0.128c0.872,-0.15 1.763,-0.214 2.682,-0.214l329.534,0l0.126,0.449c5.323,19.209 17.588,45.534 45.857,64.893l0.149,0.107Z" style="fill:#ffa412;fill-rule:nonzero;"/><rect x="956.721" y="1182.49" width="7.97" height="65.448" style="fill:#ffa412;fill-rule:nonzero;"/><rect x="929.756" y="1182.49" width="7.97" height="65.448" style="fill:#ffa412;fill-rule:nonzero;"/><rect x="897.405" y="1182.49" width="7.97" height="65.448" style="fill:#ffa412;fill-rule:nonzero;"/><rect x="847.812" y="1182.49" width="7.97" height="65.448" style="fill:#ffa412;fill-rule:nonzero;"/><rect x="795.376" y="1182.49" width="7.97" height="65.448" style="fill:#ffa412;fill-rule:nonzero;"/><rect x="714.992" y="1182.49" width="7.97" height="65.448" style="fill:#ffa412;fill-rule:nonzero;"/><rect x="639.715" y="1182.49" width="7.97" height="65.448" style="fill:#ffa412;fill-rule:nonzero;"/><rect x="572.517" y="1182.49" width="7.97" height="65.448" style="fill:#ffa412;fill-rule:nonzero;"/><rect x="982.405" y="1182.49" width="7.97" height="65.448" style="fill:#ffa412;fill-rule:nonzero;"/><rect x="999.371" y="1182.49" width="7.97" height="65.448" style="fill:#ffa412;fill-rule:nonzero;"/><rect x="1015.74" y="1182.49" width="7.97" height="65.448" style="fill:#ffa412;fill-rule:nonzero;"/><path d="M1036.04,1182.71l-0,65.021c-0.961,0.149 -1.966,0.214 -2.991,0.214l-4.979,-0l-0,-65.449l4.979,0c1.025,0 2.03,0.064 2.991,0.214Z" style="fill:#ffa412;fill-rule:nonzero;"/><path d="M1047.11,1188.77l0,52.885c-1.923,2.393 -4.7,4.273 -7.948,5.32l-0,-63.525c3.248,1.047 6.025,2.927 7.948,5.32Z" style="fill:#ffa412;fill-rule:nonzero;"/><path d="M1048.54,1131.75l0,36.965c0,2.949 -1.068,5.663 -2.906,7.949c-1.923,2.393 -4.701,4.273 -7.949,5.32c-0.79,0.278 -1.602,0.471 -2.436,0.62c-0.235,0.043 -0.448,0.086 -0.683,0.128c-0.962,0.15 -1.966,0.214 -2.992,0.214l-701.194,-0c-0.739,-0 -1.481,-0.021 -2.194,-0.107c-0.28,-0.043 -0.562,-0.064 -0.834,-0.128c-7.626,-1.154 -13.514,-6.624 -13.918,-13.269c-0.009,-0.235 -0.02,-0.492 -0.02,-0.727l0,-36.965c0,-0.257 0.011,-0.492 0.02,-0.748c0.459,-7.5 7.906,-13.504 16.946,-13.504l701.194,-0c0.449,-0 0.898,0.021 1.346,0.042l0.577,0.043c0.214,0.022 0.428,0.043 0.62,0.086l0.449,0.064c1.068,0.149 2.115,0.384 3.119,0.726l0.428,0.15l0.427,0.149c0.299,0.107 0.577,0.235 0.855,0.342c0.32,0.15 0.62,0.299 0.918,0.449c0.278,0.128 0.535,0.278 0.812,0.427c0.3,0.171 0.577,0.364 0.877,0.534c0.213,0.15 0.427,0.3 0.641,0.449l0.042,0.043l0.428,0.32c0.427,0.321 0.854,0.684 1.239,1.069l0.342,0.32l0.32,0.342c0.214,0.235 0.428,0.492 0.62,0.727c1.838,2.286 2.906,5.021 2.906,7.97Z" style="fill:#ffb93e;fill-rule:nonzero;"/><path d="M704.223,1182.94l-375.664,-0c-0.299,-0 -0.601,-0 -0.891,-0.021c-0.329,-0 -0.648,-0.043 -0.966,-0.086c-7.222,-0.833 -12.895,-6.474 -13.271,-13.397c-0.009,-0.235 -0.02,-0.492 -0.02,-0.727l0,-36.965c0,-0.257 0.011,-0.492 0.02,-0.748c0.412,-7.5 7.053,-13.504 15.128,-13.504l329.511,-0c0.149,0.534 0.296,1.068 0.47,1.602c5.446,18.974 17.649,44.444 44.999,63.397c0.235,0.15 0.449,0.299 0.684,0.449Z" style="fill:#ffa412;fill-rule:nonzero;"/><rect x="955.247" y="1117.49" width="7.97" height="65.47" style="fill:#ffa412;fill-rule:nonzero;"/><rect x="928.281" y="1117.49" width="7.97" height="65.47" style="fill:#ffa412;fill-rule:nonzero;"/><rect x="895.931" y="1117.49" width="7.97" height="65.47" style="fill:#ffa412;fill-rule:nonzero;"/><rect x="846.338" y="1117.49" width="7.97" height="65.47" style="fill:#ffa412;fill-rule:nonzero;"/><rect x="793.902" y="1117.49" width="7.97" height="65.47" style="fill:#ffa412;fill-rule:nonzero;"/><rect x="713.518" y="1117.49" width="7.97" height="65.47" style="fill:#ffa412;fill-rule:nonzero;"/><rect x="638.262" y="1117.49" width="7.949" height="65.47" style="fill:#ffa412;fill-rule:nonzero;"/><rect x="571.044" y="1117.49" width="7.97" height="65.47" style="fill:#ffa412;fill-rule:nonzero;"/><rect x="980.931" y="1117.49" width="7.97" height="65.47" style="fill:#ffa412;fill-rule:nonzero;"/><rect x="997.896" y="1117.49" width="7.97" height="65.47" style="fill:#ffa412;fill-rule:nonzero;"/><rect x="1014.26" y="1117.49" width="7.97" height="65.47" style="fill:#ffa412;fill-rule:nonzero;"/><path d="M1034.56,1117.73l-0,64.999c-0.962,0.15 -1.966,0.214 -2.992,0.214l-4.978,-0l-0,-65.448l4.978,-0c1.026,-0 2.03,0.085 2.992,0.235Z" style="fill:#ffa412;fill-rule:nonzero;"/><path d="M1045.63,1123.78l-0,52.884c-1.923,2.393 -4.701,4.273 -7.949,5.342l0,-63.547c3.248,1.047 6.026,2.928 7.949,5.321Z" style="fill:#ffa412;fill-rule:nonzero;"/><path d="M1084.78,1067.9l0,36.966c0,2.927 -1.068,5.662 -2.906,7.948c-1.944,2.393 -4.722,4.274 -7.97,5.321c-0.983,0.342 -2.03,0.577 -3.098,0.748c-0.983,0.149 -1.966,0.213 -2.992,0.213l-701.204,0c-2.812,0 -5.477,-0.577 -7.821,-1.602c-4.961,-2.18 -8.506,-6.368 -9.068,-11.261c-0.03,-0.214 -0.047,-0.427 -0.056,-0.641c-0.01,-0.256 -0.019,-0.491 -0.019,-0.726l0,-36.966c0,-0.256 0.009,-0.491 0.019,-0.748c0.458,-7.5 7.904,-13.504 16.945,-13.504l701.204,-0c1.026,-0 2.009,0.064 2.992,0.214c1.068,0.171 2.115,0.406 3.098,0.747c3.248,1.048 6.026,2.928 7.97,5.321c1.838,2.286 2.906,5.021 2.906,7.97Z" style="fill:#ffb93e;fill-rule:nonzero;"/><path d="M740.441,1119.1l-375.654,0c-2.515,0 -4.886,-0.577 -6.976,-1.602c-4.438,-2.18 -7.598,-6.368 -8.094,-11.261c-0.03,-0.214 -0.047,-0.427 -0.056,-0.641c-0.01,-0.256 -0.019,-0.491 -0.019,-0.726l0,-36.966c0,-0.256 0.009,-0.491 0.019,-0.748c0.413,-7.5 7.06,-13.504 15.126,-13.504l329.522,-0c5.128,18.739 16.858,44.465 43.824,63.846c0.769,0.534 1.539,1.068 2.308,1.602Z" style="fill:#ffa412;fill-rule:nonzero;"/><rect x="991.486" y="1053.65" width="7.97" height="65.47" style="fill:#ffa412;fill-rule:nonzero;"/><rect x="964.499" y="1053.65" width="7.97" height="65.47" style="fill:#ffa412;fill-rule:nonzero;"/><rect x="932.149" y="1053.65" width="7.97" height="65.47" style="fill:#ffa412;fill-rule:nonzero;"/><rect x="882.577" y="1053.65" width="7.97" height="65.47" style="fill:#ffa412;fill-rule:nonzero;"/><rect x="830.141" y="1053.65" width="7.97" height="65.47" style="fill:#ffa412;fill-rule:nonzero;"/><rect x="749.757" y="1053.65" width="7.949" height="65.47" style="fill:#ffa412;fill-rule:nonzero;"/><rect x="674.48" y="1053.65" width="7.97" height="65.47" style="fill:#ffa412;fill-rule:nonzero;"/><rect x="607.279" y="1053.65" width="7.97" height="65.47" style="fill:#ffa412;fill-rule:nonzero;"/><rect x="1017.17" y="1053.65" width="7.949" height="65.47" style="fill:#ffa412;fill-rule:nonzero;"/><rect x="1034.11" y="1053.65" width="7.97" height="65.47" style="fill:#ffa412;fill-rule:nonzero;"/><rect x="1050.5" y="1053.65" width="7.97" height="65.47" style="fill:#ffa412;fill-rule:nonzero;"/><path d="M1070.8,1053.88l-0,65c-0.983,0.149 -1.966,0.213 -2.992,0.213l-4.978,0l-0,-65.448l4.978,-0c1.026,-0 2.009,0.085 2.992,0.235Z" style="fill:#ffa412;fill-rule:nonzero;"/><path d="M1081.87,1059.93l0,52.884c-1.944,2.393 -4.722,4.274 -7.97,5.321l0,-63.526c3.248,1.048 6.026,2.928 7.97,5.321Z" style="fill:#ffa412;fill-rule:nonzero;"/><path d="M1142.08,1002.43l0,36.966c0,2.949 -1.068,5.684 -2.927,7.949c-1.923,2.393 -4.701,4.273 -7.949,5.341c-1.004,0.321 -2.029,0.577 -3.098,0.727c-0.983,0.149 -1.987,0.235 -2.991,0.235l-701.209,-0c-9.041,-0 -16.487,-6.026 -16.947,-13.526c-0.01,-0.235 -0.019,-0.491 -0.019,-0.726l-0,-36.966c-0,-0.235 0.009,-0.491 0.019,-0.726c0.421,-6.945 6.827,-12.607 14.94,-13.419c0.656,-0.064 1.331,-0.107 2.007,-0.107l701.209,0c1.004,0 2.008,0.086 2.991,0.235c1.069,0.15 2.094,0.406 3.098,0.727c3.248,1.068 6.026,2.949 7.949,5.342c1.859,2.265 2.927,5 2.927,7.948Z" style="fill:#ffb93e;fill-rule:nonzero;"/><path d="M797.748,1053.65l-375.66,-0c-8.064,-0 -14.713,-6.026 -15.126,-13.526c-0.01,-0.235 -0.019,-0.491 -0.019,-0.726l-0,-36.966c-0,-0.235 0.009,-0.491 0.019,-0.726c0.374,-6.945 6.096,-12.607 13.336,-13.419c0.581,-0.064 1.181,-0.107 1.79,-0.107l329.528,0l0.021,0.107c5.278,19.252 17.564,45.855 46.111,65.363Z" style="fill:#ffa412;fill-rule:nonzero;"/><rect x="1048.79" y="988.177" width="7.97" height="65.47" style="fill:#ffa412;fill-rule:nonzero;"/><rect x="1021.81" y="988.177" width="7.97" height="65.47" style="fill:#ffa412;fill-rule:nonzero;"/><rect x="989.456" y="988.177" width="7.97" height="65.47" style="fill:#ffa412;fill-rule:nonzero;"/><rect x="939.862" y="988.177" width="7.97" height="65.47" style="fill:#ffa412;fill-rule:nonzero;"/><rect x="887.427" y="988.177" width="7.97" height="65.47" style="fill:#ffa412;fill-rule:nonzero;"/><rect x="807.043" y="988.177" width="7.97" height="65.47" style="fill:#ffa412;fill-rule:nonzero;"/><rect x="731.787" y="988.177" width="7.97" height="65.47" style="fill:#ffa412;fill-rule:nonzero;"/><rect x="664.587" y="988.177" width="7.968" height="65.47" style="fill:#ffa412;fill-rule:nonzero;"/><rect x="1074.46" y="988.177" width="7.97" height="65.47" style="fill:#ffa412;fill-rule:nonzero;"/><rect x="1091.42" y="988.177" width="7.97" height="65.47" style="fill:#ffa412;fill-rule:nonzero;"/><rect x="1107.81" y="988.177" width="7.97" height="65.47" style="fill:#ffa412;fill-rule:nonzero;"/><path d="M1128.11,988.412l0,65c-0.983,0.149 -1.966,0.235 -2.991,0.235l-4.979,-0l0,-65.47l4.979,0c1.025,0 2.008,0.086 2.991,0.235Z" style="fill:#ffa412;fill-rule:nonzero;"/><path d="M1139.18,994.481l0,52.863c-1.944,2.393 -4.722,4.273 -7.97,5.341l0,-63.546c3.248,1.047 6.026,2.949 7.97,5.342Z" style="fill:#ffa412;fill-rule:nonzero;"/><path d="M1050.01,937.067l0,36.965c0,2.949 -1.068,5.684 -2.906,7.949c-1.923,2.414 -4.7,4.295 -7.948,5.342c-1.005,0.32 -2.052,0.577 -3.12,0.726c-0.32,0.064 -0.641,0.107 -0.983,0.128c-0.256,0.043 -0.513,0.043 -0.79,0.064l-0.385,0.022c-0.278,0.021 -0.555,0.021 -0.833,0.021l-701.194,0c-9.043,0 -16.49,-6.025 -16.947,-13.504c-0.011,-0.256 -0.019,-0.492 -0.019,-0.748l-0,-36.965c-0,-0.236 0.008,-0.492 0.019,-0.727c0.457,-7.5 7.904,-13.526 16.947,-13.526l701.194,0c0.299,0 0.598,0.022 0.897,0.022c0.727,0.043 1.41,0.107 2.094,0.214c1.068,0.149 2.115,0.405 3.12,0.726c0.491,0.171 1.004,0.363 1.453,0.556c0.32,0.128 0.598,0.256 0.876,0.406l0.107,0.042c0.277,0.129 0.555,0.278 0.854,0.449l0.128,0.064c0.257,0.15 0.513,0.321 0.77,0.47c0.598,0.385 1.154,0.791 1.688,1.239l0.47,0.428l0.085,0.064l0.3,0.278l0.042,0.042l0.513,0.535c0.235,0.256 0.449,0.491 0.662,0.769c1.838,2.265 2.906,5 2.906,7.949Z" style="fill:#ffb93e;fill-rule:nonzero;"/><path d="M705.697,988.284l-375.666,0c-8.066,0 -14.716,-6.025 -15.126,-13.504c-0.011,-0.256 -0.019,-0.492 -0.019,-0.748l-0,-36.965c-0,-0.236 0.008,-0.492 0.019,-0.727c0.41,-7.5 7.06,-13.526 15.126,-13.526l329.534,0c0.126,0.513 0.257,1.005 0.425,1.518c5.473,19.102 17.78,44.828 45.558,63.845l0.149,0.107Z" style="fill:#ffa412;fill-rule:nonzero;"/><rect x="956.721" y="922.814" width="7.97" height="65.47" style="fill:#ffa412;fill-rule:nonzero;"/><rect x="929.756" y="922.814" width="7.97" height="65.47" style="fill:#ffa412;fill-rule:nonzero;"/><rect x="897.405" y="922.814" width="7.97" height="65.47" style="fill:#ffa412;fill-rule:nonzero;"/><rect x="847.812" y="922.814" width="7.97" height="65.47" style="fill:#ffa412;fill-rule:nonzero;"/><rect x="795.376" y="922.814" width="7.97" height="65.47" style="fill:#ffa412;fill-rule:nonzero;"/><rect x="714.992" y="922.814" width="7.97" height="65.47" style="fill:#ffa412;fill-rule:nonzero;"/><rect x="639.715" y="922.814" width="7.97" height="65.47" style="fill:#ffa412;fill-rule:nonzero;"/><rect x="572.517" y="922.814" width="7.97" height="65.47" style="fill:#ffa412;fill-rule:nonzero;"/><rect x="982.405" y="922.814" width="7.97" height="65.47" style="fill:#ffa412;fill-rule:nonzero;"/><rect x="999.371" y="922.814" width="7.97" height="65.47" style="fill:#ffa412;fill-rule:nonzero;"/><rect x="1015.74" y="922.814" width="7.97" height="65.47" style="fill:#ffa412;fill-rule:nonzero;"/><path d="M1036.04,923.05l-0,64.999c-0.961,0.15 -1.966,0.235 -2.991,0.235l-4.979,0l-0,-65.47l4.979,0c1.025,0 2.03,0.086 2.991,0.236Z" style="fill:#ffa412;fill-rule:nonzero;"/><path d="M1047.11,929.118l0,52.863c-1.923,2.414 -4.7,4.295 -7.948,5.342l-0,-63.547c3.248,1.068 6.025,2.949 7.948,5.342Z" style="fill:#ffa412;fill-rule:nonzero;"/><path d="M1101.57,873.114l-0,36.966c-0,2.948 -1.069,5.683 -2.906,7.97c-1.945,2.393 -4.701,4.273 -7.97,5.32c-0.983,0.342 -2.03,0.577 -3.099,0.727c-0.982,0.149 -1.965,0.235 -2.991,0.235l-701.202,-0c-2.718,-0 -5.297,-0.535 -7.577,-1.518c-5.111,-2.136 -8.77,-6.41 -9.323,-11.41c-0.019,-0.192 -0.038,-0.384 -0.047,-0.577c-0.008,-0.256 -0.017,-0.491 -0.017,-0.747l-0,-36.966c-0,-0.235 0.009,-0.491 0.017,-0.727c0.423,-6.944 6.827,-12.606 14.94,-13.418c0.656,-0.064 1.323,-0.107 2.007,-0.107l701.202,-0c1.026,-0 2.009,0.085 2.991,0.235c1.069,0.171 2.116,0.406 3.099,0.726c3.269,1.069 6.025,2.949 7.97,5.342c1.837,2.287 2.906,5 2.906,7.949Z" style="fill:#ffb93e;fill-rule:nonzero;"/><path d="M757.235,924.332l-375.651,-0c-2.429,-0 -4.726,-0.535 -6.76,-1.518c-4.569,-2.136 -7.823,-6.41 -8.321,-11.41c-0.019,-0.192 -0.038,-0.384 -0.047,-0.577c-0.008,-0.256 -0.017,-0.491 -0.017,-0.747l-0,-36.966c-0,-0.235 0.009,-0.491 0.017,-0.727c0.376,-6.923 6.096,-12.606 13.338,-13.418c0.581,-0.064 1.179,-0.107 1.79,-0.107l329.519,-0l0.043,0.107c5.128,18.782 16.923,44.508 43.931,63.845c0.706,0.513 1.432,1.026 2.158,1.518Z" style="fill:#ffa412;fill-rule:nonzero;"/><rect x="1008.28" y="858.862" width="7.97" height="65.47" style="fill:#ffa412;fill-rule:nonzero;"/><rect x="981.294" y="858.862" width="7.97" height="65.47" style="fill:#ffa412;fill-rule:nonzero;"/><rect x="948.943" y="858.862" width="7.97" height="65.47" style="fill:#ffa412;fill-rule:nonzero;"/><rect x="899.371" y="858.862" width="7.97" height="65.47" style="fill:#ffa412;fill-rule:nonzero;"/><rect x="846.936" y="858.862" width="7.97" height="65.47" style="fill:#ffa412;fill-rule:nonzero;"/><rect x="766.552" y="858.862" width="7.97" height="65.47" style="fill:#ffa412;fill-rule:nonzero;"/><rect x="691.274" y="858.862" width="7.968" height="65.47" style="fill:#ffa412;fill-rule:nonzero;"/><rect x="624.074" y="858.862" width="7.97" height="65.47" style="fill:#ffa412;fill-rule:nonzero;"/><rect x="1033.96" y="858.862" width="7.97" height="65.47" style="fill:#ffa412;fill-rule:nonzero;"/><rect x="1050.93" y="858.862" width="7.949" height="65.47" style="fill:#ffa412;fill-rule:nonzero;"/><rect x="1067.3" y="858.862" width="7.97" height="65.47" style="fill:#ffa412;fill-rule:nonzero;"/><path d="M1087.6,859.097l0,65c-0.982,0.149 -1.965,0.235 -2.991,0.235l-4.979,-0l0,-65.47l4.979,-0c1.026,-0 2.009,0.085 2.991,0.235Z" style="fill:#ffa412;fill-rule:nonzero;"/><path d="M1098.66,865.165l-0,52.885c-1.945,2.393 -4.701,4.273 -7.97,5.32l-0,-63.547c3.269,1.069 6.025,2.949 7.97,5.342Z" style="fill:#ffa412;fill-rule:nonzero;"/><path d="M1123.52,807.751l0,36.987c0,2.927 -1.068,5.662 -2.906,7.949c-1.923,2.393 -4.701,4.273 -7.97,5.32c-0.983,0.342 -2.03,0.577 -3.098,0.748c-0.321,0.043 -0.662,0.086 -0.983,0.107l-0.556,0.064l-0.555,0.021c-0.299,0.022 -0.599,0.022 -0.898,0.022l-701.2,-0c-9.041,-0 -16.487,-6.004 -16.949,-13.504c-0.008,-0.257 -0.017,-0.492 -0.017,-0.727l0,-36.987c0,-0.235 0.009,-0.47 0.017,-0.726c0.462,-7.5 7.908,-13.505 16.949,-13.505l701.2,0c1.026,0 2.009,0.065 2.992,0.214c1.068,0.171 2.115,0.406 3.098,0.748c3.269,1.047 6.047,2.927 7.97,5.32c1.838,2.287 2.906,5.022 2.906,7.949Z" style="fill:#ffb93e;fill-rule:nonzero;"/><path d="M779.18,858.969l-375.649,-0c-8.067,-0 -14.716,-6.004 -15.131,-13.504c-0.008,-0.257 -0.017,-0.492 -0.017,-0.727l0,-36.987c0,-0.235 0.009,-0.47 0.017,-0.726c0.415,-7.5 7.064,-13.505 15.131,-13.505l329.517,0c5.256,19.231 17.499,45.812 45.982,65.342l0.15,0.107Z" style="fill:#ffa412;fill-rule:nonzero;"/><rect x="1030.22" y="793.52" width="7.97" height="65.448" style="fill:#ffa412;fill-rule:nonzero;"/><rect x="1003.24" y="793.52" width="7.97" height="65.448" style="fill:#ffa412;fill-rule:nonzero;"/><rect x="970.888" y="793.52" width="7.97" height="65.448" style="fill:#ffa412;fill-rule:nonzero;"/><rect x="921.316" y="793.52" width="7.97" height="65.448" style="fill:#ffa412;fill-rule:nonzero;"/><rect x="868.88" y="793.52" width="7.97" height="65.448" style="fill:#ffa412;fill-rule:nonzero;"/><rect x="788.496" y="793.52" width="7.97" height="65.448" style="fill:#ffa412;fill-rule:nonzero;"/><rect x="713.219" y="793.52" width="7.97" height="65.448" style="fill:#ffa412;fill-rule:nonzero;"/><rect x="646.018" y="793.52" width="7.97" height="65.448" style="fill:#ffa412;fill-rule:nonzero;"/><rect x="1055.91" y="793.52" width="7.97" height="65.448" style="fill:#ffa412;fill-rule:nonzero;"/><rect x="1072.87" y="793.52" width="7.97" height="65.448" style="fill:#ffa412;fill-rule:nonzero;"/><rect x="1089.24" y="793.52" width="7.97" height="65.448" style="fill:#ffa412;fill-rule:nonzero;"/><path d="M1109.54,793.734l-0,65.021c-0.983,0.15 -1.966,0.214 -2.992,0.214l-4.978,-0l-0,-65.449l4.978,0c1.026,0 2.009,0.065 2.992,0.214Z" style="fill:#ffa412;fill-rule:nonzero;"/><path d="M1120.61,799.802l0,52.885c-1.923,2.393 -4.701,4.273 -7.97,5.32l0,-63.525c3.269,1.047 6.047,2.927 7.97,5.32Z" style="fill:#ffa412;fill-rule:nonzero;"/></g></g><g><path d="M415.895,728.251c27.049,47.081 61.061,65.238 61.061,65.238l141.485,0c-0,0 -223.172,-101.124 -202.546,-65.238Z" style="fill:#233862;fill-rule:nonzero;"/><path d="M524.575,1092.41c3.695,4.214 4.159,8.93 2.321,13.98c-0,0.018 -0,0.055 -0.019,0.074c-3.378,9.32 -14.536,19.735 -27.476,30.131c-1.652,1.337 -3.138,2.562 -4.418,3.676c-0.335,0.297 -0.669,0.594 -0.985,0.891c-0.259,0.223 -0.519,0.464 -0.761,0.687c-12.086,11.139 -7.537,13.683 -29.221,36.276c-24.747,25.732 -41.79,26.196 -46.636,23.856c-4.084,-2.005 4.233,-15.65 13.46,-30.985c0.445,-0.742 0.891,-1.503 1.355,-2.246c1.225,-2.042 2.451,-4.103 3.657,-6.164c10.824,-18.472 8.039,-27.123 5.477,-54.618c-2.079,-22.334 -34.735,-124.758 -34.735,-124.758l47.415,-8.169c0,0 14.277,81.557 30.001,94.126c8.411,6.702 17.823,6.776 25.917,11.751c0.557,0.334 1.133,0.687 1.671,1.059c4.604,3.044 9.283,6.182 12.977,10.433Z" style="fill:#ffb27d;fill-rule:nonzero;"/><path d="M524.575,1092.41c3.695,4.214 4.159,8.93 2.321,13.98c-0,0.018 -0,0.055 -0.019,0.074c-4.14,9.32 -15,19.679 -27.532,30.038c-1.633,1.355 -3.082,2.599 -4.362,3.769c-0.335,0.297 -0.669,0.594 -0.985,0.891c-0.259,0.223 -0.519,0.464 -0.761,0.687c-12.086,11.139 -7.537,13.683 -29.221,36.276c-24.747,25.732 -41.79,26.196 -46.636,23.856c-4.084,-2.005 4.233,-15.65 13.46,-30.985c4.827,-1.763 27.198,-10.86 44.111,-32.507c14.889,-19.011 24.821,-43.424 34.976,-57.571c0.557,0.334 1.133,0.687 1.671,1.059c4.604,3.044 9.283,6.182 12.977,10.433Z" style="fill:#233862;fill-rule:nonzero;"/><path d="M142.301,1062.78c-2.934,14.648 -23.801,12.197 -47.1,6.517c-23.299,-5.7 -17.767,1.076 -50.943,-2.6c-33.157,-3.676 -43.201,-16.04 -44.222,-20.978c-0.91,-4.382 15.484,-5.923 33.065,-7.946c2.209,-0.241 4.437,-0.52 6.646,-0.798c19.846,-2.488 34.383,-15.298 52.409,-25.806c17.08,-9.969 42.57,-50.553 42.57,-50.553l45.485,3.602c-0,-0 -23.875,36.258 -33.102,52.019c-5.439,9.264 -5.142,21.517 -4.474,30.986c0.353,5.161 0.687,10.415 -0.334,15.557Z" style="fill:#ffb27d;fill-rule:nonzero;"/><path d="M95.201,1069.29c-23.299,-5.7 -17.767,1.076 -50.943,-2.6c-33.157,-3.676 -43.201,-16.04 -44.222,-20.978c-0.91,-4.382 15.484,-5.923 33.065,-7.946l0.167,0.334c-0,0 19.883,14.11 47.49,14.778c22.519,0.538 46.338,-5.904 61.877,-5.662c0.353,5.161 0.687,10.415 -0.334,15.557c-2.934,14.648 -23.801,12.197 -47.1,6.517Z" style="fill:#233862;fill-rule:nonzero;"/><path d="M316.609,771.935l42.532,114.417l55.51,149.412c0,-0 15.075,1.448 29.5,-2.711c13.274,-3.843 28.516,-13.886 28.516,-13.886c0,-0 -15.409,-160.403 -44.166,-252.486c-7.371,-23.652 -15.632,-42.755 -24.748,-53.523c-44.574,-52.688 -87.144,58.777 -87.144,58.777Z" style="fill:#233862;fill-rule:nonzero;"/><path d="M704.36,665.186c-0,-0 -281.689,-95.24 -344.513,-74.985c-62.824,20.273 -251.446,395.567 -251.446,395.567c-0,0 4.251,5.662 15.873,10.025c10.805,4.047 36.963,3.787 36.963,3.787c0,0 170.242,-145.921 190.497,-188.473c20.273,-42.551 28.386,-83.097 48.64,-79.031c12.384,2.469 108.105,61.413 193.839,61.413l124.089,0c53.653,-57.756 38.634,-149.338 38.634,-149.338l-52.576,21.035Z" style="fill:#2b478b;fill-rule:nonzero;"/><path d="M508.665,17.161c11.603,-7.846 26.102,-9.73 36.332,-9.922c-2.841,-2.5 -8.076,-3.085 -8.076,-3.085c6.238,-1.428 20.811,3.735 20.811,3.735c85.14,-40.648 108.996,87.514 109.479,117.684c0.52,30.165 2.971,64.743 48.882,88.263c90.338,46.275 24.803,144.433 24.803,144.433c-0.65,0.453 -34.884,70.402 -34.884,70.402c0.334,-24.435 -121.583,-143.768 -182.978,-177.571c-15.854,-19.826 -23.782,-56.41 -24.376,-59.292c4.734,29.129 11.028,45.184 16.226,54.097c-53.003,-41.673 -36.963,-207.959 -6.219,-228.744Z" style="fill:#b5453c;fill-rule:nonzero;"/><path d="M548.673,247.554c-0.26,0.174 30.205,10.578 50.59,1.554c19.159,-8.472 33.695,-40.014 33.398,-40.028c-8.725,-0.403 -18.286,-8.028 -25.657,-58.055l-3.713,1.331l-62.453,22.467c0,0 4.53,20.036 7.463,39.107c2.451,16.017 3.788,31.359 0.372,33.624Z" style="fill:#ffb27d;fill-rule:nonzero;"/><path d="M540.838,174.823c0,0 4.53,20.036 7.463,39.107c35.85,-6.455 49.941,-42.185 54.99,-61.574l-62.453,22.467Z" style="fill:#ed975d;fill-rule:nonzero;"/><path d="M618.348,136.748c-0,-0 19.085,-30.161 23.67,-55.952c3.268,-18.411 -6.108,-86.66 -74.687,-76.831c-0,-0 -19.921,1.962 -38.653,14.609c-14.889,10.056 -36.369,31.768 -12.346,91.323l6.238,20.119l95.778,6.732Z" style="fill:#b5453c;fill-rule:nonzero;"/><path d="M531.556,194.708c-0,0 85.418,-11.466 77.453,-64.554c-7.946,-53.089 -2.283,-90.323 -57.162,-85.248c-54.878,5.076 -62.416,26.92 -64.068,45.286c-1.652,18.365 21.35,106.131 43.777,104.516Z" style="fill:#ffb27d;fill-rule:nonzero;"/><path d="M512.842,49.468c0,-0 32.73,58.749 69.935,62.547c37.186,3.801 51.277,-8.14 51.277,-8.14c-0,-0 -30.763,-17.669 -42.217,-54.894c-0,0 -65.888,-31.811 -78.995,0.487Z" style="fill:#b5453c;fill-rule:nonzero;"/><path d="M519.377,53.65c-0,0 -15.316,16.534 -17.525,30.694c-2.21,14.158 0.092,42.271 -8.169,42.551c-0,0 -23.968,-39.673 -7.835,-66.6c17.117,-28.553 33.529,-6.645 33.529,-6.645Z" style="fill:#b5453c;fill-rule:nonzero;"/><path d="M770.452,666.671c-4.66,12.902 -18.918,16.226 -38.022,13.998c-36.425,-4.27 -90.523,-28.72 -129.528,-45.633c-59.446,-25.769 -86.477,-1.56 -105.376,-17.953c-18.918,-16.411 21.61,-52.873 -13.516,-222.211c-11.918,-57.422 64.291,-180.942 64.291,-180.942c0,0 5.811,36.048 78.048,-6.822c2.544,-1.515 30.985,40.587 58.369,92.484c30.187,57.26 59.093,126.425 50.59,162.066c-16.207,67.946 48.64,167.53 35.144,205.013Z" style="fill:#2a4e96;fill-rule:nonzero;"/><path d="M770.452,666.671c-4.66,12.902 -18.918,16.226 -38.022,13.998c-25.211,-10.991 -134.114,-53.189 -132.907,-81.78c1.819,-42.328 20.941,-43.683 7.444,-95.926c-10.86,-41.953 89.781,-119.958 105.821,-136.915c30.187,57.262 31.023,59.969 22.52,95.61c-16.207,67.946 48.64,167.53 35.144,205.013Z" style="fill:#1e3d70;fill-rule:nonzero;"/><path d="M359.141,886.352l55.51,149.412c0,-0 15.075,1.448 29.5,-2.711c13.274,-3.843 28.516,-13.886 28.516,-13.886c0,-0 -15.409,-160.403 -44.166,-252.486l-69.36,119.671Z" style="fill:#2b478b;fill-rule:nonzero;"/><path d="M548.301,213.93c0,0 -74.316,12.601 -83.041,44.594c-8.726,31.995 -60.077,220.082 -60.077,220.082c0,0 37.78,6.787 55.231,-10.664c17.451,-17.451 60.727,-161.91 60.727,-161.91l27.16,-92.102Z" style="fill:#2a4e96;fill-rule:nonzero;"/><path d="M626.349,207.108c0,-0 70.232,4.327 94.552,38.24c34.235,47.741 102.127,251.196 63.215,278.334c-43.814,30.558 -199.446,7.983 -199.446,7.983c0,0 -5.179,-24.19 2.024,-35.909c7.203,-11.709 124.294,-30.625 129.715,-36.031c5.402,-5.404 -67.559,-105.387 -67.559,-121.599c0,-16.213 -22.501,-131.018 -22.501,-131.018Z" style="fill:#2a4e96;fill-rule:nonzero;"/><path d="M623.453,597.627l-299.957,0l-54.08,-188.571l299.493,-0l54.544,188.571Z" style="fill:#f99746;fill-rule:nonzero;"/><rect x="324.517" y="590.275" width="392.132" height="7.352" style="fill:#ed7d2b;fill-rule:nonzero;"/><path d="M418.735,500.281c-1.893,-6.63 1.931,-12.002 8.559,-12.002c6.628,-0 13.553,5.372 15.446,12.002c1.912,6.637 -1.931,12.002 -8.558,12.002c-6.628,0 -13.534,-5.365 -15.447,-12.002Z" style="fill:#ffb93e;fill-rule:nonzero;"/></g></g></svg>